<mxfile host="app.diagrams.net" modified="2021-07-16T09:46:34.120Z" agent="5.0 (Windows NT 10.0; Win64; x64) AppleWebKit/537.36 (KHTML, like Gecko) Chrome/91.0.4472.124 Safari/537.36" etag="AYksAxQajtcCh61xfWjX" version="14.8.6" type="github">
  <diagram id="ZamsyW06iMtIl-IfdBVD" name="Page-1">
    <mxGraphModel dx="1422" dy="762" grid="1" gridSize="10" guides="1" tooltips="1" connect="1" arrows="1" fold="1" page="1" pageScale="1" pageWidth="850" pageHeight="1100" math="0" shadow="0">
      <root>
        <mxCell id="0" />
        <mxCell id="1" parent="0" />
        <mxCell id="NjIfr40OnEK4QTtOGcaU-6" value="" style="group;fontFamily=Tahoma;verticalAlign=top;textDirection=ltr;horizontal=1;fontSize=18;fontStyle=1" vertex="1" connectable="0" parent="1">
          <mxGeometry x="40" y="40" width="520" height="316" as="geometry" />
        </mxCell>
        <mxCell id="NjIfr40OnEK4QTtOGcaU-1" value="" style="shape=image;imageAspect=0;aspect=fixed;verticalLabelPosition=bottom;verticalAlign=top;image=data:image/png,iVBORw0KGgoAAAANSUhEUgAAAtIAAAEQCAYAAACdopOIAAA8/HRFWHRteGZpbGUAJTNDbXhmaWxlJTIwaG9zdCUzRCUyMmFwcC5kaWFncmFtcy5uZXQlMjIlMjBtb2RpZmllZCUzRCUyMjIwMjEtMDctMTVUMTUlM0E1OSUzQTA3LjAwNVolMjIlMjBhZ2VudCUzRCUyMjUuMCUyMChXaW5kb3dzJTIwTlQlMjAxMC4wJTNCJTIwV2luNjQlM0IlMjB4NjQpJTIwQXBwbGVXZWJLaXQlMkY1MzcuMzYlMjAoS0hUTUwlMkMlMjBsaWtlJTIwR2Vja28pJTIwQ2hyb21lJTJGOTEuMC40NDcyLjEyNCUyMFNhZmFyaSUyRjUzNy4zNiUyMiUyMGV0YWclM0QlMjJYZmQyTkhjZWRabE5JbHBLRHU3MCUyMiUyMHZlcnNpb24lM0QlMjIxNC44LjYlMjIlMjB0eXBlJTNEJTIyZ2l0aHViJTIyJTNFJTNDZGlhZ3JhbSUyMGlkJTNEJTIyWmFtc3lXMDZpTXRJbC1JZmRCVkQlMjIlMjBuYW1lJTNEJTIyUGFnZS0xJTIyJTNFN1h4WGw2dTZzdTZ2V1k5bkRISjRGR0NDVGJZeDREZXlBWk9qJTJCZlZYY3ZkY1lhJTJCMTd3NW5ubnZQdzU1amRqY1dRaXFWS254Vkt2d0xLVGE3TWtiOTAlMkJqUzdQVUxnYVg3TDZUMEMwSGdGRUg4Z3Y1ajZmdXJoV1clMkJHNHF4VEw4NyUyRmRad0xZJTJGc3V4SDdibDNLTkp2JTJCMEhIdXV0ZGM5bjlzVExxMnpaTDVEMjNST0hiYkg3dmwzZXVQcyUyRlpSa2YycDRacEVyeiUyQjMlMkJtVTZQNzlhT1JyN3JWM055dUw1WTJZYyUyQjc3VFJEODZmemRNenlqdHR0ODFrYWRmU0hIc3V2bnJxdG5GN0lXWTk0TXZYOCUyRkpmJTJCZnVyNFNOV1R2JTJGTXc5b3ZDNzRUdiUyQklodWUxN0RTdkp6ZndYOSUyQmpyTkZyJTJCVjd3TjdIeiUyQndjSHhtNXAwd3dOZ3Y5Q0NxOG96bDUyTjVWejJiV3dMWUd6WnlPOHNXYmpYRUslMkI2WCUyRlRZZTU2ZURkNmxjVmZkZ2ZmTiUyQkp1bnJzRzNzaTdkcGFqcG53aGdibEZ6NjZKdmx1JTJGaFFNdTg1c01vUnZUYkJTN1Z3ZEhsTnF1aGJlRjdWbk8yYldQRXRSM2cwSUoyNTV6OCUyRnFtJTJGOW1ONVFFSGkzNDBmRWIlMkJYdTJQenolMkJHJTJGSVVnT1k2RGpkTThkblgycCUyQmE4ZkwzJTJCWnZxdm5qOUVCVzZ5OE9kOSUyQnNGMHlJSnMlMkYxM1Q5NzRwV2RkazglMkZpR1hiN3ZNdDhpOVA2aEc5JTJCZnQ5OGtrdjBoWnMlMkZmU1NQQmZqZEczMXBRJTJGRHIwYjRJQ0w3NWw1YSUyRmxadXllZW1WTDdMWHIlMkIlMkJkJTJGWVZ5WXRQRiUyRkVmOVlicUM4OSUyQml5YkQ0cTluY0Y1TmVkJTJGOXJUS0ttTGo4ajlqdHY1NTk5ZlNNMjNjRTM5bCUyQnJuNVk0RVZmaE1DWDYwWWo5YTRIVWF6VkNjd05kSFF1N2I0aGRDTE8lMkJDNVc3WVJTazZBUCUyQlpWJTJCOTU4Z3A0aFg2QUJrUVF3cjhTbHBrM0JyVUlTaXJjdkJNQUZ6aUVabTclMkJoWEZROHd0ejcwJTJGTUklMkZnbVZkTm4wbmpBOGQwMWJMemk2dVBQQjNHJTJGUG55NXpnTDElMkZMaHRzSCUyQnRYRDFYdUt0VnhKcFFBT1RoSEpDNWsyODAyY3YxcVQ0NVhQRXFPbEklMkJuU3JIRXJiWGMzQm1ON2tidDJ0MkxDQzRSc2M0cUclMkZsMVVmJTJCY3g3a3FtUHcyWm42UyUyQiUyRmZpVEdsbEdtcWtzRFV3MUtMZHZPaUtJYThqdWRJdnZyM0E2Nm9jRyUyQkFFQk9KWkhNVjhrTG8wdGpDMWRWYUV2akI1dGc5NHl5bEh1S1c1SElyb1NGOU05JTJGQ1d6eWRkenRtOVpnSWxETHc3OTJIUjVCSjZKJTJGNGcydm90d2JBJTJGJTJGMmVUVHhHNSUyQjQ5JTJGSE1aVmoyY0lUJTJCeDNqUlVjVmRIMWYxMUlDSGQ0WlRucHVzWXBmSWVhU1lQT1d5VUtOaXFWJTJGQVg4MENDVEFpYUk0QXEzRTl4d3VDWFpzenVPVTNTakdhNUdYbnVBOWlINlVsJTJCVSUyQjZjNEptWmtHSTJHdFlPYkMlMkZnOWlwUnlMZktFeUYlMkZ2WGxKVnVKTGd5Wlo2bHdFa2tjY2R4ZlJNZUtwZVowQnZIelNWOGJLeW53SUlvY3Q0VUJEJTJCa1ZFbDhCViUyQnJTVzlSdHNXQjBzT2k5bCUyRnFUd3Z2MmlnQ3VBREhKOGoxTVd3OWNtVWZQNnhwaHElMkJJNUc4cnVIQm1TUlQlMkJVWXJ3JTJCRGcyUEtGQ05DSFJCNlJOTFE1bHNCUEJ0bk9ac3BNJTJGcUIlMkIlMkJsRGlkUFRaMzQ1TmVBdkFZamQwZk9uUENKRWtwN2hvelIlMkI4TmdCYiUyRkhPSm9Kb1Juc3BZWTgwNE5RMTZKOW9aJTJCRVAlMkJ5R1Nlb0lUa0ZrV1BqYkxPZm96NW5CV05MY0tkZUIxWlZOJTJGalZXUlJMZHE1c3g0UDdqN29id2tpR1dUcml0JTJCJTJCNklJazdZVGVJJTJCQlowSkd3TSUyRmRDVGoyWWhCT0RDbmlIQ2hCJTJCUkklMkZoSyUyRk9qaTFBb1hBJTJCSWdKJTJGbno0WDhMZnd1Zmp0M2w4MCUyRmQlMkI2JTJGeFAzZnNvZ3Y3dUhtaUp0Y1c5RFZvbWJVQWclMkZhMmo0QjRPNmc5b0tJUXFoOWlSeEE3V25aVGhkZTBYMW5iJTJGcDhWaFg3N2V0ekY0JTJGYUVRJTJGWEN5MFF4YjhDVHFNcmEzJTJCbkI5OFRPc0hRSXJlVUt0WUNKNWhuZGFxVDNFdlNKVXgzcWVweUlmNGNGUiUyQmhlaUxFTlF2QWIlMkJCVG40eVpsYVpYYzQlMkZCa0owUkN6aHp6YXlDJTJCTmFzaDJaYzVyNm5KY3lPQyUyRlYyayUyRlNacG51RFhOU2ZLZUV3bEl5WHNockVVa0NNciUyQm5PbyUyQmdEUlV3YnMzdkFmSkVyYUdEbGltSiUyQmVTQXNPMmdINUxEZU9jdVdiOTJTenlJcXZoQXluQm56dGFnZWxEdEJNTWF2QmtVa3RubVJVQlQ2SWtyN3lTcUEwa1dTdHNScUVUcHhydkNKcnV3amRCWU9aclJvSm5hbld0VHQzMFR5ZWp3QmtsdkNaZ3ZBeFZrVUtQbEtoNWFQVFNRVkNhQ29yTm5teVlMcEk1TGQ5QXJWMEN0cGNkVFhWMmJlRTZNQzdCOVpEVk4lMkI3SG1uRGZmT3hJcXVrN3ZKNzY1SiUyRkxIUmpDdjNTMkZFRVEzbXlWM1k5cnJnOXUyZyUyRkYzdW1kblE3c0E4NDcyeUhxeHk0TExLVlZiSFRqNjJ5RGJib0N4MFd2MWhDdXhnMXFrYTZUSzRXcSUyRjI3ZUxyTTVWNk5tZ0t5SnM2NFRDMXREcXVJRGVWT05RR2VIQ3BKUmd2eEVGNW42SE5sdFV6bCUyRnFCbGtsaEFLMEN3TE9GTkl6YmcyJTJGb2U5RkFRN3pxSE1pZmI0ZG9tdlpFMmZPUkM4N0drRFd4VVlQMDAyWHhaMkFteUpubng0UDBRVkFzYVM2cFdOV2dyWnRJamlCYVhva05zUE11ZGNhR0pwMCUyRnBnWUtydkZnelZqUUpuRThPeUFyVERRYW9JTWljUkxja3p6dEVVVHJ3ZkFwY1Z6SVRrZGJIZTdXNTh6d0NNOCUyRlNsek4yRTZnVXVNakE0eU1tbTBXb2RWbkRCZkhiREpuQlNvYjBZSWI1eHRuQThXRExwUThYTGRENDBRb1dWc2tnUk1HSGdVb25oc2hSY0N5b0l6SVBzVDVXb2MwS2N6Qlo3MUZHRmoyaFZBbFY3dkclMkZlaU00d0J6dnZKaHY3OTVpZ2Z0ejlFWUhOQ3IxamZpcGFBVGZIUkFtYnpiUFN4VmlpS3YxY1ZhYm9uc0JoN0FMMFpEdHhuR1lVSFcxZWhCdXhqd2I0VXFzejBsdzNuOUslMkJLbldvTjVnQ3JZbkpMOFNGNFlBJTJGalZhbkZHVEFmMjkxdktkeFp3YUx5Nkd4Z2RQc0theUE1V1ZQVDhZVWlnSWk5a1JVWDhSN2ElMkJDJTJGcks0QUpNZUo5cEpISTFMdHh1N3kxRnowaDFzMEpwWkJlaHhPeiUyQjJBdVZvV1lZTiUyRjRWakowY2RkNmpGJTJGWm93dnFKZGVmcjZ6MWtSY3BFQkZSbE8xNmlJWjJNN3dBMGNVMHBaUmNQRnhsdXpWcXk1U3ZwY01ZVmNJS2JyM0RKdSUyQm5wdmxDaWh0UjkzU3dGR3clMkJLQkY2ZU9McElMSjNPQ1NadSUyQk1sclclMkZlZ3plMnFJSmlJbXo4WU9KVWd1VFlYUlBvNEtHbE13aUx3YUs4RWxWVm1sMmdWT2IyR0JaRUU1RSUyRm0yUHg4Wk85T3dwRDBJeEVkTnpNWkZkbXA4YW1WWkR4SzZJcUVFTHBiVG5OWmkwVEJJdzQyeEVVMGdyUE9IWmRaVEtwYnpoV0huWHJlbW1CNmJReGtqeHVUVVZjU0V2RGZEM3ZtRm81TldDc1BMbWRJRE9SSFlydmhUVG1rZmcybjhnV2tUaXpnZGxvVWpObGlBUlh4MXZPT3JCZEZKMXFVU0hFRXg0RklaY2F1SXNra3BjSUdSUzB2bmRUJTJCR2RURXQ0cUs5WmglMkJVVDlQZHgwS0NHNmJzbkVKS2RDanlDOGE1Z28lMkZYanBReTVVUGRMREMlMkJ3cURZMU5NM2JpR3lXMERqSzBYSDNhWWcyTWptRFBTWjJMeThrRTFvaEV3ZU50YyUyQkhyN0ZSSVVWalhVTEZmdGlRQWxuVzdrRUd6cmlkJTJCcjUxVFlZMGVtNkVubUR6aUpiNkFHanYyUHZJQ2VxTkJCS0lSVE91STRXdGxiWWd5blBMbGclMkZRQ29acDg5Q1hDQWFad0M2SlgzWkI4RiUyRmpQVU1BT0FTRUs3UHBJSHd4RUN1Q01uRSUyRk9abXduJTJCUENxSGN5NVFSZms5UVE1ZU85dWNWalo0Yk5xZVV3WVkyZXRObFdCMnc1T0V6RyUyQmc1Q2o3Z3B5SENlV0poQlZTU01XQUR2UjdBeUVLSTQ0WDRRS2NTTkhqaDRjd3JuTUFVaTFrTk43QzdYRGJaZk5DQWlGTGdBcG9nbm9QN1JOaGo1a1RqQk5oNlpNQUpvb3FSWHdOYWhob09GNzRBcFdSRUhzb2kxR2hiQm5qanRlc1hmbll5biUyRkdkd3JPR1BhOE1qaklkbXhvWG9LbWFsM2VOemdyTkl0RGpsNmZzcmw2bHVhc1k3V0syb3pudDNLWSUyQjVjamgwZHRhMDNHS3pqeUtick1wYUZqRDVoWnUzbzg5QkJFSyUyQkwxVnl5ckhwazdyTWhDYVF1WiUyRmJCeFZoalJRRUV6cSUyRndwa0lsRUtpZUh2b05KRUp3UGR0OGdadFJkJTJGYUl2TjczUyUyQiUyQlI2TEZFUjZ4TXIycXFHYzlhMDhmeWRaRHVpQ1VRN01uUUR4VUZOVmIlMkJ5NWNOTEtjRDltSGVyRUhBWFhhRDR0Y1BaN3A1SSUyRld0U1UlMkZEakEyNWFUdWpiZVF2TXJ0NXZSJTJGYzh6V3o4Y29kYXhvWGtZazllQTI1MUw1OWQ4b3FkTXdiZ00xJTJCZCUyRk9TdlM5JTJCZzl5d0VaSm5td3BrcE1uNURUdGhkSkJSRkhJViUyRkxFblk3WlUlMkJWUEFOV3VNbHNJSHZJbFdJZUx5eUY2enhzcGZFTkVrSzFNNE04Y0ZITm5sdlM4RSUyQk1RVU1mUFVBRjE3cWE1M0NMb2tNblplT1JycHAlMkZFeDQyckFWU2VBa2JLT1g1UU9xV25uQURWNmZQeXphODEyam1NJTJCaGolMkZPbkhRQ0s3UndKSmFsZDJuRmxFSU5zczIlMkJJWWhkcUNvNEhmayUyQlZQamRpUUNiaDBKJTJCTDU5Q2ZFdXVKVkVjUjBQUnVBOXlhT0d0VHBXeENobFl4VFJFZjZLRDBMNVZlTFVGOTEwREhmSlB4eHlLZnJKcnlPUmRPeDVjSEpMMWUxNmdoTXVZZGZqVkRpTmc2bGZVYyUyRiUyQjA5dkdMOGglMkIxUUVraCUyQmh4ZEpBOWtVaGNEMDVWdXBQa2VOeFhROXdsNGdPT1BwRGw0aUN5Sk92a05mMTdZcVRSRHdSRkp6QlJ6VWluRWhoY21FQTFLYThWdEFGVEJXRGVsa0Z2Nm5oYUFRdjQlMkJBZDZseG1UbzNBUmZjY0RpU2tUTGJvSXplQ1o5SzZrWmlDN0xDeGlBQ25rRTVyNEM5U216Y0l4VGI5NGhGckZ3S2Y3UXprdWV5cE5UMVNsWnljJTJCMUNpM0tzTjVWZHRnMkVMbjM0c3BmUjc3d3dFdlVrTk5ENFZmT2J0eGp2eENBcEY2UjdqakFFUnZrQnVtJTJCQk9lOCUyRklSUUQ2REF1Q2glMkJidEVWZ09Qc1NCRHR5cTNMbnFSOXJUZEt5cXBYRiUyRk5aMDVuSXRyUkFLRFVQdTVQdlR6UTQ2QllhWkZDayUyRk5rWEN3cWI5b3FCQWQ3YXYlMkZGVHkwcU93Q1NsUG5TM2Q4cyUyQldVeWlPUjdzTTJka0ElMkZsQnFwZXNjZ2MlMkZ2YzJldDFUN29EZG1zNm1wRHJmQkhkc2VQMVZTdWpZY25DJTJCNzhmeUJSSmxpN0pPJTJGNGg1azBDSTVsejZud1FWTXplRVVhMEpldCUyQmwlMkZKRzc1U1VNSiUyRiUyRklnU3B5eEFqSWdPMyUyRnBYdmtMMTVWJTJCMmFCcExOT3hHQjNkdVJpOFV0M2NxZUY0dFEyWnFGSzdubmxWM241JTJGbTZJajlIWExiVkd6ZWpYU1dMbThVa3dGSWNvREkxSDhMZ2RMalo5Z2hQSTRyYmNWNFIyJTJGYUpyUmVERlY2bGJiSWRDQUElMkZlNDNwbm5UTjhnMDNIbG1RSk80cnB4cmFkeUhyb2NVd0F3OXp4MTdLNmdUOEY5SWNGWlJMYVk1SjdSUVBKd0pVZjRDcndEU3NWd21rQURnYzlrd1RBZEpGRGE5aGclMkJKUWQzU3dXNnBLUFplcWl5cE9mbjk2UEZsRTN5WFo5NDY1dFkzSVdsd2wlMkZKQSUyQmh4TEVEdEtUT1NINEdPblRZQTVUbEc2Q3NDQThKa0ViMmNrYmNSUEpROWNZQWhwc01jVTFCVzdqNTlhMmlvY0E3MDBTMXpteURtR00wOVdTOFNFRW5tVmdQOGRPbUJMM2hmT2p4RU5UbVpRSVFtYkJPR0xrcm83SUhzSHZBa1ZnUSUyRmZKb09YaTdwV29YWVBSOXNROHVVdEoyUk40S21ZJTJCWWxwJTJCWDNEbFJMVFFMekpvNWNad0VyeDFRQWhsY1dsJTJCJTJCYkptMmEzeUhUNktSQTdQRUxNcmJuM3ZIQlElMkZ1QWNEaU8lMkJNcDZSa2NnRUNJT2hEcDVJTHZsTkhRQTA5cW9Yem1JUFJBTXBoZlVQOTV1Mk0xMHZoN2VBTGlPSGhraGkzNEhWM0VHMEI5bE0wSVZRQk91JTJGU1g0UXNVb05jTnJvVVhKT1dDOWFKSGh3cnBIZnM2OTdTaThkUmRzWnkycXFMRGxOMlVLbXZoSVNta1loJTJCcUdUTyUyRnpXWkJiaUptekd6RUdpbkJ5SCUyQkZVYUc4QXFReU15TkxranVQcEMlMkJXSlVsT3dBWGFRR2pKRExuN0MzWUNpbUNqbUJPZkVXOUEyZWpSJTJGUzlHbzdITWkwcUo0OHhEVXlEQkM4bkhGZGt0Q2gzSXdSS2tiNHVaYllVUFI0dDhDUU81dnc2TEJmUkxrSjZ3VDJiWCUyRldoWXQ3UWxQTGhmeVhRaGI1QW9hSDg0SnRKMiUyQmRCOVJScXA1OUZEViUyRnMxazNkJTJCNTl4T0gwdjdsUVNTb1YzTzZMWHlvak41N3BXajU4UEd3T25wWFlmYzdFTVlYRVpVSUZhRW9ONnBna0dHNk91YWxKVHVFdzNFU3RCUDVsckRIWE4zSEt5ZmxycHNrcm1OWjAlMkJVeG9NQ3B4ZDVSazN2VjhDU0ZBOHNQenozbSUyQnNaRDdYYTFSOFVoTGZ3ZGlxRzZhUFNoMXNzODlzSjN3cjBTR0xrSmhYWmhVTEt4VnIwaWVvN01IZ0tzelZrZHU4N3pnd1BoS1pxZ0IzbmdBTWNobEQlMkI2Z3ZMSmg4MEJKSGZZNm5Yb21TY0FhZCUyRkMlMkJTVHZwSXNzWXh1UUlxaDd5Tm5rb1F6TzdoRHlOJTJCWlMyQ0JkSjhpc1lWOGYlMkZMMVFLWEd6WWhHRHBONnR3TGVGTkRoQjloWFc0S21GMUxnWDBrODNzY012SFhlbUUlMkY4ZjQ0Zks2cUJ1dSUyQklYZnBDTFp3QnR6UmMlMkJzTEVxQVpIQSUyRldiMzlmS3Q0UjIwZG9HRDBVY1NiV0tJTlJ3WU5EJTJCakZ6ZURCaEFGREJBWiUyQmV2elRqaHEwWjZSNVFxdWdiUSUyRllJUk9uV3clMkZXUXNUd0VEeVpjVU5CczdTaEFVNWs4cWh6bGsxY3RLeiUyRmh1T1FHR0VGRjJKZ3Zib0hnUkVPSW9kakVvdUJBUDlhU0xWZlZXb1hYQ0hZRWZuU05CMlRkVHp2SU9VazRnMnhRSlpkU1piTmtlQUZlSTQ2RzRtTVJqdSUyQlNLcUNHT0FNM3NWWG0wM3E1dXhCWDdiZnlWUkVHak11YUtJaTRDN3plNmdoVUslMkZJbFZEYVJYczFZNFZNNTNZbXplMzhESFZRY0hiRWNqZ1JCVnFlajJBeVdnZnNwOVlMVGJxcGwlMkZGNjVIanhTdWk1NVZlSFdRTmtpdTBQczBabkhGZ2M0ME1ZaXlicTd6SDhQTktuSGg3ODJUcXpDbU5GdVo1TnN5cDVFOG5yTCUyRk1NdFlqTkU4bUh0QnBMdU5OQTZDY0E2SGx1NHQ3JTJGQlhsQXFNWVAlMkJUTEpNQlFNNjlVT3BYWGFLdWtTNHVSSzN2alpkcG15WGFteENGNUs2ZjlpQm9XR1JsU2VuQ0lId0xLSHlFVDJKRGV6R2paRWRvTWU1ZjFqb3RLdW5wTU1KVGpCR3pTd1pTc2RpV2dWSlY4UU56ek5DSCUyQktlOUxZVWlQY09Hd0NkbHJKa0NKT3hpMUlteXY4Nll5MUdFNmMlMkJ0U0xDeVRRNFlLRGhmWUtWdW1XQ2h0OWljR015RXV1aU9CZllON01MdTlnOUxmZ3BHMklZYnBWdGdmY2JjOXVVZk1ldjhZdkNoOUd6Ym5zaW9wRGVpM3NVTXdaQlV4TWV3M1R3UVc4WVpnRmxDR0JaJTJCWGROM1VSQ2o4QlRCUkVEc1RoUkNLMnllWCUyRmJwMzRBbjR2bkFFc0pEN1NZUkthbHd4ZEM5d1hlTjIlMkJuanZ6cmlYa2w3U0NXQVFQV09jaG1LazM5a1pFdHJKUnh1TldzcHpYbHZJQ2d2d2tXWnVYUHBsNEpQSGFmUEF1N3JmYXlSZm9hb0hMb3FnaWI1U1lkeGFncE40UG1hMzgxbDZTS0VEemFPN1FwQzZ6MElMSW1qU1czOFFZV01EWHROZHpWNmlBQ2RLR0NTZkElMkJqbENFdjJEelolMkZMUko0UXJCNXpJMTkzS2Fjc2olMkY1QUdYZzdxTTlYeDFiNUpHcjlTUHRqbzB5SDB3RXpwQSUyQjVRSnpMRjFBa0ZGZ2NzYjhISERvNUJCczd1MmRMRklraVJ3Zkx6RHlWM0FYUDFLa3JPVUlna1F1ckU4Nk9GV1FNY0RwVCUyRlpnN280Z0hhdVhlJTJCUHVnTHJWZ2lHJTJGYiUyRmt4TkMwM3FwbUFtMFE5aVk2ODFBYk9qdG1zNiUyQnVsbEF4Zm5PWiUyQkxpS0pwVlh1VU5NbjhacHlFYk92SHNySjZDZ25ZOHFBbzJnWVE5aEgzVkxzODBGTXlIYW5LYThMJTJCekN4Zm1GTVhNREhWSkRqSFhJQlJoSTY1dmtHZGk1VWQ1N3NOcm83SnFTVzZ5ZDV4Nko5T1dYa3hzVVUlMkZ3QiUyQkdZT05mQnpWRmJsJTJGcVZOZTlqb1pUWFdpa1R4WiUyQkoyRFlVJTJGckhKdk1IazRQQ01abFlUZ3pCdlM2WFF4bUg5QVdxNXV0UHpLYlpGQkdycUxzY2JLakt0OTdxSkk5djdKalV6bVBrYzl3Nnd2MFhLQWI3TlBpeGllZUV2dGM1TnZVTFBROWh0WFVCZVJMSmRWZXdZbkF2cUFzaVhoREp1QzR2dk54TEJjR2hqUHk0MEdZWUslMkIxd1VpbExnMnVLQWpkZEJ4elZtSjlyanlPamJYd0pDJTJCdnM4bzFZRHE1MlY0cmRzUFUzRlZQWjJoNjIlMkZWNU8zeVVra0lwaHRYdW9ObGF0ZWUlMkJZUXdCWmpBd0laSEhuYkFuRkxLclVsTURvcjlCYUFpa1JBeFVrbDY1SVl4dTRMS1FIb3hud3AwVEhYdmkxUGFlS1JUd0xSUnhxM1p4QmZkNkpvWDglMkZUUUxNSE9Ud2ZIbENjd21VM2x1aGtHJTJCQ3lMWkdnN0V6b3hNNmRGUkc1Rm1xeHhkd2doY0lvNXJGV0NiTGNVR09qOVRnRTFleTBRT0o4TThyb3FhSmdwVVhoVDJTNUxudzlIY3A0aW0xY0xuSmdIWlladzRoZVJlNU5sZUlMTjFsRDJhVHpkazROTUtHR3F6YzRMZkFrTzRvNWppNXE0Sk9ncHdUQ3M5ZkNNQ2hSQlFOMCUyQlZKRkN6SmNkeHJ3U0U4cEJWOCUyRkNVUEZIcWIlMkZMVUhxR0dNZ1h5MXR2djdSSXhmcEZ0T3dETVNXRWVXYXlpNHdPS0I0VVlhUjMlMkJZTGFGdEdDa3pSaExQJTJCaVRMbkVVYUJabHRwVW94WXBPS0F6bEZkMFRCYWgzd3V6NCUyQjczRUlNS05PenJTMlRRQjlPZ0lBeU52V1llenZsZ29ZQXZRQVE4em1HN1BldUp3Vm0lMkJadnpOQk9aMkE4ckNXRXNaZTB4bUh0b2xmejdGNmxoT29lcUtucWVod05xM1Q1JTJCQVFLRlZhMkdjMURKRHJBeDY0cmtGV3olMkZNeU9tRGdWSFJPUzF2Y2VIVVVDUHUzZFJueng4MEthdWNDREJRTlhFS09xemtCN3FoM1VUQnhGS2NFYUphaG05bWgyR1k4UVB0NUtlMVUxQzJYTWJLTHVhMHdNcDhtOGpVbHp1VU5iWjZabzBoJTJGUUVqNmhWJTJCckJkajFucHBEV0FCWk9CN2tPVnJab05Obm4xYVBaQ05ENUdyU25aYlU2Vm1KaFFhazRNSXhaMmFxJTJCVE9ibGUlMkYyUkVhQUo1RXpxWFl2Znl1Mm1sd3hGOXB3Z3BkRkMwSEpLOG9FdEphc2tDRkFsb0RYMUNmaVltMGtGJTJCa1QxQlRwSzRKTDZTOTNNbjhIOXdOWGNaZkh3aGwlMkY5bDBiT0c5eU4yV2VSTGdkUVFKSEJuSlhxem13YWF3VFFwbjBYT2JzdXlYcHFjJTJCQ1llNDJUMFZuOW9MeUhMZG5iTk9DQTJZTmNDZUwxRjRpYyUyRkZka2JSSHB2YnBuRjlObTJjN21iRmtGRDZ4M0FJdFdUdXo1Tk9tU1NZTjBER012bWRZeUxRaHRTQnZab0hhJTJCUjhJJTJGRUZ4JTJGcHhQZms3M3FUTGZ1U1c1eDF3c1FKbU5pVnJuRlFxRmVSVTZUTEJKQW9PYkxCYXhGMTJZViUyRlowVjlmJTJCd2xkWDIxeTElMkI3OGRUdnd2aTFxY3k1TE9HJTJGbFZDZkJCRHoxQklJSDUxQnFJMk1HNE00WSUyQjh3RGFLYjU2SlFXQlUxZmtJREVrNGh6VUJJbTdIVng3V1ElMkYlMkJ6RmpXaiUyRm9IeG9WVyUyRnV5dUQ4NyUyRmJrRGMlMkZYMTFCUHdUUEU0UVhCUTh5enclMkJQdmZYbWdGME5HQ0F3cjY4M2d6SXhrVWllNFI1NlhIOXJTcEF3Tk02U1MlMkIyU3RwdWhrZFVnWkJ2MXZ3NDFWZHNhR3BVNjN4WFZucm04RDlVQmZBVExvJTJCUHRuQnVuYjB5UTBueTN0ZWtQSUR4Z3RWVnBCdk0xVkR5aUJieDRERiUyRnJ0UmUlMkJ1cnprUVFNSWlPVnRkd0FLNk9WQUhaSDhLZjJidU15cjZ5UiUyQmJYSVR4V0dCZ1FISFhBdDFlc1pwQ3kya25RbzAxWm5VeXVXODJsNnV3NW4lMkZwVG1QJTJCVExzZk1tZzJaRE9ESlNOOSUyQmgzY2QzcGZLdTA0SU9JMHdWdXNuelBVbmZRUXFZSDl4YTlJdDdxNU1Od2o2Q2M3MSUyRlMzdzJSZUxIRFFhd09xJTJGMXdaa2xXSno5MHFPWGZLdXZpOU9JNHM4cEhxT0p2NmtlSSUyRjVjUFVhUWYxVTlSdjVQVlk5UiUyRjNyMTJKOUx1djVVOWZVUEM4eiUyQnVucnNmMk5wR0ZodnZ5c04wd2Y1anF0YyUyRnB4VGI2bGZ1S05sbUNqTUYzbnF0Y2FGcW5tdHp5OVJQb2RiR2dscXZiQW4yYjI4TUZrSTczVXRQQjV1TmhRMzYxcTBiaWtJQlhlTm5tTHJkU0RFYTVHUm5EMWp3NndkZUxTbmElMkJGTHZSWEhnUlVzODVlQzJJQWxzT3RxVVN0TFBIaXl4Wlo1R3Q0NlhQbDYycmF2ZE5KMzhyajROdnclMkZISVA0cXolMkY0SiUyRnY4dWVIWDNxZGZOZWVmN1BQSEtad2ZHdmluaCUyRjZaUGo5cmZRTDRlZXY3NmdOOGVQRnZyZW52OVBtMzF2UjMlMkJ2eWJhJTJGckxQajlyZmRwUFhOODN4NzZWNEY5ZjA5JTJGcDg5JTJCVDFUJTJGMiUyQlpmWHBJSExUZElFSU1GUUhtayUyRmlzcHA0bG40N2Q1eUpzOWxlWHEzb2I4SGt2SzJzQVk5VDF2WnNsejh6SFUwVU9oN0l0dHBRJTJCb0RoWEhiRSUyRmJUV05vQ0RiY1Y2UHA5dlBhRGclMkI3OU1TOVNBV0dEUkRkN2hUMW16dkZDenJLQm96dTNEM3F4OXBMVU16cElVR3h4QXByVVJMdWZ4dHZPbVJtVkhlOUNnSkFFWmZxbld4b1dJZnFVNmQyVHRUTEdYUzd0TjJXV3NZQkV0OSUyRm5VRXk1azNoQ2NaN0ZrdXpGa3hoNm4zZWJIazluYUhCcFJTWklNTzl2N0l2bWd4a29uOE0lMkJOS01VVSUyQmR1a1VLNTFHcTlOcFRyRiUyQnF3MFJObUxPTGJGYzVrVkRvUnFDTzFNMXBEaEJhQWNNdWVHRHRqeCUyQjFOYVloYmowdG1MOVU0VmV6VFBhb1Q0NjliV2lTcXNKa0lpREN0WG83TEY0eEp2UEN3VFpyQmxwV1g3QjBpZTRLMlNTT2YwM1hSTXhHN2ZVNWFWZGJmVzR0ZmFQRzJ3SmgyNGM0V1JCQmxJcUt5Q0FUOWVLWElxZUQ1OHAwQmRCaGglMkJidEZUa3VGVW5jS0tybXlubGRTSiUyQmlLUjRXbjNDTiUyQlA2JTJGSEdoTUpUYkRka3FZSUpLQjB4TWdkcGlucDM1aHlwZmpRYjJOZVRteUhvUE5rNGtVZmRHOENUY2pxWGE3Z2Zmcjg4aHRXYXBMYnhKakVmaUZOZ25tMkdUNDlqb25NcmJScTNJQU01ME42JTJCcHdoQTdGS2xUakplSXpjeHhyJTJGQkZadHhZR2w1Q2ZraU5IQnhlc1ZsJTJGNlBFV0lyYzV1Wk1vdVRsMFhPdWVoTlBXQWtac29jb28wcDRhR09TVVZPVzB1a3JaV09qOE1odzJ6TXI2JTJGR3ZyNEtUU2s1T2psckRvcmdNUHBLdFY3UU5tUXc2QzNCcFNTWlFMa25KcHFjU1UxTWIlMkZ4VlR0RDJ5Mk11YXFjTlJveUQ5MFFwUEswaXVlTkFwNGdoU1poZjh4eEJqbElndkVZJTJCN0k2SGtsd0VQT2JNekZVWTN6TXY2Q0ZHVHZ2eFk5JTJGNmFvVnhnQVY0eTRpWmpJT1NPbFhCQmhJbXFwV1ZqYkhoMFBLSnRWTFdQOXBtWVpNTGt5dmtmYVdXelRodGdub04zalhkYzhxcWswUnR2bm1VckhwMkxNRkRXZ2IyY1l5RW41ZkhWc1lWU3pFUGhnY0xVRzNhWW5LbnVuYnJIQ3NKaEp5dnhzTFQ1MzElMkJIMG1jMHJ5VnBFRE1WVDJwaWpTS1Z1YU90NCUyQlBURkE0TWI2R2daMWNRejRCV256eFR5bDUxWHpDeElHd0paY28lMkZWcFZXdE5NbjZwUzZxVXFIV3lLSTlSbmJqVGFZWVp4VGFHUGNDbHdEMmw2bkd6NTRlOHBOZ0g3Y3NNd3BPTmpJSE5yOE0xN2hKNnNra1FoZGZ4Q3g3ZUNHNGlnQkxjN0VjRGd3RlFET1klMkJRck02dGFhWlBXbWVTSk1Nd1R0VkY2azFMaVFCNjhSQlQzQVlGU3U0NmRSNiUyRnFoN3FPYlJQa3g1c1owMWM4b2Z0UmprNlRXTnhBNDQwV21uRTZvZVB3ZzRPNWJiVHlCNXJaYnNvUnRCTWRJVTRIQnd0b2hCRHBUemdEZ0slMkJnZVRBSFVjSm1zUGkxd2U4djd3VENzbHRjU200S24lMkZyZE1QaGkwd2c3WWJrZm1SNERSNUtZdWViN0F5aHViTkV2bG16SFhBM1prT3JqNjBrWXJQanFXOWdtTiUyQkVoRjROZU40Z1hQM1F5TjdmUjNzak9jR1RYa2dTblNhbnNERjNiSnR0STNaTlZ5aUwwZEg2Q3pGOXlBQ1hwNGR5bFd5UU9raTVjaFFseWJaUHR4OTZxeUFoRWpNSHNydTQlMkZFRUlJN09neW9PTDBpMVFzdVl2eWI0Rk9jRUpDWGlsT1RlTmxZMU9LYThSVnFjVXlrS2FLUDQ2aXo5a2dIcHNYJTJCd1JhWlRaTjN6VHVwbXR5WjVZTHB5biUyQkV1aWhlV1lLSlF3ZTE2dk1iVWY2WTV6RVMlMkZmUHNoNzRKQU55UzdXZUZlM2xCOFJWNkVRbWdTJTJGU3FRSTElMkYxY0RIOGZDTVIybGxhUTFyR1NtNlZrJTJCaW5HZnolMkZXOEhmN3BHSWlwdVpYbDFCVyUyQlFGandIdDltNCUyRnpjdjg2d0JGUTRhWndJYUIxTkZJV09EJTJCMDN4WlR0RUhidWZTNFVLSDRRTFYzR2NMOE43JTJGYzVyZXhHQzNLYWlrNXElMkZrb2hjVnZKT2ZGYjJGbEwxOHlUdTJJMnJXN1B4NnZWd2c2UFNYaUc4cDZyNGVCWWRxa2VncjNXZXo2enZhWVVhR25RZm5STDlzcGdScTZqSU5EWmVPWlhland3NGI0RHl3SlNRWFlETGhqMEYwJTJGV1E2NWJrZ295cjZnMFpFenQlMkIxTmhoJTJGUkVRbVlQdU9jdnNhcFB1T2N2c2FwUHVNWU9YRGdPQWV2UnZUOUZUa2U0TkRjUHdVRnlnVzglMkJBJTJCaSUyRjFjUiUyRlU5WjMlMkZmTkNYNyUyQkQ2TCUyRmx4SDlUMW5mTjhjS3FFJTJGJTJGWHhIOTMlMkZSQjU5MGlDU0VyV0ozeiUyRlJFenQxMzRJdmZxM1MzM1FvdWhwcUVjekU5SlBoSDglMkY3cmtFJTJGbWY1Tk0lMkZTRDZSJTJGdSUyQlNUJTJCdjdqTCUyRlVSTm9aOXRxJTJCZk5mc0clMkZsMWMlMkZQcjU3ampLV3V5ZURtZFZxZWVmS3dGOUkybE5WcVFiJTJCSmtQNWthUTNuZVNBN2p5MllJMVRSTEtWZGZlOVc0bzhJcTBFamtXb0ZRZ3Y4dlYxWHVWaUU4STRpQ1hndEk4R3ZqdiUyQm5Nb0hueUV4TnNmQ0pabzVsRmJNWGYxcHclMkJEbkpKJTJCTTdxTVIlMkJJWWpEejlYOFNJZiUyQiUyRkV5RkMlMkJOODJUMyUyRnM4M01TS3I4eTdtZkp4MDlibiUyRk0zdEF1aGRWcUlRbTFwQlByUG5UWG5ESGxMVUpWQjNIS0J0aklKSlpPJTJGSCUyRjYlMkZEMSUyRkFYNHZXJTJGJTJGNGtWbEdjSDlPV0M4YTV0MGFLJTJGc3BYOEpteVYwWmEzYll5RlB4SVNEY3hyRkVtNndIQjBPUUFxWVl4JTJCQmhQWE42QWV3TWNyWGk5aWIzdEJ0emdJellHR1h3cUZFQXBvSE10ZElaMU5qdmhFUXBoQVZTZGRpN3ZmQ2U3Q2E5OEFuQ2JPRzBBR3NHY1JXJTJGS1lCdiUyQklnZ3d3VlpLMEduZkFpZ2FzVnpmU2t2YkpjZVdEYVVEWEE1Z2NVRFhhWmU1VWdxQkFwMnhvZWtBdW1NREZDNndVVm12eHQlMkJER0NnUkpBV0F0M0klMkZSakV0MlhEQXNTQUN2djk1TCUyQldkbldEUGlkMmRYTnd1eHlZZWhmYmFUb3RlWldReWZNVVI2eHFqZDNZRThneWZnZXVsaExlb0tvUTlsJTJGa2Q5emU1S1NBTGdGRzF4YjJLWTJCOXIxMUVwUnlqVXB3Sms1OUpkd1hiR2Zhc0MzQjZsa0cwcVNHUFB5OGNtQXpFVVAyVm9KVFRxazR1WTZaeE1BUGRCanJjSTlwV25yN0U5ZkVUaUk5T2ZtaEEwQjc3T0hiM2l0elZRV1VkRVZLOU9jQnlIWFpIVWRoMEw5U1F4RVo4bm1meFVjaVA3Z1MwTSUyQlF1U2NyZnU2QUI5VUpyYVp6NUdoZklteVVnYmtERGYxMmlFR2tKZW1ra0ZpdWdINXFXNURCa2t2SE5aVmc1WkFpYjEyZTBUekZvdmlWRDBxaXJ0ZWN2bjJIM2s0cjJ4Z0dpYzlPeDhLMWtFb2hOQU00aVNqJTJCVjJXdEJDa25kNDY4OVJQMzJZNjdzJTJCNUhvJTJCMkdBRWZVVjBQdWIxOHJoc1prc2FOR2NDJTJGdjdqcVJLTVFvMjVXWmh4MSUyRlhmVHRDYWFVWUFtNEVsTVhDQVFXcWE1T1ZiRHhqN2ZaZDFOeCUyQjdUaGM0enU3U240Ymg4SVBDdDViV3JFaGcwJTJGa2xaU2M0TWRjcHpueVdhMHR4OSUyRk54TVpFUnNhJTJGZm5iZVpSdG92JTJGRlVvejM5bUFXNmtFRW5ZRWlQVVBSSWJNTFh2cXRTQVdJRFFMZ2hTYkFQVk1NayUyQjJ5JTJCVkd6QVJGb0VoSjNheEIxR2xyWUlrTlJ1R3VJb1NuMVMzSmYyJTJGSk5qUVBLa2FpJTJGa0VuYXdnSUEwckFDRzNRRHZkNU5JQUJBaENuWlZGZTcxWnhKTmVCUkFBb1dUR3lqcDgwJTJCUE1Za0NFcHl2WHBRQnBFZHgwcjZJbXlHNHFyWkNSam9pQ2dMVWR3RXRVQUglMkJaSlolMkJiS2dic2pTZkFWSEN3JTJGb1hiTmV2ZHBjUjVGeW9ITFhtWHJXRmNrU3FJVEMyUzFQbjdYUzhwZUxuV2VXZkZWVCUyQjk3Mk9WSERsOFFETHcwZTFCVXVqb1pLYW9PVldXMGdwNGElMkJHJTJGd05OcXROQWJqSExHOXBHTmVoTXZvQWdkTyUyQlI1Q3olMkJHeE04YVh0VHNQZjVCVFVRZkNRS2pYOGtjaUY4dEt5bDV4bTRxREhhcGhQUTJ5UXFGc0NwcnhqYVZlMlJtcld4cXI3NmRueURFUFRFSVNBUjRpdU9RJTJCRE44NExHbTBpJTJGT1ZOOGhXcGFOMlV5MkJ1NHZyNXo1SHliVTluakFzUnd6QTAlMkJjOTl4U0pCNGVoSXVQajhaaG1ESVFMSXdZckJWcnNKdGdibGhtY1psYiUyQkpsUDlGSmttNlQ3JTJCUlZVNmolMkJBTlNuZ3VXT0hHZEVoYWRldFF2a0ptSE50aUpjUTlvaTZDaVNUTThQY2x3NCUyRkNRWUFxY2lDJTJGU2dtRm9LMFd1bHJYQyUyRmRLZ0VoT0R0WURiT3h6WkQ2NjZIQjg3ZHpMVTBLWnUxYiUyRjZHb2ZRJTJCang5MnRsTmZqbU5zbndTTUN2MDhKJTJCdzFwJTJGcE5Kb1ZRa3BGUHROWUgyUmlOVmtnTlF6eHRsYzhaSHhWRktKME5lQkFMb2Y3SnFLTFhZJTJCWDRhSXRQb1lsJTJGbklINEh1U000MWUlMkZmTDNuU2cwSGdYUHU5dWw5R0o5M3VWVmlicGZ1NlBRYjJUUnc3Z2E2VEk2d1VGR1hvSmtqREJhMnI1RWxWRTNmNyUyQjh2ZHVkb25iSklrR2Q1T2t3cTFWY1VQNm5CdkExNUNlVHJldHkzN0xabEMzNVNKU3VUYzh6dXh6WE10d29kY0VqdHFxelFIQjY1SVdXUEhTJTJGMExRR0VyJTJGYmJwbkRaT1VlQ09lcVAyelBuYll0N2NCZ0x6TmJMTnRVN1dNcWlvb2tpOTN3MER6bFVQJTJCJTJCMTVBZklLblN4OHlkMURkWnFYSE55WkFOVWRtbEhvcHBIT3NheVZBYzY4WkZKbzk5dEpnTkZEZmtZaVZKdU1kNzFXQXhVd3VKUEo3VW9qNzNna1VlaiUyQkhUbG1NbG5aanBmU3BKWWtNY3RqTWVKVnRBcVdrJTJCZkVLVndPMWYwUGxLZkN5dGI0Y29rQlUwNXZ0WjlnRUtudDgwOTVOaVhTMk0lMkJqOTdzeVJ0JTJCT3VjNEZTRnpqNWQ1bWZ0NTVzckhSdHVUR2dvZTh5bjg0WjB3OUxlWU0zaEhTT1UwSGpjc0tiVDVzZVJTZVpCdlNsU2x6MWlZRG5UREJnJTJGSjN1N1BObmFnaXpGcjlDNHFOTFZENnJOZ1lVakolMkIwQWlmcDJjVGF4NTNneHBZcE5xUTZUTjFYREElMkJiWk1ySlJKaGZHMnpHZWpGaGRBMTltZW42bk1WMjZJbWp4Y2dWcnlJWGUlMkZUNGxRRG9lNTdEZm92MlI2dlRQN25kakExSmtlUWNFNUElMkJzS1dOMHhONkJIakpza0lBSHhnT2hCaHdrQlBZWG5VM0xKMmRQRkVhbXpuZm5zazJYQnlTU1hDY01FSUFhVVhramclMkZmNWs5Z2RVMVNoNElEakhiYmdRdUpTSUFIZGJvbEl3Qjhqb0haeDR6JTJGTlg0UmtZZnlKUTVTYnFEMzhHJTJGV2F2dW9taDJrMmxtNWpKb3ZxNGhVQ1U3SyUyQjNLYWJEWEQwcEJuaXY4JTJGbUZZeSUyQjRFak5hJTJCaFo3QTZzOE1BTDNzelM5QWwxVWd2SkkyODIyQ0RBVVQ0N0JsTnd2UnhlQVVTY2xLQlo2bXZRJTJCa1BEM01CSE54ajVFWUV2JTJCOE9EUWQydkl4NzdjaDBLbEdMTEpuTnQxdTBCZ2lXQm53QzZ2N0RLWmpjMnRaejN4a0tJYUFUQU83eG5uaVRRWEYlMkZUdENETXFBMEdIaHQ3ckN0MnIlMkJvRFlwdUVJSmhBMjdUQXVEN08xbCUyRmhtYUpDJTJGQ1I0a2d2MjZKd1dFdUhQSVlINWdBJTJGUjlFaWdwYjJhbGFzYWpGWlI1b1FLaUd0TkhOJTJCazE4SUNkeDdvdjhNajMwUXlwSm1LYzJCUnViSjdnb0JMTWVYNmg5OWhkcTgyR0ZobWFlQkhlbjNmNjdWbG8zcVFTWGtBSEJQJTJGYXB2dHR3TWxsRFpLeEx3U3lxQjc4TWkwNmExYlBlNndWSUp6WDRhVWlhbkJVd1kxclNXSllsSG5Qb3RGJTJCZmtvUnglMkZ3czI2QmVDTzBjTVBvZEpab2laZFpIZ2RqbktZOWlaU3Jhb050SjNFTG5Rd2N5UWVqMDFKR0IxbnJnODJVNW85dUJtY3NRRkRhbmlEbnNXTmdZOUZZRG5yJTJGWkZQbUxKcnN3YkNOdklsRklvY2FQRHdncWR6eGszakV4OG5qc285V1M3RWlzbTgwbjQ0M2o2YzlyY2xoUFpqeGRzWjh5YTJRSUI2ZkNrOGN0U20lMkZMQmoxaFhDQ3c5YlB5QXI4TG1QJTJCUk4lMkY5UFljJTJGdiUyQiUyRncxN1lMRSUyQlp3Z0ZJSzA4N1clMkZZOUdpZndZU3pxNUhuOGI2WEJURkolMkJmNms5S3UlMkZ5JTJCenJnZ3UlMkZQb2xocDk3diUyRnNxU1BMMGZ3QSUzRCUzQyUyRmRpYWdyYW0lM0UlM0MlMkZteGZpbGUlM0XY87u2AAAgAElEQVR4Xu3de3xcVb028Oe3Z5K0aSm2AnKv5eI5VEX0eMMr6BE9nFf0vEiE0iYzSdsgl6JVmkmtdpDSTFK5lVvTNpkkLYipvIocOYKK4A1RRAQpKghtuZSbrZQ2bZKZ/Xs/K0w4aWiTvffsneyZeeYfPh+61tprf9ea7Cc7a+8lCNmnpaXlWFU9WlUPE5Fptm0fYFlWeci6ye5QgAIUoAAFKEABCgQsYNt2n2VZr6rqNhHZKiJbFi1a9PeAD+u4eXFcMoCCzc3NJ9i2/VER+QCA9wB4O4CyAA7FJilAAQpQgAIUoAAFikOgH8CjAB5U1fsty/plQ0PDY+NxamMepJubm0+1bfvzInI6gOP2cdJbAGwC8ByAfwAwv4X0Wpal4wHEY1KAAhSgAAUoQAEKjL2AbdsiIhUADgDwZgCHA3grgKP30ZsnVPUOy7J+0NDQ8POx6u2YBOlly5YdVVZWVquqs4eF5+cB3APgN7ZtP1BWVvbwJZdcsmusTp7HoQAFKEABClCAAhQoLIEVK1ZM6u/vP9GyrPcC+BCAUwAcOuQsnhCR9f39/e1Llix5OsizCzRIp1KpdwFYAKB2yEk8DuBW27Z/uHjx4vuCPDm2TQEKUIACFKAABShQ/ALLly8/2bKsMwCcCeD4IWfcDmBlIpH4UxAKgQRp88CgbduLhwXoW1Q13djYeFcQJ8I2KUABClCAAhSgAAUo0NTUdJqIxAGcPTRQW5a13O8HFX0P0s3NzUtVNTmk49dblnXNokWLzJ1ofihAAQpQgAIUoAAFKBC4QEtLy/G2bV8M4ILBg4lIsqGh4VK/Du5bkDYPEarqlQBOMp0TkU4RuZwB2q+hYjsUoAAFKEABClCAAm4FTKBW1a+rak2u7kMistCPhxJ9CdJD70KLyIO2bTdyCYfbYWZ5ClCAAhSgAAUoQIGgBMySD8uymlTVvHLZ3PTN++50XkG6qalpqoikAXwud9KpRCLRGBQA26UABShAAQpQgAIUoEA+AqlUqglAItfGbaoab2xs3O6lTc9BOvdGjpsBzARgXmM3P5FI3O6lE6xDAQpQgAIUoAAFKECBsRJIpVKfBbA699q8jQBmeXmzh6cgnVsPfSuAqQB+kclkqpcsWbJ5rE6ex6EABShAAQpQgAIUoEA+AsuWLZsejUa7AHwMwHYROdPtumnXQbqpqekzIvLD3FbetyQSiXPyOQnWpQAFKEABClCAAhSgwHgJpFKp7+Reldevqmc0Njb+2GlfXAXp3J3oO3Mhek0ikZjv9EAsRwEKUIACFKAABShAgTAKpFIps8xjHoB+Efm00zvTjoN0bk202bvcLOdgiA7jLGCfKEABClCAAhSgAAU8CQwJ0+bBw1OdrJl2FKRzb+f4Ve7BQi7n8DQ8rEQBClCAAhSgAAUoEGaBIcs8NqrqR0Z7m4ejIJ1KpX6Qe8XdLxKJxMfDDMC+UYACFKAABShAAQpQwKtAKpW6N/cA4m2JROLzI7UzapAestnK85lM5oN8O4fXYWE9ClCAAhSgAAUoQIGwC+Te5vFb82q80TZtGTFI5x4uvDt3wmfwPdFhH3r2jwIUoAAFKEABClAgX4Hce6bNW+rMDoif2N/DhyMG6VQq9UcAJwHgjoX5jgjrU4ACFKAABShAAQoUjMCQHRAfSiQS795Xx/cbpAeXdIjIgw0NDf9WMGfNjlKAAhSgAAUoQAEKUMAHgebm5j+o6nv2t8Rjn0G6paXlWNu2nzDHV9VPNzY23uVDX9gEBShAAQpQgAIUoAAFCkagqanpNBExe6jAsqzjFi1a9Pehnd9nkE6lUm0AakWks6GhIVYwZ8uOUoACFKAABShAAQpQwEeB5ubmDlWtAdCeSCTqRgzSuY1XHsol77ctWrTocR/7wqYoQAEKUIACFKAABShQMAItLS3H27b9t1yHTxq6Ucsb7kgP3o0GcH0ikbiwYM6SHaUABShAAQpQgAIUoEAAAqlU6joAFwy/K71XkF62bNlR0Wh0C+9GBzACbJICFKAABShAAQpQoCAFht6VzmQyRy9ZsuRpcyJ7Bekhm69wG/CCHGZ2mgIUoAAFKEABClAgCIHB7cOHvsFjryCdSqXMeujj+KaOIPjZJgUoQAEKUKB0BNra2g6PRCInA/hXs0McgIiIvCAij2ez2d/E4/FNY6nR3t5+FIAPRSKRt9m2bfpj3sLwvKr+1bbt+2prawfuMI7VJ51OvzUSiXxIVY9X1bcAyAJ43rKsx/r7+39bV1f33Fj1hcdxJjDkDR5PJBKJ4/e6Iz1kF8PHE4nE25w1yVIUoAAFKEABClDgfwW6u7sn9/T0/F8AXwJwDICJAMpyJfoB9AJ4RlU7ysvLu84999ztQfq1trYeOGHChLMBzFXV6QAmDOvPHgCbAayJRqO3zJ49e0eQ/Vm7du20SCRSLSLmLRBHAqgY1p/dAJ5U1Rt6enq+f8EFF+wMsj9s251AKpUyDx0eP7jb4et3pJuamq4RkQXcxdAdKEtTgAIUoAAFKPCawPXXXz950qRJ9QCSACYNX0I66CQiqqomMN5QXl7ePGvWrJeDMEyn028C8GUR+RqAyv31x2ybAaAHQIuqrozH4/8Moj/t7e0HW5bVAOB8EZmgqvvbGM/0Z6dZQrBz587VDNNBjIa3Ngd3OzTzpLGx8eLXB3BwWYdt2x9avHjxfd6aZy0KUIACFKAABUpRoLu7O9LT0/MZAN/NhWgnDCZMf/mQQw7pPP30082dat8+ra2tZeXl5WeJyJpciB61bVU1Ybqur6/v1vr6enP33LdPOp02d8JjInJl7i69k7ZNmK6aOHHiXVVVVWbpBz/jLLB8+fKTLcv6DYCB5R0DQbq5ufkEVd1o1uYkEonDxrmPPDwFKEABClCAAgUmkLv7e6v5k7fLrt8XiUTic+bM+avLeiMWX79+/ZGZTOZmAB91066q3mtZ1rk1NTXPuqk3Wtl0Om3WineIyAdGKzvs33+iqlVB3SV32RcWN0s3UqmtZt2/iMwcCNJNTU3zRaQVAN/WwSlCAQpQgAIUoIBrgba2tndFIpHfD1nv67SNjIj818SJE//Hr7uuZslEZ2enCdA/AxB12pFcuX7zy0B1dfWvzRIUl3X3WTx3t/4/ReRWVXXdH1X9t3g8/ogffWEb+QsMvr1DVesHgvSQTVgWJBKJa/M/BFugAAUoQAEKUKCUBDo6Os4BYO4Ae/ksVNUb4/G4efAv708uuJqtnM1NQtcfEZk3ceLEtF/B3izrsCzrfFW9wnVnzMJukbNramrMkhl+QiCQSqUuArDSbM4yGKT/COAkro8OweiwCxSgAAUoQIECFEin0+eJyI0eu760t7f32/X19WaNct4fE6R37tz5FcuyVnhpTFW/OmnSpGv8CtKtra2VEyZMuERVzUOYXj71sVhstZeKrOO/wJB10g8NBuk+86eYSCQy+ZJLLtnl/yHZIgUoQAEKUIACxSzQ3t7+JcuybvByjiZg9vX1rfArSCeTyej06dO/IiItXvoD4GuVlZVX+xmky8vLF4nIUi/9yWazX6qrq1vlpS7r+C+wYsWKSdls1ryWsF9aWlqOtW37CQBbEomEeb8iPxSgAAUoQAEKUMCVAIP0/rnMHWkGaVfTKfSFU6mUeff40TJkI5ZfJBKJj4e+5+wgBShAAQpQgAKhE2CQZpAO3aQMsEOpVOpeAB+TVCo1C8BNfGNHgNpsmgIUoAAFKFDkAgzSDNJFPsX3Or3BN3eYO9IXqqp5U8f1iUTiwlJC4LlSgAIUoAAFKOCPAIM0g7Q/M6kwWkmlUtcBuECampoaRWQ5twYvjIFjLylAAQpQgAJhFGCQZpAO47wMqk+DW4WbO9JLzdOyqnppY2Oj19eyBNVPtksBClCAAhSgQAEIMEgzSBfANPWti01NTUnzFpbXg7SIJBsaGi717QhsiAIUoAAFKECBkhFgkGaQLpnJDmDwRjSDdCmNOs+VAhSgAAUoEJAAgzSDdEBTK5TNMkiHcljYKQpQgAIUoEBhCjBIM0gX5sz11msGaW9urEUBClCAAhSgwD4EGKQZpEvpi8EgXUqjzXOlAAUoQAEKBCzAIM0gHfAUC1XzDNKhGg52hgIUoAAFKFDYAgzSDNKFPYPd9Z5B2p0XS1OAAhSgAAUoMIIAgzSDdCl9QRikS2m0ea4UoAAFKECBgAUYpBmkA55ioWqeQTpUw8HOUIACFKAABQpbgEGaQbqwZ7C73jNIu/NiaQpQgAIUoAAFRhBgkGaQLqUvCIN0KY02z5UCFKAABSgQsACDNIN0wFMsVM0zSIdqONgZClCAAhSgQGELMEgzSBf2DHbXewZpd14sTQEKUIACFKDACAJr1qx5SyQSeasXpEgk8sxTTz21NZlM2l7q76OOtLa2HlpWVna0l/ZEZHM8Hn8BgHqpP7xOMpm0ZsyYcVg2mz3SS3vZbHbTvHnzTH/4CYkAg3RIBoLdoAAFKEABClCAAhQoLAEG6cIaL/aWAhSgAAUoQAEKUCAkAgzSIRkIdoMCFKAABShAAQpQoLAEGKQLa7zYWwpQgAIUoAAFKECBkAgwSIdkINgNClCAAhSgAAUoQIHCEmCQLqzxYm8pQAEKUIACFKAABUIiwCAdkoFgNyhAAQpQgAIUoAAFCkuAQbqwxou9pQAFKEABCoypgKrKunXrDs5ms9Mjkci0bDY7EcCEMe0ED+ZUYE8kEtmdzWa3RSKRzXPmzHlJRHx5B7bTDpRaOQbpUhtxni8FKEABClBgFIG2trYDIpHI+1X1UyLyXgCHAKgEUAYgAsAiYigFzEY2WQD9AHoAvCgiDwD4aSaTub+uru7VUPa6gDvFIF3Ag8euU4ACFKAABfwUuPnmmw/q7++vU9WzARwDoCIXnhmc/YQeu7ZMsDahuhfAk6r63YqKirWzZs16eey6UNxHYpAu7vHl2VGAAhSgAAVGFDBLN6666qoJ06ZNuwDAJbm7z1QrXoEXAazYtm3b9V/5ylf2cOlHfgPNIJ2fH2tTgAIUoAAFClagu7t78s6dOz9sWdblAP6tYE+EHfci8Afbtr8+efLkX1dVVe300gDrAAzSnAUUoAAFKECBEhMwd6FvuummI/r7+6tF5MsADi4xAp7uawIvqerVZWVlXeeee+6zvDvtflowSLs3Yw0KUIACFKBAwQokk0lr+vTpbxORrwD4IoADC/Zk2HE/BF4B8F1VvWrz5s1/SyaTZl01Pw4FGKQdQrEYBShAAQpQoNAFzJ3ojo6OfxGRRgD/BeCAQj8n9t8XAfM2j++ralMsFvsr70w7N2WQdm7FkhSgAAUoQIGCFlizZs2R0Wh0iYjMYogu6KEMovMmTH8nGo1eNnv27GeCOEAxtskgXYyjynOiAAUoQAEKDBMwDxbu2rVrAYBFIsLlHJwh+xIwyzxWVFZWXsMHEJ1NEAZpZ04sRQEKUIACFChYgdySjk+LSBcfLCzYYRyrjpsHEKtjsdidXOIxOjmD9OhGLEEBClCAAhQoaIHW1tbKioqK+wCcWNAnws6PlcDDvb29J9fX15vdEfkZQYBBmtODAhSgAAUoUOQCHR0diwA0F/lp8vR8FFDVRDwe55wZxZRB2sdJx6YoQAEKUIACYRMw23739fU9yh0LwzYyoe/Pi+Xl5W/nduIjjxODdOjnMTtIAQpQgAIU8C7Q0dFhXnW33HsLrFnCAotjsVhTCZ//qKfOID0qEQtQgAIUoAAFClNg/fr1UzKZzK8AvNOvM1DVXhHZAmAzgJcB7AbATTz8AnbXjgVgIoCDAExX1aNFpMJdEyOWfiQajX5k9uzZO3xss6iaYpAuquHkyVCAAhSgAAX+VyCdTn9KRL4HYIoPLlkAvxaRu23b/lM0Gn1s+/btW7dt27aTu+H5oOuhCbNL5bRp0yZPnTr1MNu2/xXASar6CQAfBhDx0OTwKjtU9QvxePwnPrRVlE0wSBflsPKkKEABClCAAkBnZ2eTqpqtwPO6SykiL6vqDQB+uGPHjj8vWLCgl77hE1i5cmXFlClT3gHgDBE5X1XNnep8PuavD1fV1NSY5UH87EOAQZrTggIUoAAFKFCEAuZu5fTp038iIqcAMEsAPH3MMg5V/UZlZeVtVVVVZsMOfkIu0N3dfWBPT8/nROQys9wjj+7aqnrPHXfccdqGDRvMXyT4GSbAIM0pQQEKUIACFChCgba2tsOj0eidqmruUHr9vATga729vd/jO4W9Eo5Pvdy7w78A4Nt5bsLzaDabPa2uru658TmTcB+VQTrc48PeUYACFKAABTwJdHZ2vt+27e+IyDGeGgDM3cjLJ02adAXvRHsUHOdquTvTCwF83euaaVV90rKsc2pqan43zqcTysMzSIdyWNgpClCAAhSgQH4C6XT6dBFZBeAoLy2JyL2WZS2cM2fOg17qs044BNrb298jIleKyMc99uhpAF+KxWI/8li/qKsxSBf18PLkKEABClCgVAXa29u/YFnWNQAO92CwW1WbXn311RY+WOhBL0RVzAOIBxxwwCIRMQ8Mmlfluf08Z9v2xbW1tebtL/wME2CQ5pSgAAUoQAEKFKFAOp0+29yJBHCYh9N7DMAlvAvpQS6EVbq6uk63bduslT7BQ/e2qurCeDx+i4e6RV+FQbroh5gnSAEKUIACpSiQT5BW1Z/09/dfOH/+/L+Vol2xnfPq1avfVlZWdp2IfMrDuTFIj4DGIO1hRrEKBShAAQpQIOwC+QRpALdEo9F67mgX9lF21r/cDpetAM52VmOvUgzSDNIepg2rUIACFKAABQpYIM8gnd60adNc7lhYwBNgSNfNO8Xf+ta3rgUQ93BGDNIM0h6mDatQgAIUoAAFClggzyDdFovF5hbw6bPrwwQ6OjpMkK7zAMMgzSDtYdqwCgUoQAEKUKCABRikC3jwAug6g3QAqAC4RjoYV7ZKAQpQgAIUGFcBBulx5Q/dwRmkgxkSBulgXH1rVetxui1w/RJ1y8LDyOC/ZTVeGakzeh7ebws+C0W5m05bFp7Ltf/3Edufj2MRxf+xbZfvMRX0WYrbZRVG3ElJ5+PAXPsnuum/KWsp7pVW3OG2HstTgAIUcCKQTqcnAHiTqs4Ukbfatu3q5+xIx4hGo0+IyH3V1dW79lduPIO0KgTn400ZG++xLHwAigOdmLHMMAHBK7aN+6MWHsQN+KcI1KtRkEG6q6trUjab/ZCqHue1f8PrWZbVJyKbM5nMRsuytsXj8T1+te1nOwzSfmoG0Fb2PDRDsMht0wJskCgWyrV4ZqS6mfMwzxJcqcBkN8cQ4I+iWCircM8oQf0Ufa39d7tsf6etWBhdhTUjtn8RjtTMQPtnuWl/oKyiJbIKDa7rsQIFKECBkQVk7dq1R0ej0TkA5nvdWXDEn32q37Us66s1NTXPhi1IaxIWnsdMW2A2ADkTQAUnTF4CvQButRRNOBQbJQnbS2tBBunOzs4jbNu+QkS+6KVvo9Qxc3y1qnbFYrHNIuL5l4kA+salHUGg+tkmgzSDtJ/ziW1RgALBC6xZs+bE8vLyK1T134M6moY4SO+Yj4MmR9CuwGeDOv9SbFeB23uyqJ2yGi97Of8CDtIDpysidwP4Sk1NzcNezj+oOrwjHZSsT+0ySDNI+zSV2AwFKDAGAl1dXYfYtm3e13uGWUEW1CHDHKT75+M0KzKwbC4S1PmXaLsZK4v/lNW4y8v5F3qQBmCLyO0iMr+6uvpFLwZB1GGQDkLVxzYZpBmkfZxObIoCFAhYoLOzc66qNgOYFuShwhyks1/CYgCXB3n+Jdz2NyI3YpmX8y+CIG1Oe5uqJuLx+IjLPr34eK3DIO1VbozqMUgzSI/RVONhKECBPAW6u7vLe3p6bhaRz6lqNM/mRqwe8iCdAvj8SSDjn8ezPcUQpEUko6q3VVZWzqqqquoLxNhlowzSLsHGujiDNIP0WM85Ho8CFPAmsG7dusOy2eytAE721oLzWqEO0h4fknd+9iVcssSDdG7k74tEImfOmTNnaxhmAoN0GEZhhD4wSDNIh3yKsnsUoEBOIJ1OvxNAl4icFDQKg3TQwiFtn0EaqvoQgOp4PP5IGEaJQToMo8Ag/QYBAfj6u5DPTXaPAhTYW6Ctre1dkUikAwCDtIfXtnI+ORBgkDZID2Wz2VhdXd2fHIgFXoRBOnDi/A7AO9K8I53fDGJtClBgrATWr19/ZCaT2QDgg0Efk3ekgxYOafsM0mZgfhuNRs+aPXv2iPtkjNUIMkiPlbTH4zBIM0h7nDqsRgEKjLHAypUrK6ZMmfI9AKcH+eo7c1oM0mM8uGE5HIO02Yzmjh07dnxhwYIFZqOacf8wSI/7EIzcAQZpBumQT1F2jwIUGCLQ0dHxFQDfNFuDBwnDIB2kbojbZpD+p6peGo/Hrw7LKDFIh2Uk9tMPBmkG6ZBPUXaPAhQYItDZ2Xm0bdtpETnVbMYWFA6DdFCyIW+3tIO0qurdqhqvra19OiwjxSAdlpFgkN5LgA8bhnxisnsUoMB+BTo7O0+1bbtZRN4XFBODdFCyIW+3hIO0iNxv27bZjOWeMI0Sg3SYRmMffeEdad6RDvkUZfcoQIFhAslk0jr66KPfF4lEqlX1TABv8RuJQdpv0QJprzSD9PMAvici65566qkHksmkWScdmg+DdGiGYt8dYZBmkA75FGX3KECB/Qi0t7cfHI1Gj7FteyaAw1W1zC8sVf2zqt5ZV1f36v7aTKfTZ4vIlQAO83DctlgsNtdDPXi9bnk5VsnVCWmQbmtrOyASiZymqu/wcUz6Lct6FsBjZWVlT86aNetlH9v2rSkGad8og2nI6w8kATZIFAvlWoz4epjMeZhnCa5UYLKbMxDgj6JYKKsw4p9Y9Dycoq+1/26X7fM90m7AWJYCFAilgKrKpZdeWjZz5szI9u3bfVsz3dvbm73ooov6REQZpEM59MF0KqRB2szzDRs2lG3fvj3q14lPnTpVt2/fnqmvr8+YF9X41a7f7TBI+y3qc3sM0rwj7fOUYnMUoECJCPCOdBEOdEiDdBFKOz4lBmnHVONTkEGaQXp8Zh6PSgEKFLoAg3Shj+A++s8gHbpBZZAO3ZDs3SEGaQbpkE9Rdo8CFAipAIN0SAcmn24xSOejF0hdBulAWP1rlEGaQdq/2cSWKECBUhJgkC7C0WaQDt2gMkiHbkh4R9oI8D3SIZ+Y7B4FKBB6AQbp0A+R+w4ySLs3C7gGg3TAwPk2zzvSvCOd7xxifQpQoDQFGKSLcNwZpEM3qAzSoRsS3pHmHemQT0p2jwIUKAgBBumCGCZ3nWSQduc1BqUZpMcAOZ9D8I4070jnM39YlwIUKF0BBukiHHsG6dANKoN06IaEd6R5Rzrkk5LdowAFCkKAQboghsldJxmk3XmNQWkG6TFAzucQvCPNO9L5zB/WpQAFSleAQboIx55BOnSDyiDtw5DccccdFS+88ILE4/Fev7exZJAenyDd3d1ttkzfXVVVlfVhirAJClBgFAFVCBbgALkWO4jljwCDtD+OoWqFQTpUw2E6wyDtw5Ck0+l3quoxInJ/LBZ7QUR82xOeQXp8gnRXV1ddNpv9w+bNmx9OJpO2D9OETVCAAiMI6NcwCTtxASJok+vxD2LlL8Agnb9h6FpgkA7dkDBI+zAkHR0dHwPwTQC/zWazN9TV1W316840g/T4BOmOjo7/BpC1LOuy6urqB3yYJmyCAhQYKUhfhIPRh79AcDX60CbteI5g+QkwSOfnF8raDNKhGxYGaR+GJBekrwBwnKquikQiV1VXV7/oQ9NgkB7XIP0ZVb3bsqwlNTU1v/NjPNkGBSiwbwE1QbofLwDYCsValKFVrmOYzme+MEjnoxfSugzSoRsYBmkfhmRIkH4vgO0isnbPnj0t9fX1L+fbPIP0uAbp/wSQAXCvqi7ZvHnz77jMI98ZzfoUGDFIvwiFWRr3LIA1UKzBajwvGPh//LgUYJB2CVYIxRmkQzdKDNI+DMmwIA1VfcWyrK7+/v7k3Llzt+VzCAbpcQ/SZvj6AfzCtu2vb9my5fcM0/nMaNalwChB2vyzCdOCrRBcjyxWy2rkfVOiFN0ZpItw1BmkQzeoDNI+DMnwIJ1r8lUA6ysrKxdVVVXt9HoYBulQBOnXw7RlWQmumfY6m1mPAvsXyC3t2HtJnGIbBM3YhetlHXbRz50Ag7Q7r4IozSAdumFikPZhSPYTpE3Lu2zbvqm8vPyS2bNne3qlE4N0aIK0GU/zKrxfqGpDPB7/vQ9Th01QgAI5gX0G6df+bTeAy7EKy7nEw910YZB251UQpRmkQzdMDNI+DMkIQXogTKtqu2VZl9bU1Lh+pRODdKiC9GCYvkdVG2Ox2AN+vurQh6kYSBOqKhs2bLBM4xs3bhQ3B5k5c+bA2tazzjrLDtIqmUxaM2fOFLf9M30zfdy4caMGuWRn0NBr/0w/q6qqzGsYg1orLMlkUsbTcIQgbU6/FzZacDi+JcmB5xYK6jM4P/3stJM5yyDtp3hI2gpxkDbzHMDAtcKPz1j8bPajnwzSPiiOEqTNEcwDiK2ZTOba2trarW4CBYN06IK0GU+zZvpOswb+wAMPfKhYN23p7u4u37Vr1zTLsmbYtn2Cqk4TEVdBWlXVsizz15i/RKPRJ8vLy1+sqqrq8+FrN9DE+vXrp6jqYbZtz1TVo1S1wm3bIpKxbfvpsrKyR3p6ep6fP3/+Djff0ZGOl06nJ1iW9WYROS6bzZ4A4AAP/bNVdXskEnk0m81unjRp0kt+zTlz4Tv++OMP7OvrO1JEzBgfDqDMbR8B7AGwKZvNPtbb2/v8+eefv8ut4ShB2nTJ3Jluwqu4Rm4qjE1bBudnJpMxtkdbluXFdp/DISJ/nThx4j0jLR1kkPYwk8NeJaRB2mxitmvXrlMB/KtfhJZl9anqM5Zlbdy9e/dz9fX1r/jVtp/tMEj7oOkgSJujmEceS3QAACAASURBVIdlWvv7+1fNnTv3WacXGQbpUAZp5MLXj8xfGp566qk/BXk304cp6rqJdDr9JgCfEJG5AMx70ie5bmTvCn0icp+qrunp6bnj/PPP355Pe+YOb2dnpwnPcwDMERETAPP5mDu95r3FN/X3999k2/Zj9fX15hcmrx/p6uo6WFX/Q1XnAXgfgHKvjZl6qmp2Tv2Zqt4YjUZ/Xl1dndeaYROiZ8yY8V5VjQM4E8DB+fTPLH1S1ScAdGWz2e4pU6Y85SbwOwjS5n78PyH4NsqwWq7FS3n2N7DqZn6m0+kTRKTap/n5hr6q6ncty/pqTU2NecPJPj8M0oEN8fg1HNIg3dnZeYRt21eIyBcDwNmqqutFpLOmpmaj0/wUQD/22SSDtA/SDoP0QJi2bbs1m81eO2/ePPO+1FE/DNLhDNK5gTM3XH9o2/bSurq6P406mAVSoLW19cCKiooaEVmoqtN97ra52/vtTCZzdV1dnXkg19NnzZo1HywvL1+hqh/x1MD+K5m75T+zbXvZjBkzfnfqqad6WkbQ2tp6WEVFxfkA5gM4xOc+ml9CvmFZVkc+YXrt2rWfLCsrM4bv9rl/5s7xrbZtN23ZsuUvTn/JdBSkX+voixBcg360ydqB906H7tPe3v4By7JWAPhoUJ1jkA5KNuTtlmaQHhyUX6vq1+Lx+G/DNEoM0j6Mhosgbe5kmouguTO9wsmr8RikQx2kB2aPqt6RWwNf8Ju2JJPJ6IwZMz5l2/aNIuJ3iB78tpk7qRfHYrE2L1+/tra2wy3LahORTwNwtdTE4fHMnehuy7K+UV1d/ZTDOq8X6+7unrh79+5zVfUyAIe6re+w/PMALozFYrc6LL9XsbVr106PRCK3ici7vNR3UKfX3DnfvXv3t5z+9cFFkDaHN7vH3ogo2sK2aUtufq4Rkc/4uV50uDmDtINZWIxFSjtIm+dE7sxms3Pr6upCs/Mpg7QPXzQ3QTp3OHMnri2TyVw2WphmkA5/kM49AHa3ql4aj8d/6cOUGrcmzJIOs57fPNsWZCdU9ZFoNPrpOXPmmEDk6tPR0XEBgGUAzPKToD5m2cDFlZWVt7pd093Z2fk2Vb0OwKeC6lzuDTI/Li8vj82aNcv1O5Y7OjouBfDNAPtnmjZL2M6urq7+tZM/xboM0qb95wZ2QFSsktUDwToUn87OTvOXiGWqOjXIDjFIB6kb4rZLO0gP3IxU1W/EYrHrwzJKDNI+jISHIG0mw07bttOjvc2DQboggrSZRf2qajZtSdbV1f06wLcr+DBj999ER0fHsQAeCDikmg70qOq58Xj8B25OyDwA2dPTswGA2XUy4qauy7JmzfS1IvItN2/bya3dNgHa3Cme7PKYbov/XUTm1dTU/NxNRfMApIiYMX67m3oeypo3tXx9z549VzhZb+46SA9u2gKsho3rw7BpS25+fhfAZwOen+YvYVwj7WFSFnyVEg/SuZsIt1dWVn7R7U2OoMaeQdoHWS9BOndYs160M5vNXlZbW7vPB2cYpAsmSJshNQ+D/dL8tlyo24l3dXV9wrbtn/nwtRitCbN8YmksFmsareDQfzcPtJiQqqofcFPPY9kf2bb9pdra2qed1s8FKfMA5FqndfIoZzYvWex2iUx7e/sxlmXdF8Da7Tecioise+WVV+YtWLDAfDdG/LgO0q+1Zn7h+QcEVyGK6+Ta8X2bR25+blDVk0c733z/nUE6X8ECrc8gbW5Emp9fZ430oO1Yji6DtA/aeQRpc/SdqtoWj8e/vK+uMEgXVJA2Q2g2bfmfSCTytTlz5vzVh+k1pk10dHSYtwx0Bn1Q89YT8waPWCxm/gzu+NPW1vauaDTaqapBre0d2pcHIpHIOXPmzDFvonD06erqmpTNZi8WkcsdVciv0D9FZEVNTc1yN820t7d/SERuF5Fpbup5LGveuf4f8XjcvB5vxI/HID3YZi8UF0grPK27H61vTv+9s7PzRFU135+TnNbxWo5B2qtcgddjkDYD+JCI1NTU1DwchtFkkPZhFPIM0s+ZO5jxeLx9X11hkC64IG0epOvo7e1N1tfXu1676sN0zKsJBum9+Bik85pNA5XHIki/9upCG2fLavwq/y57b4FB+jU7r9ct7/IlVJNBmkG6GKd7HkHaPIzzzZqamn2G6Hx+IAmwQaJYKNfimZHMM+dhniW4Ul2u5xTgj6JYKKtwz0jt63k4RV9r39UrtgTYaSsWRlcVVJDeYVnWTeYXIzfrasP0neDSjr1Gg0s78pycY7C0wzzF/zgUF2Eb7pYNA38RGrcPl3YwSAc++RikubQj8Ek2DgfwGKS3qOrSeDzeMVKXvf5mzyDtYCKM8AOpo6Pjv3MPtDloCAMPj5rQEI1Gv+nlLQqODjIGhczDhqr6BxE5MODD8WHD/IFL+2HD15ZRPQrBN/AW/FiS8G3HTK9Dw4cNGaS9zh3H9RikzfeeDxs6njAFUtBDkH489zaA9aOdIoN0QdyRNhtQmPcaJwv1TvTgPByr198BeDgSiXzGy+vv2tvbL7Qsy7yjObDX36nqSyKSz+vvzKuZ/n2073ce/252EfxxRUWFp9ffdXZ2fsv85SSP4zupGuTr78zF1KyPvBx78CPpGNiiPBQf83pGEbmMr7/DolAMSLF1osSDdG4vjiU1NTU3hGVouUbah5FwGaQfMz/8Kysrb3GyfS6DdOiDdA+AGyorK5uqqqq2+TCdxrUJsyHL9OnTT7Ms64YAdjUcPLddqrpgf88FjAaQ2/CiXUROC2JDFhHpU9Xu/v7+b86bN8/Thiy7du2aDeAyEXnLaOfj8d/NlrkXxuPx/+elfjqdfquI3AbgRC/1HdTZk9vU51vxePyfDsrDxcOGWSgeGQjRlfiRXAXzi2xoPmZ+RiIR89YWs2GQFVTH+LBhULIhb7e0g7RtbiDYtj2PG7KEfJ667Z6LIP2oZVnLJ0yY8P2qqipHP/wZpEMdpM2DhVf39vZeXYgPFu5vnpstwidMmBBT1YUAjnb7fRil/CsAvl1ZWXl1VVXVTq9tp9PpDwK4QkQ+5LWN/dTrE5Gfmg01nnrqqd8nk0lPW4SvW7fusGw2e4GqzheRg33u4zZzN7mvr6+jvr7e/CLn6bN+/fpP9vf3G0O/34CyW0S+JyJNTz755F993iLcrIn+C4Al2IP/CdOd6KGDYOaniHwbwIc9DY6DSgzSDpCKsUhpB+lf2rZ9SW1t7f1hGlrekfZhNBwG6ccsyzK7sd1WXV1tApijD4N0aIP0LhG5sqys7PpZs2a94GgwC6hQbonHJwHMBfAxAJV5dr9XRH5j27a5U3eH07uU+ztmbuOTmeYVSABmq+phefbPvPnBLEVYb9v2zX19fX9xsonICMeUrq6ug23bNhvHzAPwXgBlefbRLF/4aSaTWVVeXn6Pm58j+zpuMpm0jjnmmPfZtl0rIv9XVQ/Ks39mucXj5vVvIrKhsrJyk5O/ug0e09EdaYH5C8EFiOJuuXbgve2h/AzOT1WtERHz14l85+cbzpNBOpRDH3ynSjBIq6rZDnydqnbF4/HHnOyUGvxA/O8RGKR90HYQpB8HcKmq3urkfapDu8QgHcogbR6Uu7qiomLlOeec82LYvtQ+TOmBJsyDUwCm9fT0HCsiJ2SzWbN9uLhpX0TM7nav2Lb9V8uynpw4ceJLfu5GZe6eT5w48XDbtk2oPtK2bdNnV59IJNKfzWa3WJb15z179rwwf/58s1GSCdZ5f8wugmVlZQdls9njbds+AcAkt40aQ1X9h2VZG23b3jJp0iRj6MvbKUyYPvLII99UUVFxVCaTOUFEDlPVqNs+Wpa1W1VNyP3Lrl27Xjj//PPNL5quDB0E6ZehOBOK+2Q1zIY+of/4MT9HOMm/TJo06ecj/WUnnU6fbX7h9xjk22KxmPlF2vXH63XL9YFKsUJIg3R3d/fk3bt3n6Kq/+LXsNi23S8iW6LRqAnPW2fPnr3Dr7b9bIdB2gfNUYL006r69UmTJt3s5eLn9QcS39rhYGC9vbXD/NnaPEiWKvQHCx0IDRQxd9c2bNhgbdy40VWINnVnzpw5EKbOOussE6hdBSun/TPlTCCcOXOmeO3jxo0b1ekSBDf9Gizrh2FVVZVZ1hCUoSSTSRlPw1GCtHkn+2m40WzEEJiBl6F1VCef+TnCAezR5iyDtKPhKaxCIQ3SQ38O+wka9M9mP/rKIO2D4ghB+llVXTLaK+5G6gKDdHjuSJtX3KlqR2Vl5dJieLDQh6nPJijgm8B+grT5xcG8C/8cWYVf+3awEmmIQboIBzrEQboItR2dEoO0I6aRC+0nSI+62YqTQzNIhyZIF/xmK07mG8tQYLwE9hGkbSj+BsGXcSh+Jkl4evBzvM4nDMdlkA7DKPjcBwZpn0Hzb45BOn9D7CNIb1LVS/O5Ez3YLQbpUARp83BoV3l5eUFvtuLDVGcTFAhMYFiQNmvA/wzFUpTjx2F+sDAwEB8aZpD2ATFsTTBIh21EwCDtw5AMC9J/My/jr6mpGXWzFSeHZpAe9yC927KsNar6rVJZE+1kXrIMBfwWGBKkTYj+E4DlYdtsxe9zDro9BumghcehfQbpcUAf+ZAM0j4MyZAgbV4Rtnz69OnfPfXUU335MySD9PgFaVU9VUSuKysrS5177rnbfZgqbIICFNiPQC5IPw/FwxAswz9wh2wI12YrhTZ4DNKFNmIO+ssg7QBpbIswSPvgnQvSdZZl3elmsxUnh2aQHrcg/V3Lsv4WjUavmTVrlnljAD8UoECAAjofB8HCL6BoRC/uDOtmKwES+N40g7TvpOPfIIP0+I/BsB4wSPswJJ2dnUdHIpEDd+3a9fd8dhrbV1cYpMcnSK9bt+6jkUjkb7NmzXoxwFeO+TD72AQFikNAL0IF+nEKynAP10T7M6YM0v44hqoVBulQDYfpDIO0D0PS3d0dCepdhwzS4xOkk8lkdOnSpdkg333sw9RjExQoKgFNIsq3c/g3pAzS/lmGpiUG6dAMxWBHGKRDNyR7d4hBenyCdMinBbtHAQpQYFQBBulRiQqvAIN06MaMQTp0Q8IgbQQE2GkrFkZXMUiHfIqyexSgQEgFGKRDOjD5dItBOh+9QOoySAfC6l+jvCPNIO3fbGJLFKBAKQkwSBfhaDNIh25QGaRDNyS8I8070iGflOweBShQEAIM0gUxTO46ySDtzmsMSjNIO0Tu7Ox8m6p+FMAkh1WGFns0Fov9zEM98I50OO9Id3R0fBLA2z2M6S4R+WVNTc3fPNRlFQpQgAKOBRikHVMVTkEG6dCNFYO0wyEptB9IAmyQKBbKtXhmpFPMnId5luBKBSY7pBgoJsAfRbFQVuGekerpeThFX2v/3S7bD/Ua6Y6OjrUA6tycU67sVlVdGI/Hb/FQl1UoQAEKOBYotOuW4xMr5YIM0qEbfQZph0NSaD+QGKQdDCx/IDlAYhEKUKBQBQrtulWozmPab163xpTbycEYpJ0oASi0H0gM0g4Glj+QHCCxCAUoUKgChXbdKlTnMe03r1tjyu3kYAzSTpQYpN+gxKUdXNrh8KvDYhSgwDgJMEiPE3yQh2WQDlLXU9sM0g7ZCu0HEu9IOxhY/kBygMQiFKBAoQoU2nWrUJ3HtN+8bo0pt5ODMUg7UeIdad6RHibAhw0dfnFYjAIUkNbW1ujUqVOj27dvF784pk6dmjnrrLP6RUT31yaDtF/aIWonpEFaVeXaa68tr6ioiPilNXXqVN24cWN26dKlI85zv47ntR0GaYdyhfYDiXekHQxsSH8gOeg5i1CAAgUgcPPNNx/U399/DIATbNs+AkCZX90WkT9ns9m76urqXmWQ9ku1ANoJ6XWrra3tABH5tIi8wy9FEekH8JxlWRszmcyTtbW1L/nVtp/tMEg71GSQ3huKa6S5RtrhV4fFKFByAslk0poxY8Z7VXUOgC8AONRvBFX9rmVZX62pqXmWQdpv3RC3F9Ig3dnZeYRt21eIyBcD0HtBRG7NZrNdW7Zs+X0ymbQDOIbnJhmkHdIxSDNIDxXg0g6HXxwWo0AJCqTT6VMsy0qp6geCOn0G6aBkQ95uaQbpgUFR1d9bltVQU1Pz8zCNEoO0w9FgkGaQZpB2+GVhMQqUsEB7e/tRIpIWkU+8tndVMB8G6WBcQ99qCQfp17K0/tyyrHhNTc2WsIwVg7TDkWCQZpBmkHb4ZWExCpSwQDqd/rKILAXwpiAZGKSD1A1x26UdpM3A/BPAt2Kx2FVhGSUGaYcjwSDNIM0g7fDLwmIUKFGBlStXVkyZMuV7AE4HYAXJwCAdpG6I22aQNuuj79ixY8cXFixY0BuGkWKQdjgKDNIM0gzSDr8sLEaBEhVYv379kZlMZgOADwZNwCAdtHBI22eQNgPz22g0etbs2bOfCcMoMUg7HAUGaQZpBmmHXxYWo0CJCrS1tb0rEol0ADgpaAIG6aCFQ9o+g7QZmIey2Wysrq7uT2EYJQZph6PAIM0gzSDt8MvCYhQoUYF0Ov1OAF0iwiAtWFSi0yDY02aQNk8cPgSgOh6PPxIstrPWGaSdOYFBmkGaQdrhl4XFKFCiAuvWrTssm83eCuDkoAl4Rzpo4ZC2zyBtBua+SCRy5pw5c7aGYZQYpB2OAoM0gzSDtMMvC4tRoEQFuru7y3t6em4Wkc+pajRIhlAH6S8hBaAhyPMv1bZtRUvZKm+2Qe5/EPCGLK8Pt4hkVPW2ysrKWVVVVX1hmAcM0g5HgUGaQZpB2uGXhcUoUMIC6XR6noiYIDktSIaQB+nFAC4P8vxLuO2vR27Eci/nXwxBGsA2ETGbsqz1YhBEHQZph6oM0gzSDNIOvywsRoESFujq6jpEVVer6meDfAVemIN0/3ycZkXwIwCB3pUvwWmWsbP4z7LVuMvLuRdBkDavvvuhZVn11dXVL3oxCKIOg7RDVQZpBmkGaYdfFhajQIkLdHZ2ngjgKlU1uxsG8glzkN4xHwdVRtAugPllgh+fBBS4vSeL2imr8bKXJgs9SIvIT/v6+r46b968h72cf1B1GKQdyjJIM0gzSDv8srAYBUpcQFWlo6NjuohUA5gP4Ai/ScIcpDUJq+85vD0agVni8V8AKvw+/xJrz2w88v1MFsvLD8ejkoS5M+v6U8BB+mkAqzOZzLq5c+earcHV9ckHWIFB2iHueAVprcfptuDjDrv5ejHLwsPI4L9lNV4Zqa6eh/fbgs9CUe7mGJaF53Lt/33E9ufjWETxf2wbh7tpH4I+S3G7rMLvRmn/wFz75g6Qq4+luFdacYerSrnCQf5A8tIf1qEABcInkE6nJ9i2PS0ajc5U1em2bbv6OTvSGYnIE5FI5DfV1dW79lduvK5bpj8mTONpvAkT8G47O7BBzZTwjVBB9GiHFcFvsQd/xFH4p9cQbc40yOtWV1fXJFU9OZPJHOeXqmVZfaq6SUQ2mq3B4/H4Hr/a9rMdBmmHmuP5A8lhF1lsDAWC/IE0hqfBQ1GAAkUswOtWEQ+uh1PjdcsDmoMqDNIOkEwR/kByCFUixfgDqUQGmqdJgQIW4HWrgAcvgK7zuhUAKgAGaYeu/IHkEKpEivEHUokMNE+TAgUswOtWAQ9eAF3ndSsAVAZp56h5/kBKb9q0aW4ymfT0gIDzXrLkWAh0d3dHenp61gCIezjeVlVdGI/Hb/FQl1UoQAEKOBbgdcsxVdEX5HUruCHmHWmHtvn8QFLVW2zbnl9XV/eqw8OxWIgF2traDohEIqsBnO2hmwzSHtBYhQIUcC/A65Z7s2KtwetWcCPLIO3QNp8fSADuUtUL4/H44w4Px2IhFkin08eLyHUATvPQTQZpD2isQgEKuBfgdcu9WbHW4HUruJFlkHZom+cPpMdU9WvxeNzTq9YcdpHFxkggnU6fLiIrAMz0cEgGaQ9orEIBCrgX4HXLvVmx1uB1K7iRZZB2aNve3v4Fy7KuAVy+D/m19neratOrr77asmDBAvNidX4KVGDlypUVBxxwwCIRaQQw0cNpPGfb9sW1tbXf81CXVShAAQo4FuB1yzFVURfkdSvY4WWQduib+21uFYCjHFbZq5iI3GtZ1sI5c+Y86KU+64RDoL29/T0icqWIuN4kJ3cGZoemL8VisR+F44zYCwpQoFgFeN0q1pF1d168brnzcluaQdqhWGdn5/tt2/6OiBzjsMrwYraqXj5p0qQrqqqqRtxt0GP7rBawQHd394E9PT0LAXwdQMTL4VT1SVWdVVtbe7+X+qxDAQpQwKkAr1tOpYq3HK9bwY8tg7RD47a2tsMjkchdAN7usMq+ir0E4Gu9vb3fq6+v78mjHVYdY4HW1tbKioqKLwD4NoCD8zj8o9ls9rS6urrn8miDVSlAAQqMKsDr1qhERV2A162xGV4GaYfOyWTSmj59+k9E5BQAlsNqbygmIltU9Ru9vb231dfX8860V8gxrNfa2npgRUXF50TkMlU9Oo9Dm79K3HPHHXectmHDhmwe7bAqBShAgVEFeN0alahoC/C6NXZDyyDtwjqdTqdE5MsAKlxU2+edadu2bwRw2+TJk/9cVVXVl2d7rB6AQHd3d/nOnTvfAeBzlmV9Kc870aaHvap6dTweTwTQXTZJAQpQ4A0CvG6V1qTgdWvsx5tB2oV5R0eHeW/wBgBTXFTbX9Gsqv5aRH4mIn+yLOsvfX19zz399NO7uAOiD7oemjB3b4466qhJ5eXlh2cymRNE5ERV/YSIfMTrmuhh3dgB4KxYLGaWCPFDAQpQIHABXrcCJx7XA/C6Na78AwdnkHYxBrk/lfwSwDtdVBuxqKr2muUeADYDeNm8Kg8AtxL3C9hdO2bJjnml3UEApptlHCKS718fhvbgkd7e3o9ySY+7QWFpClDAuwCvW97tCqQmr1vjPFAM0i4HoKOjw7w/eLnLaixOASOwOBaLNZGCAhSgwFgK8Lo1ltpFdyxet0YZUgZpl3O+vb39YMuy/gzgEJdVWby0BV60bfsdtbW15s0t/FCAAhQYMwFet8aMutgOxOuWgxFlkHaANLxIOp1uEJGUh6qsUqICqtoYj8c5Z0p0/HnaFBhvAV63xnsECu/4vG45GzMGaWdOe5XKvZvxPgAneqjOKqUn8HBvb+/JfHd46Q08z5gCYRHgdSssI1Ew/eB1y+FQMUg7hBpaLPeU7KcjkUhX7sE0D62wSokIvJzNZquffvrpO/k2lhIZcZ4mBUIowOtWCAclvF3idcvF2DBIu8AaWrS7u3tyT0/PxQAuAXCgx2ZYrbgFzOvuWiorK6+pqqraWdynyrOjAAXCLsDrVthHKBT943XL5TAwSLsEG1p8/fr1R/b3939TRM4GcEAeTbFq8Qm8KiK3RCKRb82ePfuZ4js9nhEFKFCIArxuFeKojVmfed3yQM0g7QFtsIqqyrp16/7Vtm2zU91/MUzngVlcVV8F8H3LslJz5sz5i4hocZ0ez4YCFChUAV63CnXkAu83r1seiRmkPcINVjPrzo444oh/KSsrM1uHf5HLPPIELfzqr6hqdyaTuerZZ5/9K9dFF/6A8gwoUGwCvG4V24jmfT68buVByCCdB97QO9M33XTTEdlstk5VLwLwZh+aZROFJ/APEbk2m822x+PxZ3gnuvAGkD2mQKkImDvTvG6VymiPeJ68buU5DRik8wQcWr2tre0Ay7I+LCItfm4j7mMX2VRwAo9ks9kGAL+qq6szfyLjhwIUoEDoBXjdCv0QBdlBXrd80GWQ9gFxaBPmt/zVq1dPLC8vXyAiCwEc7PMh2Fy4BF5W1Sv6+vpWbt26dQ+XcoRrcNgbClBgdAFet0Y3KrISvG75OKAM0j5iDm/q5ptvPqi3t3cugLNFZAaACgBlAKwAD8umgxOwAfQD6FXVpwDcUlFRsXbWrFkvB3dItkwBClBg7AR43Ro76zE6Eq9bAUMzSAcMbJo3fzqLRqMfUNVPqep7ReQQABNzoTrCYD0Gg+DtEOYHUDYXnner6osi8oCI/CSTydzPJRzeUFmLAhQIvwCvW+Efo/30kNetMR46BukxBs89LX1wNBo9OhKJTFPVStu2zZ1qfkImYFlWr4j0ZLPZbZlMZsuzzz77EpduhGyQ2B0KUCBwAV63Aif27QC8bvlG6bghBmnHVCxIAQpQgAIUoAAFKECB/xVgkOZsoAAFKEABClCAAhSggAcBBmkPaKxCAQpQgAIUoAAFKEABBmnOAQpQgAIUoAAFKEABCngQYJD2gMYqFKAABShAAQpQgAIUYJDmHKAABShAAQpQgAIUoIAHAQZpD2isQgEKUIACFKAABShAAQZpzgEKUIACFKAABXwT6OrqmqSqb/LSYCaT2VFbW7tTRNRL/X3V6e7unrx79+4DvbQ3ceLEV6qqqnZ6qbuvOmY79vb29snRaHSKlzZF5J/V1dW7vNRlnWAEGKSDcWWrFKAABShAgZIU6Ozs/Hfbtud6OXlV/d7OnTtvX7BgQa+X+sPrmM1kZsyYcbpt27M9tnfT5s2bf+TXZlzd3d3lPT09n1XVszz2py0ej//EY11WC0CAQToAVDZJAQpQgAIUKFWBtra28yKRyI1ezl9VL+3r62upr6/v8VJ/eJ3u7u5IT0/PlwF820t7qrpo8+bNVyWTyYyX+sPrtLa2VpaXl18iIkkv7dm2fX5tba0nWy/HY53RBRikRzdiCQpQgAIUoAAFHAowSO8fikHa4SQqoGIM0gU0WOwqBShAAQpQIOwCDNIM0mGfo372j0HaT022RQEKUIACFChxAQZpBulS+gowSJfSaPNcKUABClCAAgELMEgzSAc8xULVPIN0qIaDnaEABShAAQoUtgCDNIN0Yc9gd71nkHbnxdIUoAAFKEABCowgwCDNIF1KXxAG6VIabZ4rBShAAQpQIGABBmkG6YCnWKiaZ5AO1XCwMxSgAAUoQIHCFmCQZpAu7BnsrvcM0u68WJoCFKAAIUbm9AAACwRJREFUBShAgREEGKQZpEvpC8IgXUqjzXOlAAUoQAEKBCzAIM0gHfAUC1XzDNKhGg52hgIUoAAFKFDYAgzSDNKFPYPd9f4NQdrsc9/Y2OhpD3h3h2ZpClCAAhSgAAWKTYBBmkG62Ob0SOfT1NSUFJGl0tTU1CgiywGkEolEYykh8FwpQAEKUIACFPBHgEGaQdqfmVQYraRSqSYACWlubr5QVa8FcH0ikbiwMLrPXlKAAhSgAAUoECYBBmkG6TDNx6D7kkqlrgNwgaRSqVkAbgJwSyKROCfoA7N9ClCAAhSgAAWKT4BBmkG6+Gb1/s8olUp9B8DZ5o70qap6N4BfJBKJj5cSAs+VAhSgAAUoQAF/BBikGaT9mUmF0UoqlboXwMekpaXlWNu2nwCwJZFITC+M7rOXFKAABShAAQqESYBBmkE6TPMx6L6kUqnNAI4Wc6BUKtUHoCwSiUy+5JJLdgV9cLZPAQpQgAIUoEBxCTBIM0gX14ze/9msWLFiUjab3QmgfzBI/xHASbZtf2jx4sX3lQoEz5MCFKAABShAAX8E0ul0rYi0eWxtSWVl5ZVVVVW7Pdbfq1p3d3dk586dF1iWdY2X9kTkyxMnTryuqqoq66X+8Drd3d0Td+3a9RURudxje3NjsZhXW4+HZLX9CSxfvvxky7J+A+ChwSBtBqcWwIJEImHe4MEPBShAAQpQgAIUcCzQ3t7+Ccuyfua4wt4Fazdt2nRTMpk0fyHP+5NMJq3p06efISLf99jYFzZt2vT9ZDJpe6y/V7XW1tayCRMmzFLVDi/ticinampqfuqlLuv4L5BKpS4CsBJA+0CQbmpqmi8irXxzh//YbJECFKAABShQCgLpdPpQEfkdgKNcnu8LlmV9bs6cOb8TEXVZd7/F161b9y+ZTOZuETncZZtbLcv6ZHV19WMu641UXDo7O9+nqrcBONRlu89ms9n319XVPeeyHosHJDD4xg5VrR8I0s3NzSeo6kYAzycSicMCOi6bpQAFKEABClCgSAXS6fQEEfkagMvcnKKI3JDNZpO1tbUvuak3Wtn169dP6e/vXywiDaOVHfrvqrqir6/v8vr6+lfc1But7M0333xQX1/fUgBu9+xYqqot8Xh8z2jH4L+PjUAqldpqfiESkZkDQdp8UqnU4wCO4zrpsRkEHoUCFKAABShQbAJr166dXlZWtlZVPwHAGuX8VFUfUNWLamtr7w/Cor29faZlWasAfNhBf8wyDvOcWH0sFns0iP50dna+3ywJUFXz39cz2H6OZYvIPbZt18Xj8U1B9IdtuhcYsj76iUQicfzrg9jU1HSNiCzgVuHuUVmDAhSgAAUoQIEBAVmzZs07y8rKLh14x67IFFWNDrMxgXWHqj5oWdayp5566l6/1iIPHwNVlXQ6/X4R+aZlWSer6hQAkWHlsiJi+vNbVf1WLBa7388lJkOPlVu7/TEAS0Tk3wCY/uz1C4eIZFR1h4j8EsA3q6urHwmqP5yz7gUGtwZX1ZWNjY0Xvx6kh2zM8ngikXib+6ZZgwIUoAAFKEABCgBdXV2HqOoZqvoZAIer6kSRgchhlie8DMCsXb61pqZmy1h4tbW1HR6NRj+vqp8SkbeY/gykfpHdqvoCgJ9ms9nvj9U65Pb29qNE5EwR+SSAgwBMUNWB/gB4TlXvjEQit1VXV784Fj48hnOBVCr1NwDHi8gnGhoafr7XnxUGl3eo6qcbGxvvct4sS1KAAhSgAAUoQIG9Bbq7u8t7e3vfnMlkDrJt26qoqPjHtm3bXlqwYEHveFiZ/uzevftgAG/OHf8fEydOfKmqqsqXt4W4PaeVK1dWTJs27WBjZFmWHY1GXzZG49Uft/0vtfJNTU2nicidAAaWdQz8MjYUobm52SxoT/LtHaU2NXi+FKAABShAAQpQgAIjCQy+rUNEkg0NDWb50t5BetmyZUdFo9GBP7NYlvW2RYsWmQcQ+aEABShAAQpQgAIUoEDJCrS0tBxv27ZZ1oFMJnP0kiVLnn5DkDb/I5VKDW7Ocn0ikXD7ipaSBeaJU4ACFKAABShAAQoUp0AqlboOwAVmE5ZEIlE3eJZvePVKKpV6l9nykHeli3Mi8KwoQAEKUIACFKAABZwLDL0bDeCkRCLxp/0G6aF3pUWks6GhIeb8UCxJAQpQgAIUoAAFKECB4hFobm7uUNWa4XejzRnu82XgLS0tx9q2/YQpwDd4FM9E4JlQgAIUoAAFKEABCjgXGPKmDvP84HGLFi36+9Da+91VZ/ANHiLyYENDg3lpOD8UoAAFKEABClCAAhQoGYHm5uY/qOp7hr6pw1GQNoVSqdQfzVoQ7nZYMvOFJ0oBClCAAhSgAAUo8FoObgKQMM8OJhKJd+8LZcR93ofsdmjqnpFIJG6nLAUoQAEKUIACFKAABYpZIJVKfRbAD805Du5i6DpImwpDNml5PpPJfHDJkiWbixmO50YBClCAAhSgAAUoULoCy5Ytmx6NRn8L4ND9LekY1BnxjvRgoVQq9QMAnwPwi0Qi8fHSpeWZU4ACFKAABShAAQoUs0AqlboXwMcA3JZIJD4/0rk6CtJNTU1TReRXAGZy+/Binjo8NwpQgAIUoAAFKFC6AoPbgAPYqKofaWxs3J53kDYN5DZq+TmAqQDWJBKJ+aXLzDOnAAUoQAEKUIACFCgmgVQqtRrAPAAmPJ86dOOV/Z2nozvSg5VzDx/eCaCMYbqYpg7PhQIUoAAFKEABCpSuwJAQ3S8in25oaDA3j0f9uArSprWmpqbPiIh5itGE6VsSicQ5ox6FBShAAQpQgAIUoAAFKBBCgSHLOfpV9YzGxsYfO+2m6yBtGs7dmb41t8zjF5lMpppv83BKznIUoAAFKEABClCAAuMtkHs7R1fuwcLtInKm0zvRg333FKRN5dya6ZtzDyA+D2A+3zM93lOCx6cABShAAQpQgAIUGE0g955osyb6UPNgIYBZTtZED2/Xc5A2DeXe5pHOvRpvIF8nEonG0TrPf6cABShAAQpQgAIUoMB4CAzZsdAc/jZVjY/2do799TOvID3Y6JBNW8zuLw/att3Y2Nh413jg8JgUoAAFKEABClCAAhQYLtDU1HSaZVlNqvoe82+jbbbiRNCXIG0OlFs3fSWAk3Kd6xSRyxctWvS4k46wDAUoQAEKUIACFKAABfwWaGlpOV5Vv66qNbm2HxKRhW7XQ++rX74F6X3dnc79v+sty7qGgdrvacH2KEABClCAAhSgAAX2J2ACtG3bFwO4YLCMH3ehhx7P9yBtGm9paTnWtu3FAGqHHOwWVU1zyQcnPAUoQAEKUIACFKBAUAJmCYeIxAGcPeQY7ZZlLV+0aNHf/TxuIEF6sIO5N3ssGBaozVKPW23b/uHixYvv8/Nk2BYFKEABClCAAhSgQOkJLF++/GTLss4AcCaA44cGaAArvbyRw4lioEF6sAPLli07qqysrFZVZwM4bkjHzGvz7gHwG9u2HygrK3v4kksu2eWk4yxDAQpQgAIUoAAFKFB6AitWrJjU399/omVZ7wXwIQCn5F5jN4jxhIis7+/vb1+yZMnTQQqNSZAeegLmoUTbtj8vIqcPC9WDxbYA2ATgOQD/APCqqvZalqVBQrBtClCAAhSgAAUoQIHwCNi2LSJSAeAAAG8GcDiAtwI4eh+9fEJV77As6wd+PEToVGHMg/SwUH2CbdsfFZEPADCvInl7butxp/1nOQpQgAIUoAAFKECB0hLoB/AogAdV9X7Lsn7Z0NDw2HgQ/H9mzkTRQvsCrwAAAABJRU5ErkJggg==;" vertex="1" parent="NjIfr40OnEK4QTtOGcaU-6">
          <mxGeometry y="27" width="520" height="196" as="geometry" />
        </mxCell>
        <mxCell id="NjIfr40OnEK4QTtOGcaU-12" value="Endpoint A (Requester)" style="text;html=1;align=center;verticalAlign=middle;resizable=0;points=[];autosize=1;strokeColor=none;fontSize=18;fontFamily=Tahoma;fontColor=#888888;fontStyle=1;container=0;" vertex="1" parent="NjIfr40OnEK4QTtOGcaU-6">
          <mxGeometry x="145" y="-3" width="230" height="30" as="geometry" />
        </mxCell>
        <mxCell id="NjIfr40OnEK4QTtOGcaU-7" value="" style="group" vertex="1" connectable="0" parent="1">
          <mxGeometry x="40" y="222" width="520" height="316.01" as="geometry" />
        </mxCell>
        <mxCell id="NjIfr40OnEK4QTtOGcaU-10" value="Request&lt;br style=&quot;font-size: 18px;&quot;&gt;" style="text;html=1;align=center;verticalAlign=middle;resizable=0;points=[];autosize=1;strokeColor=none;fontSize=18;fontFamily=Tahoma;fontColor=#888888;fontStyle=1" vertex="1" parent="NjIfr40OnEK4QTtOGcaU-7">
          <mxGeometry x="370" y="120" width="90" height="30" as="geometry" />
        </mxCell>
        <mxCell id="NjIfr40OnEK4QTtOGcaU-14" value="" style="group" vertex="1" connectable="0" parent="NjIfr40OnEK4QTtOGcaU-7">
          <mxGeometry y="29" width="520" height="287.01" as="geometry" />
        </mxCell>
        <mxCell id="NjIfr40OnEK4QTtOGcaU-19" style="edgeStyle=orthogonalEdgeStyle;rounded=0;orthogonalLoop=1;jettySize=auto;html=1;exitX=0.25;exitY=0;exitDx=0;exitDy=0;entryX=0.75;entryY=1.067;entryDx=0;entryDy=0;entryPerimeter=0;fontFamily=Tahoma;fontSize=18;fontColor=#888888;strokeColor=#888888;strokeWidth=5;" edge="1" parent="NjIfr40OnEK4QTtOGcaU-14">
          <mxGeometry relative="1" as="geometry">
            <mxPoint x="105" y="91" as="sourcePoint" />
            <mxPoint x="105" y="11.009999999999991" as="targetPoint" />
          </mxGeometry>
        </mxCell>
        <mxCell id="NjIfr40OnEK4QTtOGcaU-2" value="" style="shape=image;imageAspect=0;aspect=fixed;verticalLabelPosition=bottom;verticalAlign=top;image=data:image/png,iVBORw0KGgoAAAANSUhEUgAAAtIAAAEQCAYAAACdopOIAAA8/HRFWHRteGZpbGUAJTNDbXhmaWxlJTIwaG9zdCUzRCUyMmFwcC5kaWFncmFtcy5uZXQlMjIlMjBtb2RpZmllZCUzRCUyMjIwMjEtMDctMTVUMTUlM0E1OSUzQTA3LjAwNVolMjIlMjBhZ2VudCUzRCUyMjUuMCUyMChXaW5kb3dzJTIwTlQlMjAxMC4wJTNCJTIwV2luNjQlM0IlMjB4NjQpJTIwQXBwbGVXZWJLaXQlMkY1MzcuMzYlMjAoS0hUTUwlMkMlMjBsaWtlJTIwR2Vja28pJTIwQ2hyb21lJTJGOTEuMC40NDcyLjEyNCUyMFNhZmFyaSUyRjUzNy4zNiUyMiUyMGV0YWclM0QlMjJYZmQyTkhjZWRabE5JbHBLRHU3MCUyMiUyMHZlcnNpb24lM0QlMjIxNC44LjYlMjIlMjB0eXBlJTNEJTIyZ2l0aHViJTIyJTNFJTNDZGlhZ3JhbSUyMGlkJTNEJTIyWmFtc3lXMDZpTXRJbC1JZmRCVkQlMjIlMjBuYW1lJTNEJTIyUGFnZS0xJTIyJTNFN1h4WGw2dTZzdTZ2V1k5bkRISjRGR0NDVGJZeDREZXlBWk9qJTJCZlZYY3ZkY1lhJTJCMTd3NW5ubnZQdzU1amRqY1dRaXFWS254Vkt2d0xLVGE3TWtiOTAlMkJqUzdQVUxnYVg3TDZUMEMwSGdGRUg4Z3Y1ajZmdXJoV1clMkJHNHF4VEw4NyUyRmRad0xZJTJGc3V4SDdibDNLTkp2JTJCMEhIdXV0ZGM5bjlzVExxMnpaTDVEMjNST0hiYkg3dmwzZXVQcyUyRlpSa2YycDRacEVyeiUyQjMlMkJtVTZQNzlhT1JyN3JWM055dUw1WTJZYyUyQjc3VFJEODZmemRNenlqdHR0ODFrYWRmU0hIc3V2bnJxdG5GN0lXWTk0TXZYOCUyRkpmJTJCZnVyNFNOV1R2JTJGTXc5b3ZDNzRUdiUyQklodWUxN0RTdkp6ZndYOSUyQmpyTkZyJTJCVjd3TjdIeiUyQndjSHhtNXAwd3dOZ3Y5Q0NxOG96bDUyTjVWejJiV3dMWUd6WnlPOHNXYmpYRUslMkI2WCUyRlRZZTU2ZURkNmxjVmZkZ2ZmTiUyQkp1bnJzRzNzaTdkcGFqcG53aGdibEZ6NjZKdmx1JTJGaFFNdTg1c01vUnZUYkJTN1Z3ZEhsTnF1aGJlRjdWbk8yYldQRXRSM2cwSUoyNTV6OCUyRnFtJTJGOW1ONVFFSGkzNDBmRWIlMkJYdTJQenolMkJHJTJGSVVnT1k2RGpkTThkblgycCUyQmE4ZkwzJTJCWnZxdm5qOUVCVzZ5OE9kOSUyQnNGMHlJSnMlMkYxM1Q5NzRwV2RkazglMkZpR1hiN3ZNdDhpOVA2aEc5JTJCZnQ5OGtrdjBoWnMlMkZmU1NQQmZqZEczMXBRJTJGRHIwYjRJQ0w3NWw1YSUyRmxadXllZW1WTDdMWHIlMkIlMkJkJTJGWVZ5WXRQRiUyRkVmOVlicUM4OSUyQml5YkQ0cTluY0Y1TmVkJTJGOXJUS0ttTGo4ajlqdHY1NTk5ZlNNMjNjRTM5bCUyQnJuNVk0RVZmaE1DWDYwWWo5YTRIVWF6VkNjd05kSFF1N2I0aGRDTE8lMkJDNVc3WVJTazZBUCUyQlpWJTJCOTU4Z3A0aFg2QUJrUVF3cjhTbHBrM0JyVUlTaXJjdkJNQUZ6aUVabTclMkJoWEZROHd0ejcwJTJGTUklMkZnbVZkTm4wbmpBOGQwMWJMemk2dVBQQjNHJTJGUG55NXpnTDElMkZMaHRzSCUyQnRYRDFYdUt0VnhKcFFBT1RoSEpDNWsyODAyY3YxcVQ0NVhQRXFPbEklMkJuU3JIRXJiWGMzQm1ON2tidDJ0MkxDQzRSc2M0cUclMkZsMVVmJTJCY3g3a3FtUHcyWm42UyUyQiUyRmZpVEdsbEdtcWtzRFV3MUtMZHZPaUtJYThqdWRJdnZyM0E2Nm9jRyUyQkFFQk9KWkhNVjhrTG8wdGpDMWRWYUV2akI1dGc5NHl5bEh1S1c1SElyb1NGOU05JTJGQ1d6eWRkenRtOVpnSWxETHc3OTJIUjVCSjZKJTJGNGcydm90d2JBJTJGJTJGMmVUVHhHNSUyQjQ5JTJGSE1aVmoyY0lUJTJCeDNqUlVjVmRIMWYxMUlDSGQ0WlRucHVzWXBmSWVhU1lQT1d5VUtOaXFWJTJGQVg4MENDVEFpYUk0QXEzRTl4d3VDWFpzenVPVTNTakdhNUdYbnVBOWlINlVsJTJCVSUyQjZjNEptWmtHSTJHdFlPYkMlMkZnOWlwUnlMZktFeUYlMkZ2WGxKVnVKTGd5Wlo2bHdFa2tjY2R4ZlJNZUtwZVowQnZIelNWOGJLeW53SUlvY3Q0VUJEJTJCa1ZFbDhCViUyQnJTVzlSdHNXQjBzT2k5bCUyRnFUd3Z2MmlnQ3VBREhKOGoxTVd3OWNtVWZQNnhwaHElMkJJNUc4cnVIQm1TUlQlMkJVWXJ3JTJCRGcyUEtGQ05DSFJCNlJOTFE1bHNCUEJ0bk9ac3BNJTJGcUIlMkIlMkJsRGlkUFRaMzQ1TmVBdkFZamQwZk9uUENKRWtwN2hvelIlMkI4TmdCYiUyRkhPSm9Kb1Juc3BZWTgwNE5RMTZKOW9aJTJCRVAlMkJ5R1Nlb0lUa0ZrV1BqYkxPZm96NW5CV05MY0tkZUIxWlZOJTJGalZXUlJMZHE1c3g0UDdqN29id2tpR1dUcml0JTJCJTJCNklJazdZVGVJJTJCQlowSkd3TSUyRmRDVGoyWWhCT0RDbmlIQ2hCJTJCUkklMkZoSyUyRk9qaTFBb1hBJTJCSWdKJTJGbno0WDhMZnd1Zmp0M2w4MCUyRmQlMkI2JTJGeFAzZnNvZ3Y3dUhtaUp0Y1c5RFZvbWJVQWclMkZhMmo0QjRPNmc5b0tJUXFoOWlSeEE3V25aVGhkZTBYMW5iJTJGcDhWaFg3N2V0ekY0JTJGYUVRJTJGWEN5MFF4YjhDVHFNcmEzJTJCbkI5OFRPc0hRSXJlVUt0WUNKNWhuZGFxVDNFdlNKVXgzcWVweUlmNGNGUiUyQmhlaUxFTlF2QWIlMkJCVG40eVpsYVpYYzQlMkZCa0owUkN6aHp6YXlDJTJCTmFzaDJaYzVyNm5KY3lPQyUyRlYyayUyRlNacG51RFhOU2ZLZUV3bEl5WHNockVVa0NNciUyQm5PbyUyQmdEUlV3YnMzdkFmSkVyYUdEbGltSiUyQmVTQXNPMmdINUxEZU9jdVdiOTJTenlJcXZoQXluQm56dGFnZWxEdEJNTWF2QmtVa3RubVJVQlQ2SWtyN3lTcUEwa1dTdHNScUVUcHhydkNKcnV3amRCWU9aclJvSm5hbld0VHQzMFR5ZWp3QmtsdkNaZ3ZBeFZrVUtQbEtoNWFQVFNRVkNhQ29yTm5teVlMcEk1TGQ5QXJWMEN0cGNkVFhWMmJlRTZNQzdCOVpEVk4lMkI3SG1uRGZmT3hJcXVrN3ZKNzY1SiUyRkxIUmpDdjNTMkZFRVEzbXlWM1k5cnJnOXUyZyUyRkYzdW1kblE3c0E4NDcyeUhxeHk0TExLVlZiSFRqNjJ5RGJib0N4MFd2MWhDdXhnMXFrYTZUSzRXcSUyRjI3ZUxyTTVWNk5tZ0t5SnM2NFRDMXREcXVJRGVWT05RR2VIQ3BKUmd2eEVGNW42SE5sdFV6bCUyRnFCbGtsaEFLMEN3TE9GTkl6YmcyJTJGb2U5RkFRN3pxSE1pZmI0ZG9tdlpFMmZPUkM4N0drRFd4VVlQMDAyWHhaMkFteUpubng0UDBRVkFzYVM2cFdOV2dyWnRJamlCYVhva05zUE11ZGNhR0pwMCUyRnBnWUtydkZnelZqUUpuRThPeUFyVERRYW9JTWljUkxja3p6dEVVVHJ3ZkFwY1Z6SVRrZGJIZTdXNTh6d0NNOCUyRlNsek4yRTZnVXVNakE0eU1tbTBXb2RWbkRCZkhiREpuQlNvYjBZSWI1eHRuQThXRExwUThYTGRENDBRb1dWc2tnUk1HSGdVb25oc2hSY0N5b0l6SVBzVDVXb2MwS2N6Qlo3MUZHRmoyaFZBbFY3dkclMkZlaU00d0J6dnZKaHY3OTVpZ2Z0ejlFWUhOQ3IxamZpcGFBVGZIUkFtYnpiUFN4VmlpS3YxY1ZhYm9uc0JoN0FMMFpEdHhuR1lVSFcxZWhCdXhqd2I0VXFzejBsdzNuOUslMkJLbldvTjVnQ3JZbkpMOFNGNFlBJTJGalZhbkZHVEFmMjkxdktkeFp3YUx5Nkd4Z2RQc0theUE1V1ZQVDhZVWlnSWk5a1JVWDhSN2ElMkJDJTJGcks0QUpNZUo5cEpISTFMdHh1N3kxRnowaDFzMEpwWkJlaHhPeiUyQjJBdVZvV1lZTiUyRjRWakowY2RkNmpGJTJGWm93dnFKZGVmcjZ6MWtSY3BFQkZSbE8xNmlJWjJNN3dBMGNVMHBaUmNQRnhsdXpWcXk1U3ZwY01ZVmNJS2JyM0RKdSUyQm5wdmxDaWh0UjkzU3dGR3clMkJLQkY2ZU9McElMSjNPQ1NadSUyQk1sclclMkZlZ3plMnFJSmlJbXo4WU9KVWd1VFlYUlBvNEtHbE13aUx3YUs4RWxWVm1sMmdWT2IyR0JaRUU1RSUyRm0yUHg4Wk85T3dwRDBJeEVkTnpNWkZkbXA4YW1WWkR4SzZJcUVFTHBiVG5OWmkwVEJJdzQyeEVVMGdyUE9IWmRaVEtwYnpoV0huWHJlbW1CNmJReGtqeHVUVVZjU0V2RGZEM3ZtRm81TldDc1BMbWRJRE9SSFlydmhUVG1rZmcybjhnV2tUaXpnZGxvVWpObGlBUlh4MXZPT3JCZEZKMXFVU0hFRXg0RklaY2F1SXNra3BjSUdSUzB2bmRUJTJCR2RURXQ0cUs5WmglMkJVVDlQZHgwS0NHNmJzbkVKS2RDanlDOGE1Z28lMkZYanBReTVVUGRMREMlMkJ3cURZMU5NM2JpR3lXMERqSzBYSDNhWWcyTWptRFBTWjJMeThrRTFvaEV3ZU50YyUyQkhyN0ZSSVVWalhVTEZmdGlRQWxuVzdrRUd6cmlkJTJCcjUxVFlZMGVtNkVubUR6aUpiNkFHanYyUHZJQ2VxTkJCS0lSVE91STRXdGxiWWd5blBMbGclMkZRQ29acDg5Q1hDQWFad0M2SlgzWkI4RiUyRmpQVU1BT0FTRUs3UHBJSHd4RUN1Q01uRSUyRk9abXduJTJCUENxSGN5NVFSZms5UVE1ZU85dWNWalo0Yk5xZVV3WVkyZXRObFdCMnc1T0V6RyUyQmc1Q2o3Z3B5SENlV0poQlZTU01XQUR2UjdBeUVLSTQ0WDRRS2NTTkhqaDRjd3JuTUFVaTFrTk43QzdYRGJaZk5DQWlGTGdBcG9nbm9QN1JOaGo1a1RqQk5oNlpNQUpvb3FSWHdOYWhob09GNzRBcFdSRUhzb2kxR2hiQm5qanRlc1hmbll5biUyRkdkd3JPR1BhOE1qaklkbXhvWG9LbWFsM2VOemdyTkl0RGpsNmZzcmw2bHVhc1k3V0syb3pudDNLWSUyQjVjamgwZHRhMDNHS3pqeUtick1wYUZqRDVoWnUzbzg5QkJFSyUyQkwxVnl5ckhwazdyTWhDYVF1WiUyRmJCeFZoalJRRUV6cSUyRndwa0lsRUtpZUh2b05KRUp3UGR0OGdadFJkJTJGYUl2TjczUyUyQiUyQlI2TEZFUjZ4TXIycXFHYzlhMDhmeWRaRHVpQ1VRN01uUUR4VUZOVmIlMkJ5NWNOTEtjRDltSGVyRUhBWFhhRDR0Y1BaN3A1SSUyRld0U1UlMkZEakEyNWFUdWpiZVF2TXJ0NXZSJTJGYzh6V3o4Y29kYXhvWGtZazllQTI1MUw1OWQ4b3FkTXdiZ00xJTJCZCUyRk9TdlM5JTJCZzl5d0VaSm5td3BrcE1uNURUdGhkSkJSRkhJViUyRkxFblk3WlUlMkJWUEFOV3VNbHNJSHZJbFdJZUx5eUY2enhzcGZFTkVrSzFNNE04Y0ZITm5sdlM4RSUyQk1RVU1mUFVBRjE3cWE1M0NMb2tNblplT1JycHAlMkZFeDQyckFWU2VBa2JLT1g1UU9xV25uQURWNmZQeXphODEyam1NJTJCaGolMkZPbkhRQ0s3UndKSmFsZDJuRmxFSU5zczIlMkJJWWhkcUNvNEhmayUyQlZQamRpUUNiaDBKJTJCTDU5Q2ZFdXVKVkVjUjBQUnVBOXlhT0d0VHBXeENobFl4VFJFZjZLRDBMNVZlTFVGOTEwREhmSlB4eHlLZnJKcnlPUmRPeDVjSEpMMWUxNmdoTXVZZGZqVkRpTmc2bGZVYyUyRiUyQjA5dkdMOGglMkIxUUVraCUyQmh4ZEpBOWtVaGNEMDVWdXBQa2VOeFhROXdsNGdPT1BwRGw0aUN5Sk92a05mMTdZcVRSRHdSRkp6QlJ6VWluRWhoY21FQTFLYThWdEFGVEJXRGVsa0Z2Nm5oYUFRdjQlMkJBZDZseG1UbzNBUmZjY0RpU2tUTGJvSXplQ1o5SzZrWmlDN0xDeGlBQ25rRTVyNEM5U216Y0l4VGI5NGhGckZ3S2Y3UXprdWV5cE5UMVNsWnljJTJCMUNpM0tzTjVWZHRnMkVMbjM0c3BmUjc3d3dFdlVrTk5ENFZmT2J0eGp2eENBcEY2UjdqakFFUnZrQnVtJTJCQk9lOCUyRklSUUQ2REF1Q2glMkJidEVWZ09Qc1NCRHR5cTNMbnFSOXJUZEt5cXBYRiUyRk5aMDVuSXRyUkFLRFVQdTVQdlR6UTQ2QllhWkZDayUyRk5rWEN3cWI5b3FCQWQ3YXYlMkZGVHkwcU93Q1NsUG5TM2Q4cyUyQldVeWlPUjdzTTJka0ElMkZsQnFwZXNjZ2MlMkZ2YzJldDFUN29EZG1zNm1wRHJmQkhkc2VQMVZTdWpZY25DJTJCNzhmeUJSSmxpN0pPJTJGNGg1azBDSTVsejZud1FWTXplRVVhMEpldCUyQmwlMkZKRzc1U1VNSiUyRiUyRklnU3B5eEFqSWdPMyUyRnBYdmtMMTVWJTJCMmFCcExOT3hHQjNkdVJpOFV0M2NxZUY0dFEyWnFGSzdubmxWM241JTJGbTZJajlIWExiVkd6ZWpYU1dMbThVa3dGSWNvREkxSDhMZ2RMalo5Z2hQSTRyYmNWNFIyJTJGYUpyUmVERlY2bGJiSWRDQUElMkZlNDNwbm5UTjhnMDNIbG1RSk80cnB4cmFkeUhyb2NVd0F3OXp4MTdLNmdUOEY5SWNGWlJMYVk1SjdSUVBKd0pVZjRDcndEU3NWd21rQURnYzlrd1RBZEpGRGE5aGclMkJKUWQzU3dXNnBLUFplcWl5cE9mbjk2UEZsRTN5WFo5NDY1dFkzSVdsd2wlMkZKQSUyQmh4TEVEdEtUT1NINEdPblRZQTVUbEc2Q3NDQThKa0ViMmNrYmNSUEpROWNZQWhwc01jVTFCVzdqNTlhMmlvY0E3MDBTMXpteURtR00wOVdTOFNFRW5tVmdQOGRPbUJMM2hmT2p4RU5UbVpRSVFtYkJPR0xrcm83SUhzSHZBa1ZnUSUyRmZKb09YaTdwV29YWVBSOXNROHVVdEoyUk40S21ZJTJCWWxwJTJCWDNEbFJMVFFMekpvNWNad0VyeDFRQWhsY1dsJTJCJTJCYkptMmEzeUhUNktSQTdQRUxNcmJuM3ZIQlElMkZ1QWNEaU8lMkJNcDZSa2NnRUNJT2hEcDVJTHZsTkhRQTA5cW9Yem1JUFJBTXBoZlVQOTV1Mk0xMHZoN2VBTGlPSGhraGkzNEhWM0VHMEI5bE0wSVZRQk91JTJGU1g0UXNVb05jTnJvVVhKT1dDOWFKSGh3cnBIZnM2OTdTaThkUmRzWnkycXFMRGxOMlVLbXZoSVNta1loJTJCcUdUTyUyRnpXWkJiaUptekd6RUdpbkJ5SCUyQkZVYUc4QXFReU15TkxranVQcEMlMkJXSlVsT3dBWGFRR2pKRExuN0MzWUNpbUNqbUJPZkVXOUEyZWpSJTJGUzlHbzdITWkwcUo0OHhEVXlEQkM4bkhGZGt0Q2gzSXdSS2tiNHVaYllVUFI0dDhDUU81dnc2TEJmUkxrSjZ3VDJiWCUyRldoWXQ3UWxQTGhmeVhRaGI1QW9hSDg0SnRKMiUyQmRCOVJScXA1OUZEViUyRnMxazNkJTJCNTl4T0gwdjdsUVNTb1YzTzZMWHlvak41N3BXajU4UEd3T25wWFlmYzdFTVlYRVpVSUZhRW9ONnBna0dHNk91YWxKVHVFdzNFU3RCUDVsckRIWE4zSEt5ZmxycHNrcm1OWjAlMkJVeG9NQ3B4ZDVSazN2VjhDU0ZBOHNQenozbSUyQnNaRDdYYTFSOFVoTGZ3ZGlxRzZhUFNoMXNzODlzSjN3cjBTR0xrSmhYWmhVTEt4VnIwaWVvN01IZ0tzelZrZHU4N3pnd1BoS1pxZ0IzbmdBTWNobEQlMkI2Z3ZMSmg4MEJKSGZZNm5Yb21TY0FhZCUyRkMlMkJTVHZwSXNzWXh1UUlxaDd5Tm5rb1F6TzdoRHlOJTJCWlMyQ0JkSjhpc1lWOGYlMkZMMVFLWEd6WWhHRHBONnR3TGVGTkRoQjloWFc0S21GMUxnWDBrODNzY012SFhlbUUlMkY4ZjQ0Zks2cUJ1dSUyQklYZnBDTFp3QnR6UmMlMkJzTEVxQVpIQSUyRldiMzlmS3Q0UjIwZG9HRDBVY1NiV0tJTlJ3WU5EJTJCakZ6ZURCaEFGREJBWiUyQmV2elRqaHEwWjZSNVFxdWdiUSUyRllJUk9uV3clMkZXUXNUd0VEeVpjVU5CczdTaEFVNWs4cWh6bGsxY3RLeiUyRmh1T1FHR0VGRjJKZ3Zib0hnUkVPSW9kakVvdUJBUDlhU0xWZlZXb1hYQ0hZRWZuU05CMlRkVHp2SU9VazRnMnhRSlpkU1piTmtlQUZlSTQ2RzRtTVJqdSUyQlNLcUNHT0FNM3NWWG0wM3E1dXhCWDdiZnlWUkVHak11YUtJaTRDN3plNmdoVUslMkZJbFZEYVJYczFZNFZNNTNZbXplMzhESFZRY0hiRWNqZ1JCVnFlajJBeVdnZnNwOVlMVGJxcGwlMkZGNjVIanhTdWk1NVZlSFdRTmtpdTBQczBabkhGZ2M0ME1ZaXlicTd6SDhQTktuSGg3ODJUcXpDbU5GdVo1TnN5cDVFOG5yTCUyRk1NdFlqTkU4bUh0QnBMdU5OQTZDY0E2SGx1NHQ3JTJGQlhsQXFNWVAlMkJUTEpNQlFNNjlVT3BYWGFLdWtTNHVSSzN2alpkcG15WGFteENGNUs2ZjlpQm9XR1JsU2VuQ0lId0xLSHlFVDJKRGV6R2paRWRvTWU1ZjFqb3RLdW5wTU1KVGpCR3pTd1pTc2RpV2dWSlY4UU56ek5DSCUyQktlOUxZVWlQY09Hd0NkbHJKa0NKT3hpMUlteXY4Nll5MUdFNmMlMkJ0U0xDeVRRNFlLRGhmWUtWdW1XQ2h0OWljR015RXV1aU9CZllON01MdTlnOUxmZ3BHMklZYnBWdGdmY2JjOXVVZk1ldjhZdkNoOUd6Ym5zaW9wRGVpM3NVTXdaQlV4TWV3M1R3UVc4WVpnRmxDR0JaJTJCWGROM1VSQ2o4QlRCUkVEc1RoUkNLMnllWCUyRmJwMzRBbjR2bkFFc0pEN1NZUkthbHd4ZEM5d1hlTjIlMkJuanZ6cmlYa2w3U0NXQVFQV09jaG1LazM5a1pFdHJKUnh1TldzcHpYbHZJQ2d2d2tXWnVYUHBsNEpQSGFmUEF1N3JmYXlSZm9hb0hMb3FnaWI1U1lkeGFncE40UG1hMzgxbDZTS0VEemFPN1FwQzZ6MElMSW1qU1czOFFZV01EWHROZHpWNmlBQ2RLR0NTZkElMkJqbENFdjJEelolMkZMUko0UXJCNXpJMTkzS2Fjc2olMkY1QUdYZzdxTTlYeDFiNUpHcjlTUHRqbzB5SDB3RXpwQSUyQjVRSnpMRjFBa0ZGZ2NzYjhISERvNUJCczd1MmRMRklraVJ3Zkx6RHlWM0FYUDFLa3JPVUlna1F1ckU4Nk9GV1FNY0RwVCUyRlpnN280Z0hhdVhlJTJCUHVnTHJWZ2lHJTJGYiUyRmt4TkMwM3FwbUFtMFE5aVk2ODFBYk9qdG1zNiUyQnVsbEF4Zm5PWiUyQkxpS0pwVlh1VU5NbjhacHlFYk92SHNySjZDZ25ZOHFBbzJnWVE5aEgzVkxzODBGTXlIYW5LYThMJTJCekN4Zm1GTVhNREhWSkRqSFhJQlJoSTY1dmtHZGk1VWQ1N3NOcm83SnFTVzZ5ZDV4Nko5T1dYa3hzVVUlMkZ3QiUyQkdZT05mQnpWRmJsJTJGcVZOZTlqb1pUWFdpa1R4WiUyQkoyRFlVJTJGckhKdk1IazRQQ01abFlUZ3pCdlM2WFF4bUg5QVdxNXV0UHpLYlpGQkdycUxzY2JLakt0OTdxSkk5djdKalV6bVBrYzl3Nnd2MFhLQWI3TlBpeGllZUV2dGM1TnZVTFBROWh0WFVCZVJMSmRWZXdZbkF2cUFzaVhoREp1QzR2dk54TEJjR2hqUHk0MEdZWUslMkIxd1VpbExnMnVLQWpkZEJ4elZtSjlyanlPamJYd0pDJTJCdnM4bzFZRHE1MlY0cmRzUFUzRlZQWjJoNjIlMkZWNU8zeVVra0lwaHRYdW9ObGF0ZWUlMkJZUXdCWmpBd0laSEhuYkFuRkxLclVsTURvcjlCYUFpa1JBeFVrbDY1SVl4dTRMS1FIb3hud3AwVEhYdmkxUGFlS1JUd0xSUnhxM1p4QmZkNkpvWDglMkZUUUxNSE9Ud2ZIbENjd21VM2x1aGtHJTJCQ3lMWkdnN0V6b3hNNmRGUkc1Rm1xeHhkd2doY0lvNXJGV0NiTGNVR09qOVRnRTFleTBRT0o4TThyb3FhSmdwVVhoVDJTNUxudzlIY3A0aW0xY0xuSmdIWlladzRoZVJlNU5sZUlMTjFsRDJhVHpkazROTUtHR3F6YzRMZkFrTzRvNWppNXE0Sk9ncHdUQ3M5ZkNNQ2hSQlFOMCUyQlZKRkN6SmNkeHJ3U0U4cEJWOCUyRkNVUEZIcWIlMkZMVUhxR0dNZ1h5MXR2djdSSXhmcEZ0T3dETVNXRWVXYXlpNHdPS0I0VVlhUjMlMkJZTGFGdEdDa3pSaExQJTJCaVRMbkVVYUJabHRwVW94WXBPS0F6bEZkMFRCYWgzd3V6NCUyQjczRUlNS05PenJTMlRRQjlPZ0lBeU52V1llenZsZ29ZQXZRQVE4em1HN1BldUp3Vm0lMkJadnpOQk9aMkE4ckNXRXNaZTB4bUh0b2xmejdGNmxoT29lcUtucWVod05xM1Q1JTJCQVFLRlZhMkdjMURKRHJBeDY0cmtGV3olMkZNeU9tRGdWSFJPUzF2Y2VIVVVDUHUzZFJueng4MEthdWNDREJRTlhFS09xemtCN3FoM1VUQnhGS2NFYUphaG05bWgyR1k4UVB0NUtlMVUxQzJYTWJLTHVhMHdNcDhtOGpVbHp1VU5iWjZabzBoJTJGUUVqNmhWJTJCckJkajFucHBEV0FCWk9CN2tPVnJab05Obm4xYVBaQ05ENUdyU25aYlU2Vm1KaFFhazRNSXhaMmFxJTJCVE9ibGUlMkYyUkVhQUo1RXpxWFl2Znl1Mm1sd3hGOXB3Z3BkRkMwSEpLOG9FdEphc2tDRkFsb0RYMUNmaVltMGtGJTJCa1QxQlRwSzRKTDZTOTNNbjhIOXdOWGNaZkh3aGwlMkY5bDBiT0c5eU4yV2VSTGdkUVFKSEJuSlhxem13YWF3VFFwbjBYT2JzdXlYcHFjJTJCQ1llNDJUMFZuOW9MeUhMZG5iTk9DQTJZTmNDZUwxRjRpYyUyRkZka2JSSHB2YnBuRjlObTJjN21iRmtGRDZ4M0FJdFdUdXo1Tk9tU1NZTjBER012bWRZeUxRaHRTQnZab0hhJTJCUjhJJTJGRUZ4JTJGcHhQZms3M3FUTGZ1U1c1eDF3c1FKbU5pVnJuRlFxRmVSVTZUTEJKQW9PYkxCYXhGMTJZViUyRlowVjlmJTJCd2xkWDIxeTElMkI3OGRUdnd2aTFxY3k1TE9HJTJGbFZDZkJCRHoxQklJSDUxQnFJMk1HNE00WSUyQjh3RGFLYjU2SlFXQlUxZmtJREVrNGh6VUJJbTdIVng3V1ElMkYlMkJ6RmpXaiUyRm9IeG9WVyUyRnV5dUQ4NyUyRmJrRGMlMkZYMTFCUHdUUEU0UVhCUTh5enclMkJQdmZYbWdGME5HQ0F3cjY4M2d6SXhrVWllNFI1NlhIOXJTcEF3Tk02U1MlMkIyU3RwdWhrZFVnWkJ2MXZ3NDFWZHNhR3BVNjN4WFZucm04RDlVQmZBVExvJTJCUHRuQnVuYjB5UTBueTN0ZWtQSUR4Z3RWVnBCdk0xVkR5aUJieDRERiUyRnJ0UmUlMkJ1cnprUVFNSWlPVnRkd0FLNk9WQUhaSDhLZjJidU15cjZ5UiUyQmJYSVR4V0dCZ1FISFhBdDFlc1pwQ3kya25RbzAxWm5VeXVXODJsNnV3NW4lMkZwVG1QJTJCVExzZk1tZzJaRE9ESlNOOSUyQmgzY2QzcGZLdTA0SU9JMHdWdXNuelBVbmZRUXFZSDl4YTlJdDdxNU1Od2o2Q2M3MSUyRlMzdzJSZUxIRFFhd09xJTJGMXdaa2xXSno5MHFPWGZLdXZpOU9JNHM4cEhxT0p2NmtlSSUyRjVjUFVhUWYxVTlSdjVQVlk5UiUyRjNyMTJKOUx1djVVOWZVUEM4eiUyQnVucnNmMk5wR0ZodnZ5c04wd2Y1anF0YyUyRnB4VGI2bGZ1S05sbUNqTUYzbnF0Y2FGcW5tdHp5OVJQb2RiR2dscXZiQW4yYjI4TUZrSTczVXRQQjV1TmhRMzYxcTBiaWtJQlhlTm5tTHJkU0RFYTVHUm5EMWp3NndkZUxTbmElMkJGTHZSWEhnUlVzODVlQzJJQWxzT3RxVVN0TFBIaXl4Wlo1R3Q0NlhQbDYycmF2ZE5KMzhyajROdnclMkZISVA0cXolMkY0SiUyRnY4dWVIWDNxZGZOZWVmN1BQSEtad2ZHdmluaCUyRjZaUGo5cmZRTDRlZXY3NmdOOGVQRnZyZW52OVBtMzF2UjMlMkJ2eWJhJTJGckxQajlyZmRwUFhOODN4NzZWNEY5ZjA5JTJGcDg5JTJCVDFUJTJGMiUyQlpmWHBJSExUZElFSU1GUUhtayUyRmlzcHA0bG40N2Q1eUpzOWxlWHEzb2I4SGt2SzJzQVk5VDF2WnNsejh6SFUwVU9oN0l0dHBRJTJCb0RoWEhiRSUyRmJUV05vQ0RiY1Y2UHA5dlBhRGclMkI3OU1TOVNBV0dEUkRkN2hUMW16dkZDenJLQm96dTNEM3F4OXBMVU16cElVR3h4QXByVVJMdWZ4dHZPbVJtVkhlOUNnSkFFWmZxbld4b1dJZnFVNmQyVHRUTEdYUzd0TjJXV3NZQkV0OSUyRm5VRXk1azNoQ2NaN0ZrdXpGa3hoNm4zZWJIazluYUhCcFJTWklNTzl2N0l2bWd4a29uOE0lMkJOS01VVSUyQmR1a1VLNTFHcTlOcFRyRiUyQnF3MFJObUxPTGJGYzVrVkRvUnFDTzFNMXBEaEJhQWNNdWVHRHRqeCUyQjFOYVloYmowdG1MOVU0VmV6VFBhb1Q0NjliV2lTcXNKa0lpREN0WG83TEY0eEp2UEN3VFpyQmxwV1g3QjBpZTRLMlNTT2YwM1hSTXhHN2ZVNWFWZGJmVzR0ZmFQRzJ3SmgyNGM0V1JCQmxJcUt5Q0FUOWVLWElxZUQ1OHAwQmRCaGglMkJidEZUa3VGVW5jS0tybXlubGRTSiUyQmlLUjRXbjNDTiUyQlA2JTJGSEdoTUpUYkRka3FZSUpLQjB4TWdkcGlucDM1aHlwZmpRYjJOZVRteUhvUE5rNGtVZmRHOENUY2pxWGE3Z2Zmcjg4aHRXYXBMYnhKakVmaUZOZ25tMkdUNDlqb25NcmJScTNJQU01ME42JTJCcHdoQTdGS2xUakplSXpjeHhyJTJGQkZadHhZR2w1Q2ZraU5IQnhlc1ZsJTJGNlBFV0lyYzV1Wk1vdVRsMFhPdWVoTlBXQWtac29jb28wcDRhR09TVVZPVzB1a3JaV09qOE1odzJ6TXI2JTJGR3ZyNEtUU2s1T2psckRvcmdNUHBLdFY3UU5tUXc2QzNCcFNTWlFMa25KcHFjU1UxTWIlMkZ4VlR0RDJ5Mk11YXFjTlJveUQ5MFFwUEswaXVlTkFwNGdoU1poZjh4eEJqbElndkVZJTJCN0k2SGtsd0VQT2JNekZVWTN6TXY2Q0ZHVHZ2eFk5JTJGNmFvVnhnQVY0eTRpWmpJT1NPbFhCQmhJbXFwV1ZqYkhoMFBLSnRWTFdQOXBtWVpNTGt5dmtmYVdXelRodGdub04zalhkYzhxcWswUnR2bm1VckhwMkxNRkRXZ2IyY1l5RW41ZkhWc1lWU3pFUGhnY0xVRzNhWW5LbnVuYnJIQ3NKaEp5dnhzTFQ1MzElMkJIMG1jMHJ5VnBFRE1WVDJwaWpTS1Z1YU90NCUyQlBURkE0TWI2R2daMWNRejRCV256eFR5bDUxWHpDeElHd0paY28lMkZWcFZXdE5NbjZwUzZxVXFIV3lLSTlSbmJqVGFZWVp4VGFHUGNDbHdEMmw2bkd6NTRlOHBOZ0g3Y3NNd3BPTmpJSE5yOE0xN2hKNnNra1FoZGZ4Q3g3ZUNHNGlnQkxjN0VjRGd3RlFET1klMkJRck02dGFhWlBXbWVTSk1Nd1R0VkY2azFMaVFCNjhSQlQzQVlGU3U0NmRSNiUyRnFoN3FPYlJQa3g1c1owMWM4b2Z0UmprNlRXTnhBNDQwV21uRTZvZVB3ZzRPNWJiVHlCNXJaYnNvUnRCTWRJVTRIQnd0b2hCRHBUemdEZ0slMkJnZVRBSFVjSm1zUGkxd2U4djd3VENzbHRjU200S24lMkZyZE1QaGkwd2c3WWJrZm1SNERSNUtZdWViN0F5aHViTkV2bG16SFhBM1prT3JqNjBrWXJQanFXOWdtTiUyQkVoRjROZU40Z1hQM1F5TjdmUjNzak9jR1RYa2dTblNhbnNERjNiSnR0STNaTlZ5aUwwZEg2Q3pGOXlBQ1hwNGR5bFd5UU9raTVjaFFseWJaUHR4OTZxeUFoRWpNSHNydTQlMkZFRUlJN09neW9PTDBpMVFzdVl2eWI0Rk9jRUpDWGlsT1RlTmxZMU9LYThSVnFjVXlrS2FLUDQ2aXo5a2dIcHNYJTJCd1JhWlRaTjN6VHVwbXR5WjVZTHB5biUyQkV1aWhlV1lLSlF3ZTE2dk1iVWY2WTV6RVMlMkZmUHNoNzRKQU55UzdXZUZlM2xCOFJWNkVRbWdTJTJGU3FRSTElMkYxY0RIOGZDTVIybGxhUTFyR1NtNlZrJTJCaW5HZnolMkZXOEhmN3BHSWlwdVpYbDFCVyUyQlFGandIdDltNCUyRnpjdjg2d0JGUTRhWndJYUIxTkZJV09EJTJCMDN4WlR0RUhidWZTNFVLSDRRTFYzR2NMOE43JTJGYzVyZXhHQzNLYWlrNXElMkZrb2hjVnZKT2ZGYjJGbEwxOHlUdTJJMnJXN1B4NnZWd2c2UFNYaUc4cDZyNGVCWWRxa2VncjNXZXo2enZhWVVhR25RZm5STDlzcGdScTZqSU5EWmVPWlhland3NGI0RHl3SlNRWFlETGhqMEYwJTJGV1E2NWJrZ295cjZnMFpFenQlMkIxTmhoJTJGUkVRbVlQdU9jdnNhcFB1T2N2c2FwUHVNWU9YRGdPQWV2UnZUOUZUa2U0TkRjUHdVRnlnVzglMkJBJTJCaSUyRjFjUiUyRlU5WjMlMkZmTkNYNyUyQkQ2TCUyRmx4SDlUMW5mTjhjS3FFJTJGJTJGWHhIOTMlMkZSQjU5MGlDU0VyV0ozeiUyRlJFenQxMzRJdmZxM1MzM1FvdWhwcUVjekU5SlBoSDglMkY3cmtFJTJGbWY1Tk0lMkZTRDZSJTJGdSUyQlNUJTJCdjdqTCUyRlVSTm9aOXRxJTJCZk5mc0clMkZsMWMlMkZQcjU3ampLV3V5ZURtZFZxZWVmS3dGOUkybE5WcVFiJTJCSmtQNWthUTNuZVNBN2p5MllJMVRSTEtWZGZlOVc0bzhJcTBFamtXb0ZRZ3Y4dlYxWHVWaUU4STRpQ1hndEk4R3ZqdiUyQm5Nb0hueUV4TnNmQ0pabzVsRmJNWGYxcHclMkJEbkpKJTJCTTdxTVIlMkJJWWpEejlYOFNJZiUyQiUyRkV5RkMlMkJOODJUMyUyRnM4M01TS3I4eTdtZkp4MDlibiUyRk0zdEF1aGRWcUlRbTFwQlByUG5UWG5ESGxMVUpWQjNIS0J0aklKSlpPJTJGSCUyRjYlMkZEMSUyRkFYNHZXJTJGJTJGNGtWbEdjSDlPV0M4YTV0MGFLJTJGc3BYOEpteVYwWmEzYll5RlB4SVNEY3hyRkVtNndIQjBPUUFxWVl4JTJCQmhQWE42QWV3TWNyWGk5aWIzdEJ0emdJellHR1h3cUZFQXBvSE10ZElaMU5qdmhFUXBoQVZTZGRpN3ZmQ2U3Q2E5OEFuQ2JPRzBBR3NHY1JXJTJGS1lCdiUyQklnZ3d3VlpLMEduZkFpZ2FzVnpmU2t2YkpjZVdEYVVEWEE1Z2NVRFhhWmU1VWdxQkFwMnhvZWtBdW1NREZDNndVVm12eHQlMkJER0NnUkpBV0F0M0klMkZSakV0MlhEQXNTQUN2djk1TCUyQldkbldEUGlkMmRYTnd1eHlZZWhmYmFUb3RlWldReWZNVVI2eHFqZDNZRThneWZnZXVsaExlb0tvUTlsJTJGa2Q5emU1S1NBTGdGRzF4YjJLWTJCOXIxMUVwUnlqVXB3Sms1OUpkd1hiR2Zhc0MzQjZsa0cwcVNHUFB5OGNtQXpFVVAyVm9KVFRxazR1WTZaeE1BUGRCanJjSTlwV25yN0U5ZkVUaUk5T2ZtaEEwQjc3T0hiM2l0elZRV1VkRVZLOU9jQnlIWFpIVWRoMEw5U1F4RVo4bm1meFVjaVA3Z1MwTSUyQlF1U2NyZnU2QUI5VUpyYVp6NUdoZklteVVnYmtERGYxMmlFR2tKZW1ra0ZpdWdINXFXNURCa2t2SE5aVmc1WkFpYjEyZTBUekZvdmlWRDBxaXJ0ZWN2bjJIM2s0cjJ4Z0dpYzlPeDhLMWtFb2hOQU00aVNqJTJCVjJXdEJDa25kNDY4OVJQMzJZNjdzJTJCNUhvJTJCMkdBRWZVVjBQdWIxOHJoc1prc2FOR2NDJTJGdjdqcVJLTVFvMjVXWmh4MSUyRlhmVHRDYWFVWUFtNEVsTVhDQVFXcWE1T1ZiRHhqN2ZaZDFOeCUyQjdUaGM0enU3U240Ymg4SVBDdDViV3JFaGcwJTJGa2xaU2M0TWRjcHpueVdhMHR4OSUyRk54TVpFUnNhJTJGZm5iZVpSdG92JTJGRlVvejM5bUFXNmtFRW5ZRWlQVVBSSWJNTFh2cXRTQVdJRFFMZ2hTYkFQVk1NayUyQjJ5JTJCVkd6QVJGb0VoSjNheEIxR2xyWUlrTlJ1R3VJb1NuMVMzSmYyJTJGSk5qUVBLa2FpJTJGa0VuYXdnSUEwckFDRzNRRHZkNU5JQUJBaENuWlZGZTcxWnhKTmVCUkFBb1dUR3lqcDgwJTJCUE1Za0NFcHl2WHBRQnBFZHgwcjZJbXlHNHFyWkNSam9pQ2dMVWR3RXRVQUglMkJaSlolMkJiS2dic2pTZkFWSEN3JTJGb1hiTmV2ZHBjUjVGeW9ITFhtWHJXRmNrU3FJVEMyUzFQbjdYUzhwZUxuV2VXZkZWVCUyQjk3Mk9WSERsOFFETHcwZTFCVXVqb1pLYW9PVldXMGdwNGElMkJHJTJGd05OcXROQWJqSExHOXBHTmVoTXZvQWdkTyUyQlI1Q3olMkJHeE04YVh0VHNQZjVCVFVRZkNRS2pYOGtjaUY4dEt5bDV4bTRxREhhcGhQUTJ5UXFGc0NwcnhqYVZlMlJtcld4cXI3NmRueURFUFRFSVNBUjRpdU9RJTJCRE44NExHbTBpJTJGT1ZOOGhXcGFOMlV5MkJ1NHZyNXo1SHliVTluakFzUnd6QTAlMkJjOTl4U0pCNGVoSXVQajhaaG1ESVFMSXdZckJWcnNKdGdibGhtY1psYiUyQkpsUDlGSmttNlQ3JTJCUlZVNmolMkJBTlNuZ3VXT0hHZEVoYWRldFF2a0ptSE50aUpjUTlvaTZDaVNUTThQY2x3NCUyRkNRWUFxY2lDJTJGU2dtRm9LMFd1bHJYQyUyRmRLZ0VoT0R0WURiT3h6WkQ2NjZIQjg3ZHpMVTBLWnUxYiUyRjZHb2ZRJTJCang5MnRsTmZqbU5zbndTTUN2MDhKJTJCdzFwJTJGcE5Kb1ZRa3BGUHROWUgyUmlOVmtnTlF6eHRsYzhaSHhWRktKME5lQkFMb2Y3SnFLTFhZJTJCWDRhSXRQb1lsJTJGbklINEh1U000MWUlMkZmTDNuU2cwSGdYUHU5dWw5R0o5M3VWVmlicGZ1NlBRYjJUUnc3Z2E2VEk2d1VGR1hvSmtqREJhMnI1RWxWRTNmNyUyQjh2ZHVkb25iSklrR2Q1T2t3cTFWY1VQNm5CdkExNUNlVHJldHkzN0xabEMzNVNKU3VUYzh6dXh6WE10d29kY0VqdHFxelFIQjY1SVdXUEhTJTJGMExRR0VyJTJGYmJwbkRaT1VlQ09lcVAyelBuYll0N2NCZ0x6TmJMTnRVN1dNcWlvb2tpOTN3MER6bFVQJTJCJTJCMTVBZklLblN4OHlkMURkWnFYSE55WkFOVWRtbEhvcHBIT3NheVZBYzY4WkZKbzk5dEpnTkZEZmtZaVZKdU1kNzFXQXhVd3VKUEo3VW9qNzNna1VlaiUyQkhUbG1NbG5aanBmU3BKWWtNY3RqTWVKVnRBcVdrJTJCZkVLVndPMWYwUGxLZkN5dGI0Y29rQlUwNXZ0WjlnRUtudDgwOTVOaVhTMk0lMkJqOTdzeVJ0JTJCT3VjNEZTRnpqNWQ1bWZ0NTVzckhSdHVUR2dvZTh5bjg0WjB3OUxlWU0zaEhTT1UwSGpjc0tiVDVzZVJTZVpCdlNsU2x6MWlZRG5UREJnJTJGSjN1N1BObmFnaXpGcjlDNHFOTFZENnJOZ1lVakolMkIwQWlmcDJjVGF4NTNneHBZcE5xUTZUTjFYREElMkJiWk1ySlJKaGZHMnpHZWpGaGRBMTltZW42bk1WMjZJbWp4Y2dWcnlJWGUlMkZUNGxRRG9lNTdEZm92MlI2dlRQN25kakExSmtlUWNFNUElMkJzS1dOMHhONkJIakpza0lBSHhnT2hCaHdrQlBZWG5VM0xKMmRQRkVhbXpuZm5zazJYQnlTU1hDY01FSUFhVVhramclMkZmNWs5Z2RVMVNoNElEakhiYmdRdUpTSUFIZGJvbEl3Qjhqb0haeDR6JTJGTlg0UmtZZnlKUTVTYnFEMzhHJTJGV2F2dW9taDJrMmxtNWpKb3ZxNGhVQ1U3SyUyQjNLYWJEWEQwcEJuaXY4JTJGbUZZeSUyQjRFak5hJTJCaFo3QTZzOE1BTDNzelM5QWwxVWd2SkkyODIyQ0RBVVQ0N0JsTnd2UnhlQVVTY2xLQlo2bXZRJTJCa1BEM01CSE54ajVFWUV2JTJCOE9EUWQydkl4NzdjaDBLbEdMTEpuTnQxdTBCZ2lXQm53QzZ2N0RLWmpjMnRaejN4a0tJYUFUQU83eG5uaVRRWEYlMkZUdENETXFBMEdIaHQ3ckN0MnIlMkJvRFlwdUVJSmhBMjdUQXVEN08xbCUyRmhtYUpDJTJGQ1I0a2d2MjZKd1dFdUhQSVlINWdBJTJGUjlFaWdwYjJhbGFzYWpGWlI1b1FLaUd0TkhOJTJCazE4SUNkeDdvdjhNajMwUXlwSm1LYzJCUnViSjdnb0JMTWVYNmg5OWhkcTgyR0ZobWFlQkhlbjNmNjdWbG8zcVFTWGtBSEJQJTJGYXB2dHR3TWxsRFpLeEx3U3lxQjc4TWkwNmExYlBlNndWSUp6WDRhVWlhbkJVd1kxclNXSllsSG5Qb3RGJTJCZmtvUnglMkZ3czI2QmVDTzBjTVBvZEpab2laZFpIZ2RqbktZOWlaU3Jhb050SjNFTG5Rd2N5UWVqMDFKR0IxbnJnODJVNW85dUJtY3NRRkRhbmlEbnNXTmdZOUZZRG5yJTJGWkZQbUxKcnN3YkNOdklsRklvY2FQRHdncWR6eGszakV4OG5qc285V1M3RWlzbTgwbjQ0M2o2YzlyY2xoUFpqeGRzWjh5YTJRSUI2ZkNrOGN0U20lMkZMQmoxaFhDQ3c5YlB5QXI4TG1QJTJCUk4lMkY5UFljJTJGdiUyQiUyRncxN1lMRSUyQlp3Z0ZJSzA4N1clMkZZOUdpZndZU3pxNUhuOGI2WEJURkolMkJmNms5S3UlMkZ5JTJCenJnZ3UlMkZQb2xocDk3diUyRnNxU1BMMGZ3QSUzRCUzQyUyRmRpYWdyYW0lM0UlM0MlMkZteGZpbGUlM0XY87u2AAAgAElEQVR4Xu3de3xcVb028Oe3Z5K0aSm2AnKv5eI5VEX0eMMr6BE9nFf0vEiE0iYzSdsgl6JVmkmtdpDSTFK5lVvTNpkkLYipvIocOYKK4A1RRAQpKghtuZSbrZQ2bZKZ/Xs/K0w4aWiTvffsneyZeeYfPh+61tprf9ea7Cc7a+8lCNmnpaXlWFU9WlUPE5Fptm0fYFlWeci6ye5QgAIUoAAFKEABCgQsYNt2n2VZr6rqNhHZKiJbFi1a9PeAD+u4eXFcMoCCzc3NJ9i2/VER+QCA9wB4O4CyAA7FJilAAQpQgAIUoAAFikOgH8CjAB5U1fsty/plQ0PDY+NxamMepJubm0+1bfvzInI6gOP2cdJbAGwC8ByAfwAwv4X0Wpal4wHEY1KAAhSgAAUoQAEKjL2AbdsiIhUADgDwZgCHA3grgKP30ZsnVPUOy7J+0NDQ8POx6u2YBOlly5YdVVZWVquqs4eF5+cB3APgN7ZtP1BWVvbwJZdcsmusTp7HoQAFKEABClCAAhQoLIEVK1ZM6u/vP9GyrPcC+BCAUwAcOuQsnhCR9f39/e1Llix5OsizCzRIp1KpdwFYAKB2yEk8DuBW27Z/uHjx4vuCPDm2TQEKUIACFKAABShQ/ALLly8/2bKsMwCcCeD4IWfcDmBlIpH4UxAKgQRp88CgbduLhwXoW1Q13djYeFcQJ8I2KUABClCAAhSgAAUo0NTUdJqIxAGcPTRQW5a13O8HFX0P0s3NzUtVNTmk49dblnXNokWLzJ1ofihAAQpQgAIUoAAFKBC4QEtLy/G2bV8M4ILBg4lIsqGh4VK/Du5bkDYPEarqlQBOMp0TkU4RuZwB2q+hYjsUoAAFKEABClCAAm4FTKBW1a+rak2u7kMistCPhxJ9CdJD70KLyIO2bTdyCYfbYWZ5ClCAAhSgAAUoQIGgBMySD8uymlTVvHLZ3PTN++50XkG6qalpqoikAXwud9KpRCLRGBQA26UABShAAQpQgAIUoEA+AqlUqglAItfGbaoab2xs3O6lTc9BOvdGjpsBzARgXmM3P5FI3O6lE6xDAQpQgAIUoAAFKECBsRJIpVKfBbA699q8jQBmeXmzh6cgnVsPfSuAqQB+kclkqpcsWbJ5rE6ex6EABShAAQpQgAIUoEA+AsuWLZsejUa7AHwMwHYROdPtumnXQbqpqekzIvLD3FbetyQSiXPyOQnWpQAFKEABClCAAhSgwHgJpFKp7+Reldevqmc0Njb+2GlfXAXp3J3oO3Mhek0ikZjv9EAsRwEKUIACFKAABShAgTAKpFIps8xjHoB+Efm00zvTjoN0bk202bvcLOdgiA7jLGCfKEABClCAAhSgAAU8CQwJ0+bBw1OdrJl2FKRzb+f4Ve7BQi7n8DQ8rEQBClCAAhSgAAUoEGaBIcs8NqrqR0Z7m4ejIJ1KpX6Qe8XdLxKJxMfDDMC+UYACFKAABShAAQpQwKtAKpW6N/cA4m2JROLzI7UzapAestnK85lM5oN8O4fXYWE9ClCAAhSgAAUoQIGwC+Te5vFb82q80TZtGTFI5x4uvDt3wmfwPdFhH3r2jwIUoAAFKEABClAgX4Hce6bNW+rMDoif2N/DhyMG6VQq9UcAJwHgjoX5jgjrU4ACFKAABShAAQoUjMCQHRAfSiQS795Xx/cbpAeXdIjIgw0NDf9WMGfNjlKAAhSgAAUoQAEKUMAHgebm5j+o6nv2t8Rjn0G6paXlWNu2nzDHV9VPNzY23uVDX9gEBShAAQpQgAIUoAAFCkagqanpNBExe6jAsqzjFi1a9Pehnd9nkE6lUm0AakWks6GhIVYwZ8uOUoACFKAABShAAQpQwEeB5ubmDlWtAdCeSCTqRgzSuY1XHsol77ctWrTocR/7wqYoQAEKUIACFKAABShQMAItLS3H27b9t1yHTxq6Ucsb7kgP3o0GcH0ikbiwYM6SHaUABShAAQpQgAIUoEAAAqlU6joAFwy/K71XkF62bNlR0Wh0C+9GBzACbJICFKAABShAAQpQoCAFht6VzmQyRy9ZsuRpcyJ7Bekhm69wG/CCHGZ2mgIUoAAFKEABClAgCIHB7cOHvsFjryCdSqXMeujj+KaOIPjZJgUoQAEKUKB0BNra2g6PRCInA/hXs0McgIiIvCAij2ez2d/E4/FNY6nR3t5+FIAPRSKRt9m2bfpj3sLwvKr+1bbt+2prawfuMI7VJ51OvzUSiXxIVY9X1bcAyAJ43rKsx/r7+39bV1f33Fj1hcdxJjDkDR5PJBKJ4/e6Iz1kF8PHE4nE25w1yVIUoAAFKEABClDgfwW6u7sn9/T0/F8AXwJwDICJAMpyJfoB9AJ4RlU7ysvLu84999ztQfq1trYeOGHChLMBzFXV6QAmDOvPHgCbAayJRqO3zJ49e0eQ/Vm7du20SCRSLSLmLRBHAqgY1p/dAJ5U1Rt6enq+f8EFF+wMsj9s251AKpUyDx0eP7jb4et3pJuamq4RkQXcxdAdKEtTgAIUoAAFKPCawPXXXz950qRJ9QCSACYNX0I66CQiqqomMN5QXl7ePGvWrJeDMEyn028C8GUR+RqAyv31x2ybAaAHQIuqrozH4/8Moj/t7e0HW5bVAOB8EZmgqvvbGM/0Z6dZQrBz587VDNNBjIa3Ngd3OzTzpLGx8eLXB3BwWYdt2x9avHjxfd6aZy0KUIACFKAABUpRoLu7O9LT0/MZAN/NhWgnDCZMf/mQQw7pPP30082dat8+ra2tZeXl5WeJyJpciB61bVU1Ybqur6/v1vr6enP33LdPOp02d8JjInJl7i69k7ZNmK6aOHHiXVVVVWbpBz/jLLB8+fKTLcv6DYCB5R0DQbq5ufkEVd1o1uYkEonDxrmPPDwFKEABClCAAgUmkLv7e6v5k7fLrt8XiUTic+bM+avLeiMWX79+/ZGZTOZmAB91066q3mtZ1rk1NTXPuqk3Wtl0Om3WineIyAdGKzvs33+iqlVB3SV32RcWN0s3UqmtZt2/iMwcCNJNTU3zRaQVAN/WwSlCAQpQgAIUoIBrgba2tndFIpHfD1nv67SNjIj818SJE//Hr7uuZslEZ2enCdA/AxB12pFcuX7zy0B1dfWvzRIUl3X3WTx3t/4/ReRWVXXdH1X9t3g8/ogffWEb+QsMvr1DVesHgvSQTVgWJBKJa/M/BFugAAUoQAEKUKCUBDo6Os4BYO4Ae/ksVNUb4/G4efAv708uuJqtnM1NQtcfEZk3ceLEtF/B3izrsCzrfFW9wnVnzMJukbNramrMkhl+QiCQSqUuArDSbM4yGKT/COAkro8OweiwCxSgAAUoQIECFEin0+eJyI0eu760t7f32/X19WaNct4fE6R37tz5FcuyVnhpTFW/OmnSpGv8CtKtra2VEyZMuERVzUOYXj71sVhstZeKrOO/wJB10g8NBuk+86eYSCQy+ZJLLtnl/yHZIgUoQAEKUIACxSzQ3t7+JcuybvByjiZg9vX1rfArSCeTyej06dO/IiItXvoD4GuVlZVX+xmky8vLF4nIUi/9yWazX6qrq1vlpS7r+C+wYsWKSdls1ryWsF9aWlqOtW37CQBbEomEeb8iPxSgAAUoQAEKUMCVAIP0/rnMHWkGaVfTKfSFU6mUeff40TJkI5ZfJBKJj4e+5+wgBShAAQpQgAKhE2CQZpAO3aQMsEOpVOpeAB+TVCo1C8BNfGNHgNpsmgIUoAAFKFDkAgzSDNJFPsX3Or3BN3eYO9IXqqp5U8f1iUTiwlJC4LlSgAIUoAAFKOCPAIM0g7Q/M6kwWkmlUtcBuECampoaRWQ5twYvjIFjLylAAQpQgAJhFGCQZpAO47wMqk+DW4WbO9JLzdOyqnppY2Oj19eyBNVPtksBClCAAhSgQAEIMEgzSBfANPWti01NTUnzFpbXg7SIJBsaGi717QhsiAIUoAAFKECBkhFgkGaQLpnJDmDwRjSDdCmNOs+VAhSgAAUoEJAAgzSDdEBTK5TNMkiHcljYKQpQgAIUoEBhCjBIM0gX5sz11msGaW9urEUBClCAAhSgwD4EGKQZpEvpi8EgXUqjzXOlAAUoQAEKBCzAIM0gHfAUC1XzDNKhGg52hgIUoAAFKFDYAgzSDNKFPYPd9Z5B2p0XS1OAAhSgAAUoMIIAgzSDdCl9QRikS2m0ea4UoAAFKECBgAUYpBmkA55ioWqeQTpUw8HOUIACFKAABQpbgEGaQbqwZ7C73jNIu/NiaQpQgAIUoAAFRhBgkGaQLqUvCIN0KY02z5UCFKAABSgQsACDNIN0wFMsVM0zSIdqONgZClCAAhSgQGELMEgzSBf2DHbXewZpd14sTQEKUIACFKDACAJr1qx5SyQSeasXpEgk8sxTTz21NZlM2l7q76OOtLa2HlpWVna0l/ZEZHM8Hn8BgHqpP7xOMpm0ZsyYcVg2mz3SS3vZbHbTvHnzTH/4CYkAg3RIBoLdoAAFKEABClCAAhQoLAEG6cIaL/aWAhSgAAUoQAEKUCAkAgzSIRkIdoMCFKAABShAAQpQoLAEGKQLa7zYWwpQgAIUoAAFKECBkAgwSIdkINgNClCAAhSgAAUoQIHCEmCQLqzxYm8pQAEKUIACFKAABUIiwCAdkoFgNyhAAQpQgAIUoAAFCkuAQbqwxou9pQAFKEABCoypgKrKunXrDs5ms9Mjkci0bDY7EcCEMe0ED+ZUYE8kEtmdzWa3RSKRzXPmzHlJRHx5B7bTDpRaOQbpUhtxni8FKEABClBgFIG2trYDIpHI+1X1UyLyXgCHAKgEUAYgAsAiYigFzEY2WQD9AHoAvCgiDwD4aSaTub+uru7VUPa6gDvFIF3Ag8euU4ACFKAABfwUuPnmmw/q7++vU9WzARwDoCIXnhmc/YQeu7ZMsDahuhfAk6r63YqKirWzZs16eey6UNxHYpAu7vHl2VGAAhSgAAVGFDBLN6666qoJ06ZNuwDAJbm7z1QrXoEXAazYtm3b9V/5ylf2cOlHfgPNIJ2fH2tTgAIUoAAFClagu7t78s6dOz9sWdblAP6tYE+EHfci8Afbtr8+efLkX1dVVe300gDrAAzSnAUUoAAFKECBEhMwd6FvuummI/r7+6tF5MsADi4xAp7uawIvqerVZWVlXeeee+6zvDvtflowSLs3Yw0KUIACFKBAwQokk0lr+vTpbxORrwD4IoADC/Zk2HE/BF4B8F1VvWrz5s1/SyaTZl01Pw4FGKQdQrEYBShAAQpQoNAFzJ3ojo6OfxGRRgD/BeCAQj8n9t8XAfM2j++ralMsFvsr70w7N2WQdm7FkhSgAAUoQIGCFlizZs2R0Wh0iYjMYogu6KEMovMmTH8nGo1eNnv27GeCOEAxtskgXYyjynOiAAUoQAEKDBMwDxbu2rVrAYBFIsLlHJwh+xIwyzxWVFZWXsMHEJ1NEAZpZ04sRQEKUIACFChYgdySjk+LSBcfLCzYYRyrjpsHEKtjsdidXOIxOjmD9OhGLEEBClCAAhQoaIHW1tbKioqK+wCcWNAnws6PlcDDvb29J9fX15vdEfkZQYBBmtODAhSgAAUoUOQCHR0diwA0F/lp8vR8FFDVRDwe55wZxZRB2sdJx6YoQAEKUIACYRMw23739fU9yh0LwzYyoe/Pi+Xl5W/nduIjjxODdOjnMTtIAQpQgAIU8C7Q0dFhXnW33HsLrFnCAotjsVhTCZ//qKfOID0qEQtQgAIUoAAFClNg/fr1UzKZzK8AvNOvM1DVXhHZAmAzgJcB7AbATTz8AnbXjgVgIoCDAExX1aNFpMJdEyOWfiQajX5k9uzZO3xss6iaYpAuquHkyVCAAhSgAAX+VyCdTn9KRL4HYIoPLlkAvxaRu23b/lM0Gn1s+/btW7dt27aTu+H5oOuhCbNL5bRp0yZPnTr1MNu2/xXASar6CQAfBhDx0OTwKjtU9QvxePwnPrRVlE0wSBflsPKkKEABClCAAkBnZ2eTqpqtwPO6SykiL6vqDQB+uGPHjj8vWLCgl77hE1i5cmXFlClT3gHgDBE5X1XNnep8PuavD1fV1NSY5UH87EOAQZrTggIUoAAFKFCEAuZu5fTp038iIqcAMEsAPH3MMg5V/UZlZeVtVVVVZsMOfkIu0N3dfWBPT8/nROQys9wjj+7aqnrPHXfccdqGDRvMXyT4GSbAIM0pQQEKUIACFChCgba2tsOj0eidqmruUHr9vATga729vd/jO4W9Eo5Pvdy7w78A4Nt5bsLzaDabPa2uru658TmTcB+VQTrc48PeUYACFKAABTwJdHZ2vt+27e+IyDGeGgDM3cjLJ02adAXvRHsUHOdquTvTCwF83euaaVV90rKsc2pqan43zqcTysMzSIdyWNgpClCAAhSgQH4C6XT6dBFZBeAoLy2JyL2WZS2cM2fOg17qs044BNrb298jIleKyMc99uhpAF+KxWI/8li/qKsxSBf18PLkKEABClCgVAXa29u/YFnWNQAO92CwW1WbXn311RY+WOhBL0RVzAOIBxxwwCIRMQ8Mmlfluf08Z9v2xbW1tebtL/wME2CQ5pSgAAUoQAEKFKFAOp0+29yJBHCYh9N7DMAlvAvpQS6EVbq6uk63bduslT7BQ/e2qurCeDx+i4e6RV+FQbroh5gnSAEKUIACpSiQT5BW1Z/09/dfOH/+/L+Vol2xnfPq1avfVlZWdp2IfMrDuTFIj4DGIO1hRrEKBShAAQpQIOwC+QRpALdEo9F67mgX9lF21r/cDpetAM52VmOvUgzSDNIepg2rUIACFKAABQpYIM8gnd60adNc7lhYwBNgSNfNO8Xf+ta3rgUQ93BGDNIM0h6mDatQgAIUoAAFClggzyDdFovF5hbw6bPrwwQ6OjpMkK7zAMMgzSDtYdqwCgUoQAEKUKCABRikC3jwAug6g3QAqAC4RjoYV7ZKAQpQgAIUGFcBBulx5Q/dwRmkgxkSBulgXH1rVetxui1w/RJ1y8LDyOC/ZTVeGakzeh7ebws+C0W5m05bFp7Ltf/3Edufj2MRxf+xbZfvMRX0WYrbZRVG3ElJ5+PAXPsnuum/KWsp7pVW3OG2HstTgAIUcCKQTqcnAHiTqs4Ukbfatu3q5+xIx4hGo0+IyH3V1dW79lduPIO0KgTn400ZG++xLHwAigOdmLHMMAHBK7aN+6MWHsQN+KcI1KtRkEG6q6trUjab/ZCqHue1f8PrWZbVJyKbM5nMRsuytsXj8T1+te1nOwzSfmoG0Fb2PDRDsMht0wJskCgWyrV4ZqS6mfMwzxJcqcBkN8cQ4I+iWCircM8oQf0Ufa39d7tsf6etWBhdhTUjtn8RjtTMQPtnuWl/oKyiJbIKDa7rsQIFKECBkQVk7dq1R0ej0TkA5nvdWXDEn32q37Us66s1NTXPhi1IaxIWnsdMW2A2ADkTQAUnTF4CvQButRRNOBQbJQnbS2tBBunOzs4jbNu+QkS+6KVvo9Qxc3y1qnbFYrHNIuL5l4kA+salHUGg+tkmgzSDtJ/ziW1RgALBC6xZs+bE8vLyK1T134M6moY4SO+Yj4MmR9CuwGeDOv9SbFeB23uyqJ2yGi97Of8CDtIDpysidwP4Sk1NzcNezj+oOrwjHZSsT+0ySDNI+zSV2AwFKDAGAl1dXYfYtm3e13uGWUEW1CHDHKT75+M0KzKwbC4S1PmXaLsZK4v/lNW4y8v5F3qQBmCLyO0iMr+6uvpFLwZB1GGQDkLVxzYZpBmkfZxObIoCFAhYoLOzc66qNgOYFuShwhyks1/CYgCXB3n+Jdz2NyI3YpmX8y+CIG1Oe5uqJuLx+IjLPr34eK3DIO1VbozqMUgzSI/RVONhKECBPAW6u7vLe3p6bhaRz6lqNM/mRqwe8iCdAvj8SSDjn8ezPcUQpEUko6q3VVZWzqqqquoLxNhlowzSLsHGujiDNIP0WM85Ho8CFPAmsG7dusOy2eytAE721oLzWqEO0h4fknd+9iVcssSDdG7k74tEImfOmTNnaxhmAoN0GEZhhD4wSDNIh3yKsnsUoEBOIJ1OvxNAl4icFDQKg3TQwiFtn0EaqvoQgOp4PP5IGEaJQToMo8Ag/QYBAfj6u5DPTXaPAhTYW6Ctre1dkUikAwCDtIfXtnI+ORBgkDZID2Wz2VhdXd2fHIgFXoRBOnDi/A7AO9K8I53fDGJtClBgrATWr19/ZCaT2QDgg0Efk3ekgxYOafsM0mZgfhuNRs+aPXv2iPtkjNUIMkiPlbTH4zBIM0h7nDqsRgEKjLHAypUrK6ZMmfI9AKcH+eo7c1oM0mM8uGE5HIO02Yzmjh07dnxhwYIFZqOacf8wSI/7EIzcAQZpBumQT1F2jwIUGCLQ0dHxFQDfNFuDBwnDIB2kbojbZpD+p6peGo/Hrw7LKDFIh2Uk9tMPBmkG6ZBPUXaPAhQYItDZ2Xm0bdtpETnVbMYWFA6DdFCyIW+3tIO0qurdqhqvra19OiwjxSAdlpFgkN5LgA8bhnxisnsUoMB+BTo7O0+1bbtZRN4XFBODdFCyIW+3hIO0iNxv27bZjOWeMI0Sg3SYRmMffeEdad6RDvkUZfcoQIFhAslk0jr66KPfF4lEqlX1TABv8RuJQdpv0QJprzSD9PMAvici65566qkHksmkWScdmg+DdGiGYt8dYZBmkA75FGX3KECB/Qi0t7cfHI1Gj7FteyaAw1W1zC8sVf2zqt5ZV1f36v7aTKfTZ4vIlQAO83DctlgsNtdDPXi9bnk5VsnVCWmQbmtrOyASiZymqu/wcUz6Lct6FsBjZWVlT86aNetlH9v2rSkGad8og2nI6w8kATZIFAvlWoz4epjMeZhnCa5UYLKbMxDgj6JYKKsw4p9Y9Dycoq+1/26X7fM90m7AWJYCFAilgKrKpZdeWjZz5szI9u3bfVsz3dvbm73ooov6REQZpEM59MF0KqRB2szzDRs2lG3fvj3q14lPnTpVt2/fnqmvr8+YF9X41a7f7TBI+y3qc3sM0rwj7fOUYnMUoECJCPCOdBEOdEiDdBFKOz4lBmnHVONTkEGaQXp8Zh6PSgEKFLoAg3Shj+A++s8gHbpBZZAO3ZDs3SEGaQbpkE9Rdo8CFAipAIN0SAcmn24xSOejF0hdBulAWP1rlEGaQdq/2cSWKECBUhJgkC7C0WaQDt2gMkiHbkh4R9oI8D3SIZ+Y7B4FKBB6AQbp0A+R+w4ySLs3C7gGg3TAwPk2zzvSvCOd7xxifQpQoDQFGKSLcNwZpEM3qAzSoRsS3pHmHemQT0p2jwIUKAgBBumCGCZ3nWSQduc1BqUZpMcAOZ9D8I4070jnM39YlwIUKF0BBukiHHsG6dANKoN06IaEd6R5Rzrkk5LdowAFCkKAQboghsldJxmk3XmNQWkG6TFAzucQvCPNO9L5zB/WpQAFSleAQboIx55BOnSDyiDtw5DccccdFS+88ILE4/Fev7exZJAenyDd3d1ttkzfXVVVlfVhirAJClBgFAFVCBbgALkWO4jljwCDtD+OoWqFQTpUw2E6wyDtw5Ck0+l3quoxInJ/LBZ7QUR82xOeQXp8gnRXV1ddNpv9w+bNmx9OJpO2D9OETVCAAiMI6NcwCTtxASJok+vxD2LlL8Agnb9h6FpgkA7dkDBI+zAkHR0dHwPwTQC/zWazN9TV1W316840g/T4BOmOjo7/BpC1LOuy6urqB3yYJmyCAhQYKUhfhIPRh79AcDX60CbteI5g+QkwSOfnF8raDNKhGxYGaR+GJBekrwBwnKquikQiV1VXV7/oQ9NgkB7XIP0ZVb3bsqwlNTU1v/NjPNkGBSiwbwE1QbofLwDYCsValKFVrmOYzme+MEjnoxfSugzSoRsYBmkfhmRIkH4vgO0isnbPnj0t9fX1L+fbPIP0uAbp/wSQAXCvqi7ZvHnz77jMI98ZzfoUGDFIvwiFWRr3LIA1UKzBajwvGPh//LgUYJB2CVYIxRmkQzdKDNI+DMmwIA1VfcWyrK7+/v7k3Llzt+VzCAbpcQ/SZvj6AfzCtu2vb9my5fcM0/nMaNalwChB2vyzCdOCrRBcjyxWy2rkfVOiFN0ZpItw1BmkQzeoDNI+DMnwIJ1r8lUA6ysrKxdVVVXt9HoYBulQBOnXw7RlWQmumfY6m1mPAvsXyC3t2HtJnGIbBM3YhetlHXbRz50Ag7Q7r4IozSAdumFikPZhSPYTpE3Lu2zbvqm8vPyS2bNne3qlE4N0aIK0GU/zKrxfqGpDPB7/vQ9Th01QgAI5gX0G6df+bTeAy7EKy7nEw910YZB251UQpRmkQzdMDNI+DMkIQXogTKtqu2VZl9bU1Lh+pRODdKiC9GCYvkdVG2Ox2AN+vurQh6kYSBOqKhs2bLBM4xs3bhQ3B5k5c+bA2tazzjrLDtIqmUxaM2fOFLf9M30zfdy4caMGuWRn0NBr/0w/q6qqzGsYg1orLMlkUsbTcIQgbU6/FzZacDi+JcmB5xYK6jM4P/3stJM5yyDtp3hI2gpxkDbzHMDAtcKPz1j8bPajnwzSPiiOEqTNEcwDiK2ZTOba2trarW4CBYN06IK0GU+zZvpOswb+wAMPfKhYN23p7u4u37Vr1zTLsmbYtn2Cqk4TEVdBWlXVsizz15i/RKPRJ8vLy1+sqqrq8+FrN9DE+vXrp6jqYbZtz1TVo1S1wm3bIpKxbfvpsrKyR3p6ep6fP3/+Djff0ZGOl06nJ1iW9WYROS6bzZ4A4AAP/bNVdXskEnk0m81unjRp0kt+zTlz4Tv++OMP7OvrO1JEzBgfDqDMbR8B7AGwKZvNPtbb2/v8+eefv8ut4ShB2nTJ3Jluwqu4Rm4qjE1bBudnJpMxtkdbluXFdp/DISJ/nThx4j0jLR1kkPYwk8NeJaRB2mxitmvXrlMB/KtfhJZl9anqM5Zlbdy9e/dz9fX1r/jVtp/tMEj7oOkgSJujmEceS3QAACAASURBVIdlWvv7+1fNnTv3WacXGQbpUAZp5MLXj8xfGp566qk/BXk304cp6rqJdDr9JgCfEJG5AMx70ie5bmTvCn0icp+qrunp6bnj/PPP355Pe+YOb2dnpwnPcwDMERETAPP5mDu95r3FN/X3999k2/Zj9fX15hcmrx/p6uo6WFX/Q1XnAXgfgHKvjZl6qmp2Tv2Zqt4YjUZ/Xl1dndeaYROiZ8yY8V5VjQM4E8DB+fTPLH1S1ScAdGWz2e4pU6Y85SbwOwjS5n78PyH4NsqwWq7FS3n2N7DqZn6m0+kTRKTap/n5hr6q6ncty/pqTU2NecPJPj8M0oEN8fg1HNIg3dnZeYRt21eIyBcDwNmqqutFpLOmpmaj0/wUQD/22SSDtA/SDoP0QJi2bbs1m81eO2/ePPO+1FE/DNLhDNK5gTM3XH9o2/bSurq6P406mAVSoLW19cCKiooaEVmoqtN97ra52/vtTCZzdV1dnXkg19NnzZo1HywvL1+hqh/x1MD+K5m75T+zbXvZjBkzfnfqqad6WkbQ2tp6WEVFxfkA5gM4xOc+ml9CvmFZVkc+YXrt2rWfLCsrM4bv9rl/5s7xrbZtN23ZsuUvTn/JdBSkX+voixBcg360ydqB906H7tPe3v4By7JWAPhoUJ1jkA5KNuTtlmaQHhyUX6vq1+Lx+G/DNEoM0j6Mhosgbe5kmouguTO9wsmr8RikQx2kB2aPqt6RWwNf8Ju2JJPJ6IwZMz5l2/aNIuJ3iB78tpk7qRfHYrE2L1+/tra2wy3LahORTwNwtdTE4fHMnehuy7K+UV1d/ZTDOq8X6+7unrh79+5zVfUyAIe6re+w/PMALozFYrc6LL9XsbVr106PRCK3ici7vNR3UKfX3DnfvXv3t5z+9cFFkDaHN7vH3ogo2sK2aUtufq4Rkc/4uV50uDmDtINZWIxFSjtIm+dE7sxms3Pr6upCs/Mpg7QPXzQ3QTp3OHMnri2TyVw2WphmkA5/kM49AHa3ql4aj8d/6cOUGrcmzJIOs57fPNsWZCdU9ZFoNPrpOXPmmEDk6tPR0XEBgGUAzPKToD5m2cDFlZWVt7pd093Z2fk2Vb0OwKeC6lzuDTI/Li8vj82aNcv1O5Y7OjouBfDNAPtnmjZL2M6urq7+tZM/xboM0qb95wZ2QFSsktUDwToUn87OTvOXiGWqOjXIDjFIB6kb4rZLO0gP3IxU1W/EYrHrwzJKDNI+jISHIG0mw07bttOjvc2DQboggrSZRf2qajZtSdbV1f06wLcr+DBj999ER0fHsQAeCDikmg70qOq58Xj8B25OyDwA2dPTswGA2XUy4qauy7JmzfS1IvItN2/bya3dNgHa3Cme7PKYbov/XUTm1dTU/NxNRfMApIiYMX67m3oeypo3tXx9z549VzhZb+46SA9u2gKsho3rw7BpS25+fhfAZwOen+YvYVwj7WFSFnyVEg/SuZsIt1dWVn7R7U2OoMaeQdoHWS9BOndYs160M5vNXlZbW7vPB2cYpAsmSJshNQ+D/dL8tlyo24l3dXV9wrbtn/nwtRitCbN8YmksFmsareDQfzcPtJiQqqofcFPPY9kf2bb9pdra2qed1s8FKfMA5FqndfIoZzYvWex2iUx7e/sxlmXdF8Da7Tecioise+WVV+YtWLDAfDdG/LgO0q+1Zn7h+QcEVyGK6+Ta8X2bR25+blDVk0c733z/nUE6X8ECrc8gbW5Emp9fZ430oO1Yji6DtA/aeQRpc/SdqtoWj8e/vK+uMEgXVJA2Q2g2bfmfSCTytTlz5vzVh+k1pk10dHSYtwx0Bn1Q89YT8waPWCxm/gzu+NPW1vauaDTaqapBre0d2pcHIpHIOXPmzDFvonD06erqmpTNZi8WkcsdVciv0D9FZEVNTc1yN820t7d/SERuF5Fpbup5LGveuf4f8XjcvB5vxI/HID3YZi8UF0grPK27H61vTv+9s7PzRFU135+TnNbxWo5B2qtcgddjkDYD+JCI1NTU1DwchtFkkPZhFPIM0s+ZO5jxeLx9X11hkC64IG0epOvo7e1N1tfXu1676sN0zKsJBum9+Bik85pNA5XHIki/9upCG2fLavwq/y57b4FB+jU7r9ct7/IlVJNBmkG6GKd7HkHaPIzzzZqamn2G6Hx+IAmwQaJYKNfimZHMM+dhniW4Ul2u5xTgj6JYKKtwz0jt63k4RV9r39UrtgTYaSsWRlcVVJDeYVnWTeYXIzfrasP0neDSjr1Gg0s78pycY7C0wzzF/zgUF2Eb7pYNA38RGrcPl3YwSAc++RikubQj8Ek2DgfwGKS3qOrSeDzeMVKXvf5mzyDtYCKM8AOpo6Pjv3MPtDloCAMPj5rQEI1Gv+nlLQqODjIGhczDhqr6BxE5MODD8WHD/IFL+2HD15ZRPQrBN/AW/FiS8G3HTK9Dw4cNGaS9zh3H9RikzfeeDxs6njAFUtBDkH489zaA9aOdIoN0QdyRNhtQmPcaJwv1TvTgPByr198BeDgSiXzGy+vv2tvbL7Qsy7yjObDX36nqSyKSz+vvzKuZ/n2073ce/252EfxxRUWFp9ffdXZ2fsv85SSP4zupGuTr78zF1KyPvBx78CPpGNiiPBQf83pGEbmMr7/DolAMSLF1osSDdG4vjiU1NTU3hGVouUbah5FwGaQfMz/8Kysrb3GyfS6DdOiDdA+AGyorK5uqqqq2+TCdxrUJsyHL9OnTT7Ms64YAdjUcPLddqrpgf88FjAaQ2/CiXUROC2JDFhHpU9Xu/v7+b86bN8/Thiy7du2aDeAyEXnLaOfj8d/NlrkXxuPx/+elfjqdfquI3AbgRC/1HdTZk9vU51vxePyfDsrDxcOGWSgeGQjRlfiRXAXzi2xoPmZ+RiIR89YWs2GQFVTH+LBhULIhb7e0g7RtbiDYtj2PG7KEfJ667Z6LIP2oZVnLJ0yY8P2qqipHP/wZpEMdpM2DhVf39vZeXYgPFu5vnpstwidMmBBT1YUAjnb7fRil/CsAvl1ZWXl1VVXVTq9tp9PpDwK4QkQ+5LWN/dTrE5Gfmg01nnrqqd8nk0lPW4SvW7fusGw2e4GqzheRg33u4zZzN7mvr6+jvr7e/CLn6bN+/fpP9vf3G0O/34CyW0S+JyJNTz755F993iLcrIn+C4Al2IP/CdOd6KGDYOaniHwbwIc9DY6DSgzSDpCKsUhpB+lf2rZ9SW1t7f1hGlrekfZhNBwG6ccsyzK7sd1WXV1tApijD4N0aIP0LhG5sqys7PpZs2a94GgwC6hQbonHJwHMBfAxAJV5dr9XRH5j27a5U3eH07uU+ztmbuOTmeYVSABmq+phefbPvPnBLEVYb9v2zX19fX9xsonICMeUrq6ug23bNhvHzAPwXgBlefbRLF/4aSaTWVVeXn6Pm58j+zpuMpm0jjnmmPfZtl0rIv9XVQ/Ks39mucXj5vVvIrKhsrJyk5O/ug0e09EdaYH5C8EFiOJuuXbgve2h/AzOT1WtERHz14l85+cbzpNBOpRDH3ynSjBIq6rZDnydqnbF4/HHnOyUGvxA/O8RGKR90HYQpB8HcKmq3urkfapDu8QgHcogbR6Uu7qiomLlOeec82LYvtQ+TOmBJsyDUwCm9fT0HCsiJ2SzWbN9uLhpX0TM7nav2Lb9V8uynpw4ceJLfu5GZe6eT5w48XDbtk2oPtK2bdNnV59IJNKfzWa3WJb15z179rwwf/58s1GSCdZ5f8wugmVlZQdls9njbds+AcAkt40aQ1X9h2VZG23b3jJp0iRj6MvbKUyYPvLII99UUVFxVCaTOUFEDlPVqNs+Wpa1W1VNyP3Lrl27Xjj//PPNL5quDB0E6ZehOBOK+2Q1zIY+of/4MT9HOMm/TJo06ecj/WUnnU6fbX7h9xjk22KxmPlF2vXH63XL9YFKsUJIg3R3d/fk3bt3n6Kq/+LXsNi23S8iW6LRqAnPW2fPnr3Dr7b9bIdB2gfNUYL006r69UmTJt3s5eLn9QcS39rhYGC9vbXD/NnaPEiWKvQHCx0IDRQxd9c2bNhgbdy40VWINnVnzpw5EKbOOussE6hdBSun/TPlTCCcOXOmeO3jxo0b1ekSBDf9Gizrh2FVVZVZ1hCUoSSTSRlPw1GCtHkn+2m40WzEEJiBl6F1VCef+TnCAezR5iyDtKPhKaxCIQ3SQ38O+wka9M9mP/rKIO2D4ghB+llVXTLaK+5G6gKDdHjuSJtX3KlqR2Vl5dJieLDQh6nPJijgm8B+grT5xcG8C/8cWYVf+3awEmmIQboIBzrEQboItR2dEoO0I6aRC+0nSI+62YqTQzNIhyZIF/xmK07mG8tQYLwE9hGkbSj+BsGXcSh+Jkl4evBzvM4nDMdlkA7DKPjcBwZpn0Hzb45BOn9D7CNIb1LVS/O5Ez3YLQbpUARp83BoV3l5eUFvtuLDVGcTFAhMYFiQNmvA/wzFUpTjx2F+sDAwEB8aZpD2ATFsTTBIh21EwCDtw5AMC9J/My/jr6mpGXWzFSeHZpAe9yC927KsNar6rVJZE+1kXrIMBfwWGBKkTYj+E4DlYdtsxe9zDro9BumghcehfQbpcUAf+ZAM0j4MyZAgbV4Rtnz69OnfPfXUU335MySD9PgFaVU9VUSuKysrS5177rnbfZgqbIICFNiPQC5IPw/FwxAswz9wh2wI12YrhTZ4DNKFNmIO+ssg7QBpbIswSPvgnQvSdZZl3elmsxUnh2aQHrcg/V3Lsv4WjUavmTVrlnljAD8UoECAAjofB8HCL6BoRC/uDOtmKwES+N40g7TvpOPfIIP0+I/BsB4wSPswJJ2dnUdHIpEDd+3a9fd8dhrbV1cYpMcnSK9bt+6jkUjkb7NmzXoxwFeO+TD72AQFikNAL0IF+nEKynAP10T7M6YM0v44hqoVBulQDYfpDIO0D0PS3d0dCepdhwzS4xOkk8lkdOnSpdkg333sw9RjExQoKgFNIsq3c/g3pAzS/lmGpiUG6dAMxWBHGKRDNyR7d4hBenyCdMinBbtHAQpQYFQBBulRiQqvAIN06MaMQTp0Q8IgbQQE2GkrFkZXMUiHfIqyexSgQEgFGKRDOjD5dItBOh+9QOoySAfC6l+jvCPNIO3fbGJLFKBAKQkwSBfhaDNIh25QGaRDNyS8I8070iGflOweBShQEAIM0gUxTO46ySDtzmsMSjNIO0Tu7Ox8m6p+FMAkh1WGFns0Fov9zEM98I50OO9Id3R0fBLA2z2M6S4R+WVNTc3fPNRlFQpQgAKOBRikHVMVTkEG6dCNFYO0wyEptB9IAmyQKBbKtXhmpFPMnId5luBKBSY7pBgoJsAfRbFQVuGekerpeThFX2v/3S7bD/Ua6Y6OjrUA6tycU67sVlVdGI/Hb/FQl1UoQAEKOBYotOuW4xMr5YIM0qEbfQZph0NSaD+QGKQdDCx/IDlAYhEKUKBQBQrtulWozmPab163xpTbycEYpJ0oASi0H0gM0g4Glj+QHCCxCAUoUKgChXbdKlTnMe03r1tjyu3kYAzSTpQYpN+gxKUdXNrh8KvDYhSgwDgJMEiPE3yQh2WQDlLXU9sM0g7ZCu0HEu9IOxhY/kBygMQiFKBAoQoU2nWrUJ3HtN+8bo0pt5ODMUg7UeIdad6RHibAhw0dfnFYjAIUkNbW1ujUqVOj27dvF784pk6dmjnrrLP6RUT31yaDtF/aIWonpEFaVeXaa68tr6ioiPilNXXqVN24cWN26dKlI85zv47ntR0GaYdyhfYDiXekHQxsSH8gOeg5i1CAAgUgcPPNNx/U399/DIATbNs+AkCZX90WkT9ns9m76urqXmWQ9ku1ANoJ6XWrra3tABH5tIi8wy9FEekH8JxlWRszmcyTtbW1L/nVtp/tMEg71GSQ3huKa6S5RtrhV4fFKFByAslk0poxY8Z7VXUOgC8AONRvBFX9rmVZX62pqXmWQdpv3RC3F9Ig3dnZeYRt21eIyBcD0HtBRG7NZrNdW7Zs+X0ymbQDOIbnJhmkHdIxSDNIDxXg0g6HXxwWo0AJCqTT6VMsy0qp6geCOn0G6aBkQ95uaQbpgUFR1d9bltVQU1Pz8zCNEoO0w9FgkGaQZpB2+GVhMQqUsEB7e/tRIpIWkU+8tndVMB8G6WBcQ99qCQfp17K0/tyyrHhNTc2WsIwVg7TDkWCQZpBmkHb4ZWExCpSwQDqd/rKILAXwpiAZGKSD1A1x26UdpM3A/BPAt2Kx2FVhGSUGaYcjwSDNIM0g7fDLwmIUKFGBlStXVkyZMuV7AE4HYAXJwCAdpG6I22aQNuuj79ixY8cXFixY0BuGkWKQdjgKDNIM0gzSDr8sLEaBEhVYv379kZlMZgOADwZNwCAdtHBI22eQNgPz22g0etbs2bOfCcMoMUg7HAUGaQZpBmmHXxYWo0CJCrS1tb0rEol0ADgpaAIG6aCFQ9o+g7QZmIey2Wysrq7uT2EYJQZph6PAIM0gzSDt8MvCYhQoUYF0Ov1OAF0iwiAtWFSi0yDY02aQNk8cPgSgOh6PPxIstrPWGaSdOYFBmkGaQdrhl4XFKFCiAuvWrTssm83eCuDkoAl4Rzpo4ZC2zyBtBua+SCRy5pw5c7aGYZQYpB2OAoM0gzSDtMMvC4tRoEQFuru7y3t6em4Wkc+pajRIhlAH6S8hBaAhyPMv1bZtRUvZKm+2Qe5/EPCGLK8Pt4hkVPW2ysrKWVVVVX1hmAcM0g5HgUGaQZpB2uGXhcUoUMIC6XR6noiYIDktSIaQB+nFAC4P8vxLuO2vR27Eci/nXwxBGsA2ETGbsqz1YhBEHQZph6oM0gzSDNIOvywsRoESFujq6jpEVVer6meDfAVemIN0/3ycZkXwIwCB3pUvwWmWsbP4z7LVuMvLuRdBkDavvvuhZVn11dXVL3oxCKIOg7RDVQZpBmkGaYdfFhajQIkLdHZ2ngjgKlU1uxsG8glzkN4xHwdVRtAugPllgh+fBBS4vSeL2imr8bKXJgs9SIvIT/v6+r46b968h72cf1B1GKQdyjJIM0gzSDv8srAYBUpcQFWlo6NjuohUA5gP4Ai/ScIcpDUJq+85vD0agVni8V8AKvw+/xJrz2w88v1MFsvLD8ejkoS5M+v6U8BB+mkAqzOZzLq5c+earcHV9ckHWIFB2iHueAVprcfptuDjDrv5ejHLwsPI4L9lNV4Zqa6eh/fbgs9CUe7mGJaF53Lt/33E9ufjWETxf2wbh7tpH4I+S3G7rMLvRmn/wFz75g6Qq4+luFdacYerSrnCQf5A8tIf1qEABcInkE6nJ9i2PS0ajc5U1em2bbv6OTvSGYnIE5FI5DfV1dW79lduvK5bpj8mTONpvAkT8G47O7BBzZTwjVBB9GiHFcFvsQd/xFH4p9cQbc40yOtWV1fXJFU9OZPJHOeXqmVZfaq6SUQ2mq3B4/H4Hr/a9rMdBmmHmuP5A8lhF1lsDAWC/IE0hqfBQ1GAAkUswOtWEQ+uh1PjdcsDmoMqDNIOkEwR/kByCFUixfgDqUQGmqdJgQIW4HWrgAcvgK7zuhUAKgAGaYeu/IHkEKpEivEHUokMNE+TAgUswOtWAQ9eAF3ndSsAVAZp56h5/kBKb9q0aW4ymfT0gIDzXrLkWAh0d3dHenp61gCIezjeVlVdGI/Hb/FQl1UoQAEKOBbgdcsxVdEX5HUruCHmHWmHtvn8QFLVW2zbnl9XV/eqw8OxWIgF2traDohEIqsBnO2hmwzSHtBYhQIUcC/A65Z7s2KtwetWcCPLIO3QNp8fSADuUtUL4/H44w4Px2IhFkin08eLyHUATvPQTQZpD2isQgEKuBfgdcu9WbHW4HUruJFlkHZom+cPpMdU9WvxeNzTq9YcdpHFxkggnU6fLiIrAMz0cEgGaQ9orEIBCrgX4HXLvVmx1uB1K7iRZZB2aNve3v4Fy7KuAVy+D/m19neratOrr77asmDBAvNidX4KVGDlypUVBxxwwCIRaQQw0cNpPGfb9sW1tbXf81CXVShAAQo4FuB1yzFVURfkdSvY4WWQduib+21uFYCjHFbZq5iI3GtZ1sI5c+Y86KU+64RDoL29/T0icqWIuN4kJ3cGZoemL8VisR+F44zYCwpQoFgFeN0q1pF1d168brnzcluaQdqhWGdn5/tt2/6OiBzjsMrwYraqXj5p0qQrqqqqRtxt0GP7rBawQHd394E9PT0LAXwdQMTL4VT1SVWdVVtbe7+X+qxDAQpQwKkAr1tOpYq3HK9bwY8tg7RD47a2tsMjkchdAN7usMq+ir0E4Gu9vb3fq6+v78mjHVYdY4HW1tbKioqKLwD4NoCD8zj8o9ls9rS6urrn8miDVSlAAQqMKsDr1qhERV2A162xGV4GaYfOyWTSmj59+k9E5BQAlsNqbygmIltU9Ru9vb231dfX8860V8gxrNfa2npgRUXF50TkMlU9Oo9Dm79K3HPHHXectmHDhmwe7bAqBShAgVEFeN0alahoC/C6NXZDyyDtwjqdTqdE5MsAKlxU2+edadu2bwRw2+TJk/9cVVXVl2d7rB6AQHd3d/nOnTvfAeBzlmV9Kc870aaHvap6dTweTwTQXTZJAQpQ4A0CvG6V1qTgdWvsx5tB2oV5R0eHeW/wBgBTXFTbX9Gsqv5aRH4mIn+yLOsvfX19zz399NO7uAOiD7oemjB3b4466qhJ5eXlh2cymRNE5ERV/YSIfMTrmuhh3dgB4KxYLGaWCPFDAQpQIHABXrcCJx7XA/C6Na78AwdnkHYxBrk/lfwSwDtdVBuxqKr2muUeADYDeNm8Kg8AtxL3C9hdO2bJjnml3UEApptlHCKS718fhvbgkd7e3o9ySY+7QWFpClDAuwCvW97tCqQmr1vjPFAM0i4HoKOjw7w/eLnLaixOASOwOBaLNZGCAhSgwFgK8Lo1ltpFdyxet0YZUgZpl3O+vb39YMuy/gzgEJdVWby0BV60bfsdtbW15s0t/FCAAhQYMwFet8aMutgOxOuWgxFlkHaANLxIOp1uEJGUh6qsUqICqtoYj8c5Z0p0/HnaFBhvAV63xnsECu/4vG45GzMGaWdOe5XKvZvxPgAneqjOKqUn8HBvb+/JfHd46Q08z5gCYRHgdSssI1Ew/eB1y+FQMUg7hBpaLPeU7KcjkUhX7sE0D62wSokIvJzNZquffvrpO/k2lhIZcZ4mBUIowOtWCAclvF3idcvF2DBIu8AaWrS7u3tyT0/PxQAuAXCgx2ZYrbgFzOvuWiorK6+pqqraWdynyrOjAAXCLsDrVthHKBT943XL5TAwSLsEG1p8/fr1R/b3939TRM4GcEAeTbFq8Qm8KiK3RCKRb82ePfuZ4js9nhEFKFCIArxuFeKojVmfed3yQM0g7QFtsIqqyrp16/7Vtm2zU91/MUzngVlcVV8F8H3LslJz5sz5i4hocZ0ez4YCFChUAV63CnXkAu83r1seiRmkPcINVjPrzo444oh/KSsrM1uHf5HLPPIELfzqr6hqdyaTuerZZ5/9K9dFF/6A8gwoUGwCvG4V24jmfT68buVByCCdB97QO9M33XTTEdlstk5VLwLwZh+aZROFJ/APEbk2m822x+PxZ3gnuvAGkD2mQKkImDvTvG6VymiPeJ68buU5DRik8wQcWr2tre0Ay7I+LCItfm4j7mMX2VRwAo9ks9kGAL+qq6szfyLjhwIUoEDoBXjdCv0QBdlBXrd80GWQ9gFxaBPmt/zVq1dPLC8vXyAiCwEc7PMh2Fy4BF5W1Sv6+vpWbt26dQ+XcoRrcNgbClBgdAFet0Y3KrISvG75OKAM0j5iDm/q5ptvPqi3t3cugLNFZAaACgBlAKwAD8umgxOwAfQD6FXVpwDcUlFRsXbWrFkvB3dItkwBClBg7AR43Ro76zE6Eq9bAUMzSAcMbJo3fzqLRqMfUNVPqep7ReQQABNzoTrCYD0Gg+DtEOYHUDYXnner6osi8oCI/CSTydzPJRzeUFmLAhQIvwCvW+Efo/30kNetMR46BukxBs89LX1wNBo9OhKJTFPVStu2zZ1qfkImYFlWr4j0ZLPZbZlMZsuzzz77EpduhGyQ2B0KUCBwAV63Aif27QC8bvlG6bghBmnHVCxIAQpQgAIUoAAFKECB/xVgkOZsoAAFKEABClCAAhSggAcBBmkPaKxCAQpQgAIUoAAFKEABBmnOAQpQgAIUoAAFKEABCngQYJD2gMYqFKAABShAAQpQgAIUYJDmHKAABShAAQpQgAIUoIAHAQZpD2isQgEKUIACFKAABShAAQZpzgEKUIACFKAABXwT6OrqmqSqb/LSYCaT2VFbW7tTRNRL/X3V6e7unrx79+4DvbQ3ceLEV6qqqnZ6qbuvOmY79vb29snRaHSKlzZF5J/V1dW7vNRlnWAEGKSDcWWrFKAABShAgZIU6Ozs/Hfbtud6OXlV/d7OnTtvX7BgQa+X+sPrmM1kZsyYcbpt27M9tnfT5s2bf+TXZlzd3d3lPT09n1XVszz2py0ej//EY11WC0CAQToAVDZJAQpQgAIUKFWBtra28yKRyI1ezl9VL+3r62upr6/v8VJ/eJ3u7u5IT0/PlwF820t7qrpo8+bNVyWTyYyX+sPrtLa2VpaXl18iIkkv7dm2fX5tba0nWy/HY53RBRikRzdiCQpQgAIUoAAFHAowSO8fikHa4SQqoGIM0gU0WOwqBShAAQpQIOwCDNIM0mGfo372j0HaT022RQEKUIACFChxAQZpBulS+gowSJfSaPNcKUABClCAAgELMEgzSAc8xULVPIN0qIaDnaEABShAAQoUtgCDNIN0Yc9gd71nkHbnxdIUoAAFKEABCowgwCDNIF1KXxAG6VIabZ4rBShAAQpQIGABBmkG6YCnWKiaZ5AO1XCwMxSgAAUoQIHCFmCQZpAu7BnsrvcM0u68WJoCFKAAIUbm9AAACwRJREFUBShAgREEGKQZpEvpC8IgXUqjzXOlAAUoQAEKBCzAIM0gHfAUC1XzDNKhGg52hgIUoAAFKFDYAgzSDNKFPYPd9f4NQdrsc9/Y2OhpD3h3h2ZpClCAAhSgAAWKTYBBmkG62Ob0SOfT1NSUFJGl0tTU1CgiywGkEolEYykh8FwpQAEKUIACFPBHgEGaQdqfmVQYraRSqSYACWlubr5QVa8FcH0ikbiwMLrPXlKAAhSgAAUoECYBBmkG6TDNx6D7kkqlrgNwgaRSqVkAbgJwSyKROCfoA7N9ClCAAhSgAAWKT4BBmkG6+Gb1/s8olUp9B8DZ5o70qap6N4BfJBKJj5cSAs+VAhSgAAUoQAF/BBikGaT9mUmF0UoqlboXwMekpaXlWNu2nwCwJZFITC+M7rOXFKAABShAAQqESYBBmkE6TPMx6L6kUqnNAI4Wc6BUKtUHoCwSiUy+5JJLdgV9cLZPAQpQgAIUoEBxCTBIM0gX14ze/9msWLFiUjab3QmgfzBI/xHASbZtf2jx4sX3lQoEz5MCFKAABShAAX8E0ul0rYi0eWxtSWVl5ZVVVVW7Pdbfq1p3d3dk586dF1iWdY2X9kTkyxMnTryuqqoq66X+8Drd3d0Td+3a9RURudxje3NjsZhXW4+HZLX9CSxfvvxky7J+A+ChwSBtBqcWwIJEImHe4MEPBShAAQpQgAIUcCzQ3t7+Ccuyfua4wt4Fazdt2nRTMpk0fyHP+5NMJq3p06efISLf99jYFzZt2vT9ZDJpe6y/V7XW1tayCRMmzFLVDi/ticinampqfuqlLuv4L5BKpS4CsBJA+0CQbmpqmi8irXxzh//YbJECFKAABShQCgLpdPpQEfkdgKNcnu8LlmV9bs6cOb8TEXVZd7/F161b9y+ZTOZuETncZZtbLcv6ZHV19WMu641UXDo7O9+nqrcBONRlu89ms9n319XVPeeyHosHJDD4xg5VrR8I0s3NzSeo6kYAzycSicMCOi6bpQAFKEABClCgSAXS6fQEEfkagMvcnKKI3JDNZpO1tbUvuak3Wtn169dP6e/vXywiDaOVHfrvqrqir6/v8vr6+lfc1But7M0333xQX1/fUgBu9+xYqqot8Xh8z2jH4L+PjUAqldpqfiESkZkDQdp8UqnU4wCO4zrpsRkEHoUCFKAABShQbAJr166dXlZWtlZVPwHAGuX8VFUfUNWLamtr7w/Cor29faZlWasAfNhBf8wyDvOcWH0sFns0iP50dna+3ywJUFXz39cz2H6OZYvIPbZt18Xj8U1B9IdtuhcYsj76iUQicfzrg9jU1HSNiCzgVuHuUVmDAhSgAAUoQIEBAVmzZs07y8rKLh14x67IFFWNDrMxgXWHqj5oWdayp5566l6/1iIPHwNVlXQ6/X4R+aZlWSer6hQAkWHlsiJi+vNbVf1WLBa7388lJkOPlVu7/TEAS0Tk3wCY/uz1C4eIZFR1h4j8EsA3q6urHwmqP5yz7gUGtwZX1ZWNjY0Xvx6kh2zM8ngikXib+6ZZgwIUoAAFKEABCgBdXV2HqOoZqvoZAIer6kSRgchhlie8DMCsXb61pqZmy1h4tbW1HR6NRj+vqp8SkbeY/gykfpHdqvoCgJ9ms9nvj9U65Pb29qNE5EwR+SSAgwBMUNWB/gB4TlXvjEQit1VXV784Fj48hnOBVCr1NwDHi8gnGhoafr7XnxUGl3eo6qcbGxvvct4sS1KAAhSgAAUoQIG9Bbq7u8t7e3vfnMlkDrJt26qoqPjHtm3bXlqwYEHveFiZ/uzevftgAG/OHf8fEydOfKmqqsqXt4W4PaeVK1dWTJs27WBjZFmWHY1GXzZG49Uft/0vtfJNTU2nicidAAaWdQz8MjYUobm52SxoT/LtHaU2NXi+FKAABShAAQpQgAIjCQy+rUNEkg0NDWb50t5BetmyZUdFo9GBP7NYlvW2RYsWmQcQ+aEABShAAQpQgAIUoEDJCrS0tBxv27ZZ1oFMJnP0kiVLnn5DkDb/I5VKDW7Ocn0ikXD7ipaSBeaJU4ACFKAABShAAQoUp0AqlboOwAVmE5ZEIlE3eJZvePVKKpV6l9nykHeli3Mi8KwoQAEKUIACFKAABZwLDL0bDeCkRCLxp/0G6aF3pUWks6GhIeb8UCxJAQpQgAIUoAAFKECB4hFobm7uUNWa4XejzRnu82XgLS0tx9q2/YQpwDd4FM9E4JlQgAIUoAAFKEABCjgXGPKmDvP84HGLFi36+9Da+91VZ/ANHiLyYENDg3lpOD8UoAAFKEABClCAAhQoGYHm5uY/qOp7hr6pw1GQNoVSqdQfzVoQ7nZYMvOFJ0oBClCAAhSgAAUo8FoObgKQMM8OJhKJd+8LZcR93ofsdmjqnpFIJG6nLAUoQAEKUIACFKAABYpZIJVKfRbAD805Du5i6DpImwpDNml5PpPJfHDJkiWbixmO50YBClCAAhSgAAUoULoCy5Ytmx6NRn8L4ND9LekY1BnxjvRgoVQq9QMAnwPwi0Qi8fHSpeWZU4ACFKAABShAAQoUs0AqlboXwMcA3JZIJD4/0rk6CtJNTU1TReRXAGZy+/Binjo8NwpQgAIUoAAFKFC6AoPbgAPYqKofaWxs3J53kDYN5DZq+TmAqQDWJBKJ+aXLzDOnAAUoQAEKUIACFCgmgVQqtRrAPAAmPJ86dOOV/Z2nozvSg5VzDx/eCaCMYbqYpg7PhQIUoAAFKEABCpSuwJAQ3S8in25oaDA3j0f9uArSprWmpqbPiIh5itGE6VsSicQ5ox6FBShAAQpQgAIUoAAFKBBCgSHLOfpV9YzGxsYfO+2m6yBtGs7dmb41t8zjF5lMpppv83BKznIUoAAFKEABClCAAuMtkHs7R1fuwcLtInKm0zvRg333FKRN5dya6ZtzDyA+D2A+3zM93lOCx6cABShAAQpQgAIUGE0g955osyb6UPNgIYBZTtZED2/Xc5A2DeXe5pHOvRpvIF8nEonG0TrPf6cABShAAQpQgAIUoMB4CAzZsdAc/jZVjY/2do799TOvID3Y6JBNW8zuLw/att3Y2Nh413jg8JgUoAAFKEABClCAAhQYLtDU1HSaZVlNqvoe82+jbbbiRNCXIG0OlFs3fSWAk3Kd6xSRyxctWvS4k46wDAUoQAEKUIACFKAABfwWaGlpOV5Vv66qNbm2HxKRhW7XQ++rX74F6X3dnc79v+sty7qGgdrvacH2KEABClCAAhSgAAX2J2ACtG3bFwO4YLCMH3ehhx7P9yBtGm9paTnWtu3FAGqHHOwWVU1zyQcnPAUoQAEKUIACFKBAUAJmCYeIxAGcPeQY7ZZlLV+0aNHf/TxuIEF6sIO5N3ssGBaozVKPW23b/uHixYvv8/Nk2BYFKEABClCAAhSgQOkJLF++/GTLss4AcCaA44cGaAArvbyRw4lioEF6sAPLli07qqysrFZVZwM4bkjHzGvz7gHwG9u2HygrK3v4kksu2eWk4yxDAQpQgAIUoAAFKFB6AitWrJjU399/omVZ7wXwIQCn5F5jN4jxhIis7+/vb1+yZMnTQQqNSZAeegLmoUTbtj8vIqcPC9WDxbYA2ATgOQD/APCqqvZalqVBQrBtClCAAhSgAAUoQIHwCNi2LSJSAeAAAG8GcDiAtwI4eh+9fEJV77As6wd+PEToVGHMg/SwUH2CbdsfFZEPADCvInl7butxp/1nOQpQgAIUoAAFKECB0hLoB/AogAdV9X7Lsn7Z0NDw2HgQ/H9mzkTRQvsCrwAAAABJRU5ErkJggg==;flipH=1;" vertex="1" parent="NjIfr40OnEK4QTtOGcaU-14">
          <mxGeometry y="91" width="520" height="196.01" as="geometry" />
        </mxCell>
        <mxCell id="NjIfr40OnEK4QTtOGcaU-13" value="Endpoint B (Responder)" style="text;html=1;align=center;verticalAlign=middle;resizable=0;points=[];autosize=1;strokeColor=none;fontSize=18;fontFamily=Tahoma;fontColor=#888888;fontStyle=1" vertex="1" parent="NjIfr40OnEK4QTtOGcaU-14">
          <mxGeometry x="145" y="61" width="230" height="30" as="geometry" />
        </mxCell>
        <mxCell id="NjIfr40OnEK4QTtOGcaU-11" value="Response" style="text;html=1;align=center;verticalAlign=middle;resizable=0;points=[];autosize=1;strokeColor=none;fontSize=18;fontFamily=Tahoma;fontColor=#888888;fontStyle=1;container=0;" vertex="1" parent="NjIfr40OnEK4QTtOGcaU-14">
          <mxGeometry x="55" y="-21" width="100" height="30" as="geometry" />
        </mxCell>
        <mxCell id="NjIfr40OnEK4QTtOGcaU-18" style="edgeStyle=orthogonalEdgeStyle;rounded=0;orthogonalLoop=1;jettySize=auto;html=1;exitX=0.75;exitY=1;exitDx=0;exitDy=0;entryX=0.75;entryY=0;entryDx=0;entryDy=0;fontFamily=Tahoma;fontSize=18;fontColor=#888888;strokeColor=#888888;strokeWidth=5;" edge="1" parent="1">
          <mxGeometry relative="1" as="geometry">
            <mxPoint x="455" y="263" as="sourcePoint" />
            <mxPoint x="455" y="342" as="targetPoint" />
          </mxGeometry>
        </mxCell>
      </root>
    </mxGraphModel>
  </diagram>
</mxfile>
